<?xml version="1.0" encoding="UTF-8"?>
<svg xmlns="http://www.w3.org/2000/svg" xmlns:xlink="http://www.w3.org/1999/xlink" width="246px" height="62px" viewBox="0 0 248 62" version="1.1">
<g id="surface1">
<path style=" stroke:none;fill-rule:nonzero;fill:rgb(0%,0%,0%);fill-opacity:1;" d="M 168.078125 5.175781 C 160.746094 5.941406 155.023438 11.214844 153.523438 18.566406 C 153.375 19.320312 153.332031 20.019531 153.332031 21.6875 C 153.34375 23.660156 153.363281 23.949219 153.644531 25.121094 C 154.417969 28.449219 155.808594 30.945312 158.175781 33.324219 C 161.050781 36.199219 164.355469 37.726562 168.605469 38.113281 C 170.746094 38.320312 173.363281 38.019531 175.453125 37.339844 C 179.402344 36.046875 182.976562 32.960938 184.847656 29.214844 C 185.320312 28.265625 186.109375 26.1875 186.109375 25.875 C 186.109375 25.746094 185.441406 25.726562 181.886719 25.726562 L 177.65625 25.726562 L 177.335938 26.351562 C 176.527344 27.898438 175.097656 29.40625 173.730469 30.128906 C 170.738281 31.730469 166.96875 31.238281 164.449219 28.933594 C 163.191406 27.769531 162.113281 25.898438 161.652344 24.058594 C 161.320312 22.691406 161.308594 20.484375 161.652344 19.117188 C 162.480469 15.800781 164.816406 13.261719 167.777344 12.464844 C 168.992188 12.140625 170.886719 12.140625 172.0625 12.476562 C 174.320312 13.109375 176.183594 14.703125 177.257812 16.921875 L 177.65625 17.75 L 181.929688 17.75 L 186.203125 17.761719 L 185.945312 16.8125 C 185 13.273438 182.425781 9.828125 179.164062 7.726562 C 175.96875 5.660156 172.050781 4.769531 168.078125 5.175781 Z M 168.078125 5.175781 "/>
<path style=" stroke:none;fill-rule:nonzero;fill:rgb(0%,0%,0%);fill-opacity:1;" d="M 235.914062 5.425781 C 235.160156 5.628906 234.566406 6.101562 234.179688 6.78125 C 233.886719 7.296875 233.84375 7.46875 233.84375 8.179688 C 233.84375 9.09375 234.0625 9.613281 234.675781 10.195312 C 236.09375 11.550781 238.484375 11.066406 239.257812 9.269531 C 239.507812 8.695312 239.484375 7.589844 239.214844 6.996094 C 238.636719 5.738281 237.226562 5.058594 235.914062 5.425781 Z M 237.6875 5.929688 C 239.292969 6.75 239.550781 8.878906 238.195312 10.042969 C 236.96875 11.097656 235.09375 10.6875 234.425781 9.203125 C 233.855469 7.964844 234.449219 6.394531 235.675781 5.855469 C 236.179688 5.628906 237.171875 5.671875 237.6875 5.929688 Z M 237.6875 5.929688 "/>
<path style=" stroke:none;fill-rule:nonzero;fill:rgb(0%,0%,0%);fill-opacity:1;" d="M 235.40625 8.167969 L 235.40625 9.796875 L 235.675781 9.796875 C 235.933594 9.796875 235.945312 9.773438 235.945312 9.09375 L 235.945312 8.394531 L 236.472656 8.394531 C 237.128906 8.394531 237.300781 8.546875 237.398438 9.257812 C 237.460938 9.699219 237.503906 9.796875 237.6875 9.796875 C 237.894531 9.796875 237.902344 9.742188 237.859375 9.203125 C 237.828125 8.847656 237.730469 8.535156 237.625 8.40625 C 237.441406 8.203125 237.441406 8.191406 237.65625 7.976562 C 237.9375 7.695312 237.945312 7.210938 237.675781 6.878906 C 237.496094 6.640625 237.367188 6.621094 236.441406 6.585938 L 235.40625 6.542969 Z M 237.234375 7.105469 C 237.710938 7.578125 237.320312 8.074219 236.484375 8.074219 L 235.945312 8.074219 L 235.945312 6.890625 L 236.484375 6.890625 C 236.882812 6.890625 237.074219 6.941406 237.234375 7.105469 Z M 237.234375 7.105469 "/>
<path style=" stroke:none;fill-rule:nonzero;fill:rgb(0%,0%,0%);fill-opacity:1;" d="M 8.503906 31.324219 L 8.503906 56.941406 L 59.738281 56.941406 L 59.738281 5.703125 L 8.503906 5.703125 Z M 35.121094 8.566406 C 36.445312 8.828125 37.46875 9.417969 37.847656 10.140625 C 38.019531 10.460938 38.050781 11.269531 37.898438 11.507812 C 37.78125 11.691406 35.597656 11.691406 34.324219 11.496094 C 33.410156 11.367188 33.238281 11.398438 33.011719 11.753906 C 32.871094 11.96875 32.882812 12.324219 33.152344 14.800781 C 33.324219 16.445312 33.410156 17.695312 33.355469 17.824219 C 33.164062 18.363281 32.378906 18.566406 31.765625 18.253906 C 31.375 18.050781 31.011719 17.566406 30.539062 16.609375 C 28.78125 13.132812 29.6875 9.128906 32.386719 8.4375 C 32.949219 8.300781 34.058594 8.351562 35.121094 8.566406 Z M 27.449219 17.125 C 30.277344 17.328125 31.429688 17.8125 31.429688 18.816406 C 31.429688 19.675781 30.945312 19.925781 29.300781 19.925781 C 28.664062 19.914062 27.394531 19.816406 26.480469 19.699219 C 24.292969 19.417969 24.066406 19.417969 18.4375 19.859375 C 12.109375 20.34375 12.441406 20.34375 12.121094 20.03125 C 11.785156 19.707031 11.667969 19.214844 11.851562 18.878906 C 12.011719 18.578125 12.796875 18.039062 13.410156 17.824219 C 13.648438 17.75 14.949219 17.578125 16.308594 17.449219 C 17.675781 17.320312 19.03125 17.167969 19.320312 17.125 C 20.105469 16.996094 25.757812 16.996094 27.449219 17.125 Z M 48.546875 17.320312 C 51.632812 17.695312 54.960938 18.277344 55.421875 18.503906 C 55.898438 18.75 56.371094 19.265625 56.46875 19.65625 C 56.554688 20.011719 56.316406 20.558594 56.027344 20.667969 C 55.875 20.71875 54.464844 20.582031 52.140625 20.277344 C 46.5 19.546875 46.84375 19.570312 42.140625 19.742188 C 38.621094 19.859375 37.898438 19.871094 37.664062 19.742188 C 37.363281 19.589844 37.027344 18.914062 37.027344 18.480469 C 37.027344 17.933594 37.984375 17.460938 39.515625 17.234375 C 39.957031 17.167969 40.429688 17.09375 40.578125 17.070312 C 40.730469 17.050781 42.164062 17.039062 43.753906 17.0625 C 45.917969 17.082031 47.144531 17.148438 48.546875 17.320312 Z M 25.898438 20.914062 C 28.148438 21.238281 29.234375 21.441406 29.429688 21.558594 C 29.859375 21.851562 30.644531 22.894531 31.074219 23.765625 C 31.730469 25.078125 31.6875 26.75 31 26.964844 C 30.65625 27.070312 29.773438 26.824219 29.234375 26.46875 C 28.824219 26.1875 28.707031 26.015625 28.308594 25.101562 C 28.039062 24.476562 27.71875 23.929688 27.511719 23.722656 L 27.167969 23.390625 L 25.121094 23.324219 C 24.003906 23.28125 22.164062 23.25 21.023438 23.25 L 18.957031 23.25 L 18.117188 22.808594 C 17.179688 22.324219 16.585938 21.90625 16.5 21.679688 C 16.382812 21.367188 16.578125 21.011719 16.976562 20.816406 C 17.492188 20.570312 18.429688 20.484375 20.773438 20.472656 C 22.464844 20.460938 23.003906 20.503906 25.898438 20.914062 Z M 48.898438 20.945312 C 51.191406 21.257812 53.292969 21.96875 53.679688 22.570312 C 53.863281 22.839844 53.851562 22.851562 53.519531 23.152344 C 53.335938 23.324219 52.828125 23.5625 52.398438 23.703125 C 51.71875 23.917969 51.398438 23.949219 50.050781 23.9375 C 48.371094 23.929688 46.253906 23.710938 43.582031 23.304688 C 41.644531 23.003906 41.355469 23.035156 40.675781 23.648438 C 39.828125 24.414062 38.921875 26.824219 38.695312 28.902344 C 38.621094 29.621094 38.425781 30 38.070312 30.128906 C 37.382812 30.386719 36.8125 29.558594 36.738281 28.203125 C 36.714844 27.761719 36.738281 26.445312 36.789062 25.296875 C 36.898438 22.96875 36.996094 22.605469 37.695312 22.011719 C 38.597656 21.246094 39.277344 21.109375 43.484375 20.828125 C 45.855469 20.675781 47.070312 20.699219 48.898438 20.945312 Z M 32.183594 27.339844 C 32.367188 27.523438 32.398438 27.695312 32.398438 28.40625 C 32.398438 29.332031 32.183594 30.644531 31.9375 31.226562 C 31.851562 31.429688 31.332031 32.152344 30.785156 32.828125 C 28.964844 35.101562 28.566406 35.800781 27.878906 37.996094 C 27.363281 39.664062 26.8125 40.796875 26.082031 41.699219 C 24.746094 43.347656 23.886719 44.550781 23.207031 45.769531 C 22.796875 46.5 22.164062 47.597656 21.796875 48.222656 C 21.421875 48.847656 20.871094 49.859375 20.558594 50.484375 C 19.773438 52.066406 18.976562 53.355469 18.492188 53.839844 C 18.136719 54.195312 18.019531 54.25 17.589844 54.25 C 16.953125 54.25 16.46875 53.820312 16.46875 53.257812 C 16.480469 52.441406 16.996094 50.441406 18.203125 46.585938 C 18.78125 44.734375 19.289062 43.992188 21.367188 41.914062 C 22.832031 40.460938 23.046875 40.191406 23.507812 39.300781 C 23.789062 38.761719 24.328125 37.363281 24.714844 36.1875 C 25.15625 34.832031 25.683594 33.507812 26.167969 32.507812 L 26.929688 30.945312 L 28.511719 29.363281 C 29.804688 28.070312 30.214844 27.726562 30.785156 27.457031 C 31.601562 27.070312 31.894531 27.050781 32.183594 27.339844 Z M 40.171875 32.734375 C 41.042969 33.175781 43.238281 35.488281 44.335938 37.113281 C 45.15625 38.332031 45.53125 39.246094 45.53125 40.019531 C 45.53125 40.65625 45.507812 40.730469 45.164062 41.074219 C 44.660156 41.582031 44.261719 41.570312 43.710938 41.03125 C 43.28125 40.621094 38.640625 35.5625 38.019531 34.84375 C 37.1875 33.863281 37.898438 32.527344 39.265625 32.507812 C 39.523438 32.507812 39.914062 32.605469 40.171875 32.734375 Z M 36.585938 34.992188 C 37.082031 35.242188 37.652344 35.714844 38.664062 36.695312 C 40.0625 38.050781 40.0625 38.050781 40.753906 39.449219 C 41.117188 40.214844 41.667969 41.441406 41.957031 42.152344 C 42.636719 43.808594 44.207031 46.175781 46.070312 48.382812 C 46.824219 49.265625 47.941406 50.957031 48.277344 51.699219 C 48.425781 52.042969 48.546875 52.484375 48.546875 52.699219 C 48.546875 53.042969 48.503906 53.097656 48.0625 53.292969 C 47.382812 53.59375 46.210938 53.679688 45.789062 53.464844 C 45.316406 53.214844 44.433594 52.238281 43.777344 51.226562 C 42.65625 49.515625 40.882812 46.15625 39.644531 43.433594 C 39.460938 43.011719 39.09375 42.410156 38.835938 42.074219 C 38.578125 41.742188 38.007812 40.988281 37.554688 40.40625 C 37.113281 39.828125 36.566406 39.105469 36.339844 38.816406 C 35.769531 38.0625 35.425781 37.328125 35.242188 36.5 C 35.035156 35.488281 35.046875 35.230469 35.359375 34.929688 C 35.691406 34.585938 35.777344 34.59375 36.585938 34.992188 Z M 33.292969 35.605469 C 34.195312 36.480469 34.390625 37.125 34.035156 38.125 C 33.367188 40.019531 30.097656 43.746094 28.730469 44.152344 C 28.375 44.261719 28.210938 44.25 27.847656 44.121094 C 27.285156 43.925781 27.027344 43.570312 26.941406 42.863281 C 26.855469 42.066406 27.277344 41.246094 28.46875 39.933594 C 29.523438 38.78125 29.914062 38.222656 30.546875 36.964844 C 31.042969 35.984375 31.429688 35.476562 31.914062 35.175781 C 32.355469 34.90625 32.667969 35.003906 33.292969 35.605469 Z M 46.929688 43.894531 L 47.628906 44.292969 L 49.847656 48.683594 L 49.816406 49.394531 C 49.78125 50.03125 49.761719 50.105469 49.546875 50.136719 C 48.738281 50.257812 46.746094 48.15625 45.164062 45.53125 C 44.445312 44.324219 44.367188 44.109375 44.605469 43.753906 C 44.765625 43.507812 44.851562 43.484375 45.507812 43.484375 C 46.144531 43.484375 46.316406 43.527344 46.929688 43.894531 Z M 26.351562 44.59375 C 26.523438 44.789062 26.714844 46.886719 26.628906 47.511719 C 26.542969 48.191406 26.15625 48.761719 25.078125 49.847656 C 23.886719 51.042969 23.054688 51.625 22.410156 51.710938 C 21.828125 51.785156 21.570312 51.730469 21.484375 51.503906 C 21.410156 51.289062 22.304688 48.988281 22.894531 47.898438 C 23.5625 46.660156 24.371094 45.488281 24.929688 44.917969 C 25.316406 44.53125 25.46875 44.453125 25.824219 44.453125 C 26.046875 44.453125 26.285156 44.519531 26.351562 44.59375 Z M 26.351562 44.59375 "/>
<path style=" stroke:none;fill-rule:nonzero;fill:rgb(0%,0%,0%);fill-opacity:1;" d="M 67.058594 21.636719 L 67.058594 37.566406 L 75.132812 37.566406 L 75.132812 25.402344 L 84.066406 25.402344 L 84.066406 18.296875 L 75.132812 18.296875 L 75.132812 12.808594 L 84.390625 12.808594 L 84.390625 5.703125 L 67.058594 5.703125 Z M 67.058594 21.636719 "/>
<path style=" stroke:none;fill-rule:nonzero;fill:rgb(0%,0%,0%);fill-opacity:1;" d="M 87.230469 6.265625 C 87.371094 6.578125 89.5 11.128906 91.964844 16.371094 L 96.445312 25.917969 L 96.445312 37.566406 L 104.625 37.566406 L 104.625 25.910156 L 109.265625 15.941406 C 111.816406 10.460938 113.925781 5.910156 113.957031 5.835938 C 114 5.738281 113.097656 5.703125 109.664062 5.703125 L 105.3125 5.703125 L 103.011719 11.863281 C 101.75 15.253906 100.675781 18.125 100.609375 18.234375 C 100.523438 18.394531 100.492188 18.40625 100.425781 18.289062 C 100.382812 18.203125 99.320312 15.339844 98.046875 11.914062 L 95.753906 5.703125 L 86.972656 5.703125 Z M 87.230469 6.265625 "/>
<path style=" stroke:none;fill-rule:nonzero;fill:rgb(0%,0%,0%);fill-opacity:1;" d="M 115.710938 9.257812 L 115.710938 12.808594 L 121.203125 12.808594 C 124.226562 12.808594 126.691406 12.832031 126.691406 12.863281 C 126.691406 12.894531 124.226562 17.277344 121.203125 22.605469 L 115.710938 32.292969 L 115.710938 37.566406 L 135.839844 37.566406 L 135.839844 30.460938 L 130.769531 30.460938 C 126.304688 30.460938 125.710938 30.441406 125.765625 30.300781 C 125.796875 30.214844 128.078125 26.113281 130.835938 21.203125 L 135.839844 12.269531 L 135.839844 5.703125 L 115.710938 5.703125 Z M 115.710938 9.257812 "/>
<path style=" stroke:none;fill-rule:nonzero;fill:rgb(0%,0%,0%);fill-opacity:1;" d="M 140.039062 21.636719 L 140.039062 37.566406 L 148.109375 37.566406 L 148.109375 5.703125 L 140.039062 5.703125 Z M 140.039062 21.636719 "/>
<path style=" stroke:none;fill-rule:nonzero;fill:rgb(0%,0%,0%);fill-opacity:1;" d="M 198.410156 6.101562 C 198 7.105469 186 37.449219 186 37.5 C 186 37.542969 187.96875 37.554688 190.382812 37.542969 L 194.761719 37.511719 L 195.484375 35.25 L 196.195312 32.992188 L 201.800781 32.960938 L 207.398438 32.9375 L 208.171875 35.25 L 208.949219 37.566406 L 213.351562 37.566406 C 215.773438 37.566406 217.753906 37.535156 217.753906 37.480469 C 217.753906 37.4375 215.019531 30.277344 211.683594 21.582031 L 205.601562 5.757812 L 202.09375 5.726562 L 198.582031 5.703125 Z M 203.535156 20.957031 C 204.492188 23.929688 205.265625 26.402344 205.265625 26.46875 C 205.265625 26.609375 198.269531 26.640625 198.269531 26.5 C 198.25 26.285156 201.671875 15.414062 201.726562 15.476562 C 201.769531 15.523438 202.578125 17.988281 203.535156 20.957031 Z M 203.535156 20.957031 "/>
<path style=" stroke:none;fill-rule:nonzero;fill:rgb(0%,0%,0%);fill-opacity:1;" d="M 221.953125 21.636719 L 221.953125 37.566406 L 239.496094 37.566406 L 239.496094 30.460938 L 230.023438 30.460938 L 230.023438 5.703125 L 221.953125 5.703125 Z M 221.953125 21.636719 "/>
<path style=" stroke:none;fill-rule:nonzero;fill:rgb(0%,0%,0%);fill-opacity:1;" d="M 67.058594 49.730469 L 67.058594 56.941406 L 239.496094 56.941406 L 239.496094 42.515625 L 67.058594 42.515625 Z M 127.507812 45.089844 C 128.359375 45.476562 128.855469 46.511719 128.628906 47.382812 C 128.488281 47.910156 127.992188 48.46875 127.421875 48.769531 C 127.195312 48.890625 127.015625 49.019531 127.015625 49.0625 C 127.015625 49.105469 127.402344 49.523438 127.863281 49.988281 L 128.714844 50.835938 L 129.339844 49.632812 L 129.972656 48.4375 L 130.4375 48.4375 C 130.683594 48.4375 130.890625 48.480469 130.890625 48.523438 C 130.890625 48.566406 130.542969 49.253906 130.136719 50.042969 L 129.382812 51.460938 L 130.320312 52.484375 C 130.847656 53.042969 131.265625 53.5625 131.265625 53.625 C 131.265625 53.691406 131.125 53.839844 130.964844 53.96875 L 130.664062 54.183594 L 129.78125 53.226562 L 128.886719 52.269531 L 128.597656 52.765625 C 128.207031 53.433594 127.660156 53.882812 126.992188 54.089844 C 126.292969 54.292969 126.011719 54.292969 125.300781 54.078125 C 123.730469 53.613281 122.976562 51.882812 123.742188 50.472656 C 124.011719 49.988281 124.460938 49.578125 125.335938 49.03125 C 125.484375 48.933594 125.453125 48.847656 125.085938 48.382812 C 124.539062 47.695312 124.355469 47.050781 124.527344 46.425781 C 124.871094 45.175781 126.292969 44.539062 127.507812 45.089844 Z M 196.246094 45.199219 C 196.902344 45.457031 197.785156 46.175781 198.292969 46.867188 C 198.710938 47.445312 198.691406 47.578125 198.152344 47.578125 C 197.753906 47.578125 197.648438 47.511719 197.128906 46.984375 C 196.332031 46.144531 195.589844 45.820312 194.492188 45.820312 C 193.75 45.820312 193.546875 45.875 192.953125 46.167969 C 191.339844 46.953125 190.542969 48.71875 190.996094 50.484375 C 191.296875 51.644531 191.941406 52.429688 192.996094 52.949219 C 193.492188 53.183594 193.738281 53.226562 194.503906 53.226562 C 195.289062 53.226562 195.503906 53.183594 196.019531 52.925781 C 196.355469 52.765625 196.851562 52.386719 197.128906 52.097656 C 197.601562 51.589844 197.667969 51.558594 198.175781 51.558594 L 198.703125 51.558594 L 198.496094 51.96875 C 198.207031 52.539062 197.195312 53.464844 196.527344 53.765625 C 195.289062 54.324219 194.03125 54.335938 192.621094 53.808594 C 191.703125 53.476562 190.542969 52.3125 190.207031 51.398438 C 189.679688 49.988281 189.714844 48.769531 190.304688 47.5 C 190.855469 46.316406 191.769531 45.519531 193.082031 45.089844 C 193.910156 44.808594 195.386719 44.863281 196.246094 45.199219 Z M 76.855469 45.476562 L 76.855469 45.960938 L 74.59375 45.960938 L 74.59375 54.035156 L 73.515625 54.035156 L 73.515625 45.960938 L 71.363281 45.960938 L 71.363281 44.992188 L 76.855469 44.992188 Z M 78.769531 46.703125 L 78.800781 48.351562 L 79.007812 48.082031 C 79.363281 47.628906 80.148438 47.328125 81 47.316406 C 81.976562 47.308594 82.65625 47.566406 83.140625 48.125 C 83.730469 48.8125 83.851562 49.472656 83.851562 51.914062 L 83.851562 54.035156 L 82.882812 54.035156 L 82.882812 51.851562 C 82.882812 49.394531 82.785156 49.019531 82.117188 48.535156 C 81.578125 48.148438 80.308594 48.113281 79.707031 48.460938 C 79.46875 48.597656 79.167969 48.898438 79.039062 49.136719 C 78.8125 49.546875 78.792969 49.6875 78.792969 51.796875 L 78.792969 54.035156 L 77.824219 54.035156 L 77.824219 44.980469 L 78.285156 45.015625 L 78.738281 45.046875 Z M 140.285156 45.347656 C 141.113281 45.757812 141.480469 46.359375 141.480469 47.296875 C 141.46875 48.070312 141.277344 48.503906 140.726562 48.953125 C 140.339844 49.277344 140.339844 49.277344 140.585938 49.351562 C 141.40625 49.609375 141.976562 50.492188 141.976562 51.484375 C 141.976562 52.613281 141.414062 53.433594 140.394531 53.820312 C 139.898438 54.003906 139.554688 54.035156 138.101562 54.035156 L 136.378906 54.035156 L 136.378906 44.972656 L 138.023438 45.003906 C 139.566406 45.046875 139.695312 45.070312 140.285156 45.347656 Z M 152.847656 49.515625 L 152.847656 54.035156 L 151.878906 54.035156 L 151.878906 44.992188 L 152.847656 44.992188 Z M 217.195312 46.253906 L 217.226562 47.46875 L 218.613281 47.46875 L 218.613281 48.222656 L 217.214844 48.222656 L 217.214844 54.035156 L 216.246094 54.035156 L 216.246094 48.222656 L 214.953125 48.222656 L 214.953125 47.46875 L 216.246094 47.46875 L 216.246094 44.980469 L 216.710938 45.015625 L 217.160156 45.046875 Z M 89.910156 47.535156 C 90.546875 47.75 91.40625 48.511719 91.699219 49.117188 C 91.957031 49.644531 92.160156 50.621094 92.074219 50.859375 C 92.019531 51 91.589844 51.019531 89.050781 51.019531 L 86.089844 51.019531 L 86.164062 51.417969 C 86.273438 52 86.476562 52.355469 86.972656 52.765625 C 88.046875 53.691406 89.640625 53.582031 90.546875 52.539062 C 90.867188 52.152344 90.976562 52.097656 91.363281 52.097656 C 91.613281 52.097656 91.816406 52.140625 91.816406 52.183594 C 91.816406 52.355469 91.214844 53.121094 90.835938 53.433594 C 90.191406 53.980469 89.597656 54.183594 88.640625 54.195312 C 87.929688 54.195312 87.671875 54.140625 87.175781 53.917969 C 85.960938 53.347656 85.226562 52.183594 85.207031 50.804688 C 85.183594 48.296875 87.476562 46.703125 89.910156 47.535156 Z M 96.421875 47.769531 C 96.457031 48.199219 96.445312 48.222656 96.152344 48.222656 C 95.59375 48.222656 94.90625 48.664062 94.648438 49.191406 C 94.410156 49.644531 94.398438 49.804688 94.398438 51.851562 L 94.398438 54.035156 L 93.429688 54.035156 L 93.429688 47.46875 L 94.292969 47.46875 L 94.292969 48.460938 L 94.570312 48.113281 C 94.882812 47.757812 95.347656 47.480469 95.851562 47.351562 C 96.324219 47.242188 96.390625 47.285156 96.421875 47.769531 Z M 100.804688 47.414062 C 101.4375 47.585938 101.988281 47.929688 102.441406 48.4375 L 102.675781 48.707031 L 102.6875 48.082031 L 102.6875 47.46875 L 103.546875 47.46875 L 103.546875 54.035156 L 102.6875 54.035156 L 102.6875 52.820312 L 102.277344 53.257812 C 101.652344 53.925781 100.988281 54.195312 99.941406 54.183594 C 99.230469 54.183594 98.972656 54.132812 98.46875 53.894531 C 96.015625 52.710938 95.972656 48.921875 98.382812 47.683594 C 99.230469 47.253906 99.878906 47.179688 100.804688 47.414062 Z M 110.449219 47.585938 C 111.964844 48.242188 112.75 50.246094 112.191406 51.988281 C 111.957031 52.742188 111.160156 53.605469 110.414062 53.9375 C 109.566406 54.316406 108.433594 54.292969 107.617188 53.894531 C 107.273438 53.722656 106.851562 53.410156 106.671875 53.195312 L 106.347656 52.796875 L 106.347656 56.511719 L 105.378906 56.511719 L 105.378906 47.46875 L 106.347656 47.46875 L 106.347656 48.707031 L 106.628906 48.351562 C 107.421875 47.339844 109.09375 47.007812 110.449219 47.585938 Z M 147.800781 47.585938 C 148.089844 47.714844 148.5 48.007812 148.703125 48.234375 L 149.078125 48.652344 L 149.078125 47.46875 L 150.046875 47.46875 L 150.046875 54.035156 L 149.078125 54.035156 L 149.078125 52.851562 L 148.691406 53.269531 C 148.101562 53.9375 147.464844 54.195312 146.441406 54.183594 C 145.367188 54.183594 144.644531 53.894531 144.011719 53.207031 C 143.429688 52.582031 143.136719 51.894531 143.074219 51.011719 C 142.890625 48.363281 145.386719 46.554688 147.800781 47.585938 Z M 158.777344 47.480469 C 159.015625 47.554688 159.457031 47.835938 159.746094 48.09375 L 160.273438 48.566406 L 160.273438 47.46875 L 161.242188 47.46875 L 161.242188 54.035156 L 160.273438 54.035156 L 160.273438 52.949219 L 159.875 53.347656 C 159.261719 53.960938 158.648438 54.195312 157.636719 54.195312 C 156.183594 54.195312 155.203125 53.5625 154.582031 52.203125 C 154.191406 51.355469 154.191406 50.136719 154.582031 49.289062 C 155.34375 47.664062 156.992188 46.953125 158.777344 47.480469 Z M 167.207031 47.414062 C 167.992188 47.621094 168.378906 47.898438 168.714844 48.46875 C 169.113281 49.160156 169.207031 49.878906 169.207031 52.042969 L 169.207031 54.035156 L 168.25 54.035156 L 168.21875 51.796875 C 168.1875 49.652344 168.175781 49.546875 167.917969 49.09375 C 167.5625 48.46875 167.085938 48.222656 166.214844 48.222656 C 165.410156 48.222656 164.933594 48.40625 164.546875 48.855469 C 164.117188 49.375 164.042969 49.824219 164.042969 52.011719 L 164.042969 54.035156 L 163.074219 54.035156 L 163.074219 47.46875 L 164.042969 47.46875 L 164.042969 48.460938 L 164.320312 48.113281 C 164.957031 47.371094 166.023438 47.113281 167.207031 47.414062 Z M 175.558594 47.640625 C 176.289062 47.976562 176.785156 48.4375 177.128906 49.105469 C 177.269531 49.382812 177.390625 49.644531 177.390625 49.675781 C 177.390625 49.707031 177.171875 49.730469 176.90625 49.730469 C 176.496094 49.730469 176.410156 49.6875 176.269531 49.429688 C 175.871094 48.675781 175.042969 48.191406 174.117188 48.199219 C 173.007812 48.199219 172.253906 48.640625 171.835938 49.558594 C 171.09375 51.148438 171.921875 52.9375 173.558594 53.28125 C 174.613281 53.496094 175.804688 53 176.257812 52.160156 C 176.453125 51.804688 176.507812 51.773438 176.9375 51.773438 C 177.367188 51.773438 177.398438 51.796875 177.335938 52.011719 C 177.121094 52.722656 176.3125 53.582031 175.546875 53.917969 C 173.644531 54.765625 171.339844 53.753906 170.769531 51.839844 C 170.039062 49.394531 171.878906 47.101562 174.375 47.316406 C 174.699219 47.351562 175.234375 47.492188 175.558594 47.640625 Z M 182.46875 47.371094 C 183.246094 47.535156 183.707031 47.792969 184.246094 48.351562 C 184.792969 48.910156 185.097656 49.566406 185.191406 50.398438 L 185.269531 51.019531 L 179.195312 51.019531 L 179.273438 51.367188 C 179.542969 52.59375 180.53125 53.390625 181.800781 53.390625 C 182.566406 53.390625 183.160156 53.109375 183.652344 52.539062 C 183.976562 52.152344 184.085938 52.097656 184.472656 52.097656 C 184.71875 52.097656 184.921875 52.117188 184.921875 52.152344 C 184.921875 52.335938 184.558594 52.851562 184.148438 53.25 C 183.4375 53.9375 182.78125 54.195312 181.75 54.183594 C 180.617188 54.183594 179.941406 53.894531 179.230469 53.109375 C 177.464844 51.183594 178.359375 48.09375 180.867188 47.414062 C 181.566406 47.230469 181.757812 47.222656 182.46875 47.371094 Z M 204.320312 47.535156 C 205.429688 47.910156 206.320312 49.09375 206.429688 50.332031 L 206.484375 51.019531 L 200.53125 51.019531 L 200.53125 51.257812 C 200.542969 51.625 200.886719 52.324219 201.242188 52.679688 C 202.265625 53.699219 204.082031 53.613281 204.964844 52.515625 C 205.265625 52.140625 205.351562 52.097656 205.773438 52.097656 L 206.246094 52.097656 L 206.074219 52.429688 C 205.351562 53.808594 203.675781 54.519531 202.113281 54.097656 C 201.125 53.832031 200.457031 53.28125 199.992188 52.378906 C 199.648438 51.699219 199.617188 51.546875 199.617188 50.761719 C 199.628906 49.75 199.851562 49.148438 200.476562 48.449219 C 201.457031 47.359375 202.855469 47.027344 204.320312 47.535156 Z M 212.402344 47.554688 C 212.652344 47.664062 213.007812 47.929688 213.199219 48.148438 C 213.769531 48.804688 213.878906 49.375 213.878906 51.851562 L 213.878906 54.035156 L 212.910156 54.035156 L 212.910156 51.796875 C 212.910156 49.6875 212.886719 49.546875 212.664062 49.136719 C 212.273438 48.460938 211.832031 48.222656 210.929688 48.222656 C 209.9375 48.222656 209.410156 48.503906 209.066406 49.191406 C 208.832031 49.644531 208.820312 49.804688 208.820312 51.851562 L 208.820312 54.035156 L 207.851562 54.035156 L 207.851562 47.46875 L 208.710938 47.46875 L 208.710938 48.449219 L 209.066406 48.070312 C 209.820312 47.273438 211.273438 47.050781 212.402344 47.554688 Z M 223.726562 47.621094 C 224.878906 48.148438 225.578125 49.117188 225.6875 50.363281 L 225.75 51.019531 L 219.765625 51.019531 L 219.832031 51.472656 C 220.015625 52.820312 221.714844 53.742188 223.144531 53.269531 C 223.628906 53.097656 224.199219 52.679688 224.339844 52.355469 C 224.449219 52.128906 224.535156 52.097656 224.988281 52.097656 L 225.515625 52.097656 L 225.332031 52.441406 C 225.234375 52.636719 224.910156 53.023438 224.621094 53.3125 C 222.964844 54.875 220.1875 54.378906 219.183594 52.335938 C 218.925781 51.804688 218.882812 51.582031 218.882812 50.804688 C 218.882812 50.042969 218.925781 49.792969 219.164062 49.296875 C 219.992188 47.542969 221.984375 46.824219 223.726562 47.621094 Z M 230.023438 47.726562 L 230.023438 48.191406 L 229.570312 48.253906 C 228.777344 48.363281 228.257812 48.910156 228.085938 49.824219 C 228.03125 50.136719 227.980469 51.226562 227.980469 52.214844 L 227.980469 54.035156 L 227.117188 54.035156 L 227.117188 47.46875 L 227.980469 47.46875 L 227.980469 48.371094 L 228.398438 47.964844 C 228.765625 47.609375 229.433594 47.308594 229.949219 47.265625 C 229.992188 47.253906 230.023438 47.46875 230.023438 47.726562 Z M 234.007812 47.523438 C 234.546875 47.800781 234.976562 48.460938 234.976562 48.988281 C 234.976562 49.148438 234.898438 49.191406 234.554688 49.191406 C 234.167969 49.191406 234.125 49.160156 234.0625 48.867188 C 233.886719 48.09375 232.769531 47.835938 232.167969 48.425781 C 231.832031 48.761719 231.789062 48.996094 231.960938 49.449219 C 232.082031 49.773438 232.457031 49.976562 233.445312 50.277344 C 234.675781 50.65625 235.191406 51.226562 235.191406 52.195312 C 235.191406 53.097656 234.632812 53.820312 233.726562 54.109375 C 232.402344 54.519531 230.972656 53.753906 230.808594 52.527344 L 230.746094 52.097656 L 231.199219 52.097656 C 231.605469 52.097656 231.648438 52.117188 231.714844 52.429688 C 231.746094 52.601562 231.917969 52.894531 232.089844 53.078125 C 232.371094 53.347656 232.488281 53.390625 233.007812 53.390625 C 233.511719 53.390625 233.640625 53.347656 233.910156 53.078125 C 234.15625 52.820312 234.222656 52.667969 234.222656 52.28125 C 234.222656 51.699219 233.898438 51.332031 233.167969 51.074219 C 232.886719 50.96875 232.445312 50.816406 232.175781 50.71875 C 230.488281 50.128906 230.5625 47.964844 232.296875 47.414062 C 232.8125 47.242188 233.566406 47.296875 234.007812 47.523438 Z M 114.851562 50.050781 C 115.410156 51.472656 115.894531 52.601562 115.925781 52.558594 C 115.96875 52.507812 116.453125 51.34375 117.003906 49.964844 L 117.992188 47.46875 L 118.46875 47.46875 C 118.726562 47.46875 118.941406 47.511719 118.941406 47.566406 C 118.941406 47.621094 118.121094 49.644531 117.121094 52.066406 L 115.304688 56.457031 L 114.808594 56.488281 C 114.539062 56.511719 114.3125 56.488281 114.3125 56.457031 C 114.3125 56.425781 114.550781 55.832031 114.851562 55.152344 L 115.390625 53.917969 L 114.195312 50.882812 C 113.539062 49.210938 112.96875 47.757812 112.945312 47.652344 C 112.890625 47.5 112.96875 47.46875 113.367188 47.46875 L 113.851562 47.46875 Z M 114.851562 50.050781 "/>
<path style=" stroke:none;fill-rule:nonzero;fill:rgb(0%,0%,0%);fill-opacity:1;" d="M 126.078125 45.800781 C 125.691406 45.960938 125.398438 46.445312 125.398438 46.910156 C 125.398438 47.210938 125.863281 48.050781 126.183594 48.308594 C 126.324219 48.425781 126.421875 48.414062 126.808594 48.222656 C 127.507812 47.855469 127.765625 47.523438 127.765625 46.960938 C 127.765625 46.339844 127.457031 45.898438 126.929688 45.746094 C 126.445312 45.617188 126.496094 45.617188 126.078125 45.800781 Z M 126.078125 45.800781 "/>
<path style=" stroke:none;fill-rule:nonzero;fill:rgb(0%,0%,0%);fill-opacity:1;" d="M 125.484375 49.933594 C 124.753906 50.398438 124.484375 50.835938 124.484375 51.582031 C 124.484375 52.257812 124.6875 52.625 125.292969 53.035156 C 125.710938 53.324219 126.539062 53.367188 126.992188 53.128906 C 127.367188 52.9375 127.800781 52.464844 128.035156 52 L 128.21875 51.632812 L 127.21875 50.632812 C 126.660156 50.074219 126.164062 49.621094 126.097656 49.621094 C 126.035156 49.621094 125.753906 49.761719 125.484375 49.933594 Z M 125.484375 49.933594 "/>
<path style=" stroke:none;fill-rule:nonzero;fill:rgb(0%,0%,0%);fill-opacity:1;" d="M 137.347656 47.414062 L 137.347656 48.867188 L 138.378906 48.867188 C 139.554688 48.867188 139.996094 48.71875 140.285156 48.234375 C 140.535156 47.800781 140.523438 47.070312 140.253906 46.628906 C 139.941406 46.125 139.46875 45.960938 138.316406 45.960938 L 137.347656 45.960938 Z M 137.347656 47.414062 "/>
<path style=" stroke:none;fill-rule:nonzero;fill:rgb(0%,0%,0%);fill-opacity:1;" d="M 137.347656 51.453125 L 137.347656 53.066406 L 138.628906 53.066406 C 139.769531 53.066406 139.929688 53.042969 140.265625 52.820312 C 141.296875 52.128906 141.199219 50.535156 140.101562 50.007812 C 139.832031 49.878906 139.425781 49.835938 138.542969 49.835938 L 137.347656 49.835938 Z M 137.347656 51.453125 "/>
<path style=" stroke:none;fill-rule:nonzero;fill:rgb(0%,0%,0%);fill-opacity:1;" d="M 87.738281 48.265625 C 87.003906 48.535156 86.359375 49.234375 86.175781 49.964844 L 86.109375 50.265625 L 91.179688 50.265625 L 91.117188 50.019531 C 90.867188 49.203125 90.308594 48.566406 89.597656 48.265625 C 89.167969 48.082031 88.230469 48.082031 87.738281 48.265625 Z M 87.738281 48.265625 "/>
<path style=" stroke:none;fill-rule:nonzero;fill:rgb(0%,0%,0%);fill-opacity:1;" d="M 99.566406 48.210938 C 98.394531 48.449219 97.519531 49.535156 97.519531 50.75 C 97.519531 51.710938 98.089844 52.644531 98.964844 53.085938 C 99.578125 53.410156 100.632812 53.410156 101.246094 53.085938 C 102.859375 52.257812 103.140625 49.976562 101.785156 48.792969 C 101.234375 48.308594 100.308594 48.070312 99.566406 48.210938 Z M 99.566406 48.210938 "/>
<path style=" stroke:none;fill-rule:nonzero;fill:rgb(0%,0%,0%);fill-opacity:1;" d="M 108.371094 48.222656 C 106.722656 48.535156 105.851562 50.40625 106.628906 51.980469 C 107.542969 53.796875 110.234375 53.789062 111.167969 51.96875 C 111.480469 51.367188 111.523438 50.332031 111.277344 49.730469 C 110.8125 48.621094 109.585938 47.984375 108.371094 48.222656 Z M 108.371094 48.222656 "/>
<path style=" stroke:none;fill-rule:nonzero;fill:rgb(0%,0%,0%);fill-opacity:1;" d="M 145.992188 48.234375 C 144.398438 48.546875 143.558594 50.386719 144.277344 51.957031 C 144.925781 53.335938 146.820312 53.777344 148.089844 52.851562 C 149.078125 52.128906 149.390625 50.546875 148.757812 49.4375 C 148.371094 48.75 147.820312 48.371094 147.046875 48.222656 C 146.722656 48.167969 146.464844 48.113281 146.453125 48.125 C 146.453125 48.136719 146.238281 48.179688 145.992188 48.234375 Z M 145.992188 48.234375 "/>
<path style=" stroke:none;fill-rule:nonzero;fill:rgb(0%,0%,0%);fill-opacity:1;" d="M 157.261719 48.222656 C 156.691406 48.328125 156.25 48.597656 155.816406 49.105469 C 154.730469 50.375 155.160156 52.386719 156.679688 53.121094 C 157.28125 53.410156 158.359375 53.390625 158.949219 53.085938 C 160.1875 52.441406 160.714844 50.792969 160.070312 49.523438 C 159.574219 48.566406 158.367188 47.996094 157.261719 48.222656 Z M 157.261719 48.222656 "/>
<path style=" stroke:none;fill-rule:nonzero;fill:rgb(0%,0%,0%);fill-opacity:1;" d="M 180.726562 48.339844 C 179.960938 48.683594 179.550781 49.160156 179.316406 49.964844 L 179.230469 50.265625 L 184.277344 50.265625 L 184.214844 49.964844 C 184.039062 49.253906 183.425781 48.566406 182.707031 48.265625 C 182.191406 48.050781 181.296875 48.082031 180.726562 48.339844 Z M 180.726562 48.339844 "/>
<path style=" stroke:none;fill-rule:nonzero;fill:rgb(0%,0%,0%);fill-opacity:1;" d="M 202.101562 48.277344 C 201.402344 48.523438 200.542969 49.546875 200.53125 50.128906 C 200.53125 50.234375 201.101562 50.265625 203.007812 50.265625 L 205.484375 50.265625 L 205.484375 50.007812 C 205.484375 49.867188 205.320312 49.515625 205.136719 49.234375 C 204.492188 48.277344 203.222656 47.878906 202.101562 48.277344 Z M 202.101562 48.277344 "/>
<path style=" stroke:none;fill-rule:nonzero;fill:rgb(0%,0%,0%);fill-opacity:1;" d="M 221.113281 48.394531 C 220.5 48.695312 219.949219 49.363281 219.839844 49.945312 L 219.777344 50.265625 L 224.78125 50.265625 L 224.707031 49.914062 C 224.597656 49.351562 224.105469 48.738281 223.46875 48.414062 C 222.695312 48.007812 221.898438 48.007812 221.113281 48.394531 Z M 221.113281 48.394531 "/>
</g>
</svg>
