<svg id="svg" version="1.1" xmlns="http://www.w3.org/2000/svg" xmlns:xlink="http://www.w3.org/1999/xlink" width="400" height="100" viewBox="0, 0, 400,100"><g id="svgg"><path id="path0" d="M271.833 8.013 C 270.102 8.157,269.820 8.198,269.333 8.373 C 269.196 8.423,268.296 8.629,267.333 8.832 C 264.388 9.452,260.423 11.116,258.834 12.398 C 258.480 12.683,257.765 13.217,257.244 13.583 C 255.153 15.056,251.990 18.707,250.716 21.118 C 250.388 21.741,250.062 22.287,249.992 22.333 C 249.000 22.990,247.229 29.723,247.056 33.500 C 246.837 38.284,248.367 45.454,250.022 47.399 C 250.108 47.500,250.682 48.436,251.298 49.477 C 252.829 52.070,257.283 56.769,258.279 56.844 C 258.355 56.849,258.942 57.223,259.583 57.674 C 269.372 64.550,285.970 62.520,294.012 53.462 C 294.766 52.612,295.596 51.676,295.855 51.383 C 296.911 50.188,298.612 47.026,299.423 44.750 C 299.684 44.017,299.946 43.379,300.005 43.333 C 300.130 43.237,300.500 41.809,300.500 41.426 C 300.500 41.195,299.718 41.167,293.424 41.167 L 286.349 41.167 286.010 41.932 C 282.797 49.196,274.169 51.952,267.332 47.898 C 257.850 42.277,258.524 25.714,268.417 21.236 C 268.783 21.070,269.121 20.885,269.167 20.825 C 269.332 20.609,270.944 20.179,272.316 19.985 C 277.924 19.194,283.125 22.182,285.886 27.782 L 286.405 28.833 293.452 28.833 L 300.500 28.833 300.500 28.358 C 300.500 27.871,300.297 27.132,299.920 26.250 C 299.803 25.975,299.580 25.358,299.425 24.879 C 298.916 23.309,296.479 18.881,295.937 18.542 C 295.827 18.473,295.279 17.854,294.718 17.167 C 293.471 15.637,292.645 14.855,290.924 13.572 C 290.195 13.028,289.456 12.444,289.282 12.275 C 288.193 11.211,282.062 8.836,279.678 8.554 C 279.213 8.499,278.833 8.397,278.833 8.327 C 278.833 8.204,277.436 8.065,274.875 7.934 C 274.165 7.898,272.796 7.934,271.833 8.013 M379.417 8.978 C 375.146 11.020,376.497 17.577,381.268 17.960 C 385.021 18.261,387.611 14.296,385.902 10.866 C 384.805 8.666,381.863 7.809,379.417 8.978 M13.500 50.584 L 13.500 92.167 55.042 92.125 L 96.583 92.083 96.625 50.542 L 96.667 9.000 55.084 9.000 L 13.500 9.000 13.500 50.584 M107.833 34.917 L 107.833 60.833 114.667 60.833 L 121.500 60.833 121.500 51.000 L 121.500 41.167 128.667 41.167 L 135.833 41.167 135.833 35.250 L 135.833 29.333 128.667 29.333 L 121.500 29.333 121.500 25.168 L 121.500 21.003 128.875 20.960 L 136.250 20.917 136.294 14.958 L 136.338 9.000 122.085 9.000 L 107.833 9.000 107.833 34.917 M140.000 9.214 C 140.000 9.332,140.609 10.663,141.353 12.172 C 142.097 13.682,143.150 15.920,143.693 17.146 C 144.236 18.372,145.134 20.281,145.687 21.388 C 146.240 22.494,147.143 24.416,147.692 25.658 C 148.241 26.900,149.207 28.967,149.839 30.250 C 151.310 33.242,153.833 38.763,153.833 38.991 C 153.833 39.088,153.898 39.167,153.977 39.167 C 154.056 39.167,154.412 39.785,154.768 40.542 L 155.417 41.917 155.462 51.375 L 155.508 60.833 162.171 60.833 L 168.833 60.833 168.833 51.514 C 168.833 42.796,168.853 42.148,169.144 41.472 C 169.314 41.075,170.056 39.512,170.792 38.000 C 171.528 36.487,172.278 34.912,172.460 34.500 C 172.641 34.087,173.249 32.729,173.811 31.482 C 174.373 30.234,174.833 29.128,174.833 29.023 C 174.833 28.919,174.898 28.833,174.978 28.833 C 175.057 28.833,175.368 28.290,175.669 27.625 C 175.970 26.960,176.625 25.517,177.124 24.417 C 177.624 23.317,178.252 21.895,178.521 21.257 C 178.790 20.619,179.076 20.056,179.157 20.006 C 179.238 19.956,179.583 19.278,179.924 18.499 C 180.264 17.720,181.095 15.868,181.771 14.383 C 182.447 12.899,183.000 11.610,183.000 11.520 C 183.000 11.431,183.097 11.258,183.215 11.137 C 183.520 10.825,184.167 9.537,184.167 9.243 C 184.167 9.029,183.223 9.002,176.894 9.040 L 169.622 9.083 169.153 10.333 C 168.895 11.021,168.234 12.835,167.684 14.364 C 167.133 15.894,166.604 17.282,166.508 17.448 C 166.412 17.614,165.726 19.438,164.983 21.500 C 162.991 27.032,162.621 28.027,162.331 28.627 L 162.068 29.171 161.685 28.127 C 161.475 27.553,160.663 25.283,159.882 23.083 C 159.100 20.883,158.404 19.046,158.335 19.000 C 158.266 18.954,157.853 17.904,157.418 16.667 C 155.988 12.597,155.038 9.924,154.855 9.458 L 154.675 9.000 147.337 9.000 C 141.476 9.000,140.000 9.043,140.000 9.214 M186.373 14.958 L 186.417 20.917 195.125 20.960 C 199.915 20.984,203.833 21.045,203.833 21.097 C 203.833 21.149,203.541 21.692,203.184 22.304 C 202.827 22.916,202.220 24.017,201.836 24.750 C 201.039 26.269,200.674 26.903,199.916 28.083 C 199.387 28.907,198.036 31.331,196.666 33.917 C 196.277 34.650,195.907 35.287,195.844 35.333 C 195.780 35.379,195.007 36.729,194.125 38.333 C 192.298 41.659,191.868 42.416,191.142 43.583 C 190.857 44.042,190.303 45.017,189.911 45.750 C 189.519 46.483,188.854 47.683,188.433 48.417 C 188.013 49.150,187.669 49.844,187.668 49.958 C 187.667 50.073,187.599 50.167,187.516 50.167 C 187.433 50.167,187.133 50.578,186.849 51.081 L 186.333 51.995 186.333 56.414 L 186.333 60.833 202.833 60.833 L 219.333 60.833 219.333 54.833 L 219.333 48.833 211.250 48.833 C 206.804 48.833,203.167 48.790,203.167 48.738 C 203.167 48.571,204.066 47.086,204.202 47.028 C 204.274 46.997,204.333 46.909,204.333 46.832 C 204.333 46.755,204.778 45.908,205.321 44.951 C 205.865 43.994,206.735 42.394,207.256 41.397 C 207.776 40.399,208.271 39.540,208.356 39.487 C 208.440 39.434,208.906 38.647,209.390 37.737 C 209.875 36.828,210.672 35.333,211.161 34.417 C 211.650 33.500,212.363 32.262,212.745 31.667 C 213.127 31.071,213.877 29.758,214.412 28.750 C 214.947 27.742,215.624 26.467,215.916 25.917 C 216.208 25.367,216.710 24.504,217.032 24.000 C 217.353 23.496,218.003 22.364,218.475 21.485 L 219.333 19.887 219.333 14.443 L 219.333 9.000 202.831 9.000 L 186.329 9.000 186.373 14.958 M225.667 34.917 L 225.667 60.833 232.417 60.833 L 239.167 60.833 239.167 34.917 L 239.167 9.000 232.417 9.000 L 225.667 9.000 225.667 34.917 M319.693 9.875 C 319.511 10.356,318.900 11.950,318.334 13.417 C 317.769 14.883,317.191 16.421,317.050 16.833 C 316.909 17.246,316.730 17.624,316.651 17.674 C 316.527 17.752,314.206 23.657,313.836 24.833 C 313.659 25.398,312.751 27.632,312.448 28.250 C 312.313 28.525,311.812 29.762,311.335 31.000 C 310.858 32.237,310.131 34.111,309.719 35.163 C 309.307 36.215,308.856 37.415,308.715 37.830 C 308.575 38.244,308.409 38.621,308.346 38.667 C 308.283 38.712,307.986 39.387,307.686 40.167 C 307.386 40.946,306.778 42.521,306.334 43.667 C 305.891 44.813,305.248 46.500,304.905 47.417 C 304.562 48.333,304.219 49.166,304.141 49.267 C 303.980 49.477,301.555 55.701,300.804 57.833 C 300.529 58.612,300.161 59.498,299.986 59.801 C 299.352 60.896,298.924 60.833,306.995 60.833 L 314.324 60.833 314.680 59.625 C 314.876 58.960,315.318 57.517,315.663 56.417 C 316.008 55.317,316.344 54.173,316.409 53.875 L 316.526 53.333 325.495 53.333 L 334.464 53.333 334.569 53.792 C 334.626 54.044,335.137 55.731,335.703 57.542 L 336.732 60.833 344.116 60.833 C 351.048 60.833,351.500 60.815,351.500 60.541 C 351.500 60.379,351.238 59.579,350.917 58.762 C 350.596 57.945,350.333 57.182,350.333 57.067 C 350.333 56.951,350.238 56.758,350.121 56.637 C 349.907 56.414,349.789 56.118,348.085 51.500 C 346.427 47.008,346.139 46.260,345.900 45.833 C 345.772 45.604,345.286 44.367,344.820 43.083 C 343.320 38.949,342.317 36.263,342.072 35.725 C 341.941 35.436,341.833 35.117,341.833 35.016 C 341.833 34.916,341.776 34.833,341.706 34.833 C 341.636 34.833,341.440 34.440,341.272 33.958 C 340.259 31.065,337.905 24.776,337.545 24.003 C 337.147 23.146,336.006 20.133,334.484 15.917 C 334.120 14.908,333.643 13.708,333.424 13.250 C 333.205 12.792,332.740 11.648,332.391 10.708 L 331.756 9.000 325.890 9.000 L 320.024 9.000 319.693 9.875 M357.667 34.917 L 357.667 60.833 372.083 60.833 L 386.500 60.833 386.500 54.833 L 386.500 48.833 378.917 48.833 L 371.333 48.833 371.333 28.917 L 371.333 9.000 364.500 9.000 L 357.667 9.000 357.667 34.917 M382.980 9.702 C 383.786 9.948,384.768 10.901,385.094 11.755 C 386.333 15.000,382.732 18.279,379.928 16.459 C 377.443 14.845,377.214 11.919,379.440 10.221 C 380.481 9.427,381.559 9.269,382.980 9.702 M379.500 13.083 L 379.500 15.833 380.083 15.833 L 380.667 15.833 380.667 14.833 L 380.667 13.833 381.407 13.833 C 382.296 13.833,382.667 14.237,382.667 15.204 C 382.667 15.830,382.670 15.833,383.355 15.833 L 384.043 15.833 383.926 14.792 C 383.861 14.219,383.707 13.637,383.584 13.500 C 383.395 13.289,383.410 13.189,383.680 12.857 C 384.810 11.467,383.601 10.333,380.989 10.333 L 379.500 10.333 379.500 13.083 M382.467 11.533 C 383.044 12.111,382.454 12.833,381.405 12.833 L 380.667 12.833 380.667 12.083 L 380.667 11.333 381.467 11.333 C 381.907 11.333,382.357 11.423,382.467 11.533 M56.059 13.750 C 58.595 14.193,60.389 15.155,60.990 16.395 C 62.119 18.727,60.632 19.279,55.388 18.474 C 52.823 18.080,52.840 18.035,53.429 23.940 L 53.900 28.657 53.507 29.076 C 50.650 32.117,46.500 23.010,48.332 17.721 C 49.545 14.219,51.876 13.021,56.059 13.750 M327.495 32.250 C 328.692 36.150,329.046 37.219,329.175 37.333 C 329.227 37.379,329.596 38.504,329.994 39.833 C 330.393 41.162,330.753 42.344,330.794 42.458 C 330.853 42.622,329.707 42.667,325.417 42.667 C 320.588 42.667,319.976 42.637,320.062 42.411 C 320.116 42.271,320.281 41.690,320.429 41.120 C 320.576 40.550,320.750 40.046,320.815 40.000 C 320.880 39.954,321.371 38.454,321.905 36.667 C 322.440 34.879,323.086 32.742,323.341 31.917 C 323.596 31.092,324.005 29.704,324.249 28.833 C 324.493 27.962,324.792 27.025,324.912 26.750 C 325.032 26.475,325.185 26.100,325.252 25.917 C 325.387 25.543,325.756 26.585,327.495 32.250 M46.000 27.820 C 49.197 28.243,50.667 29.023,50.667 30.294 C 50.667 32.258,48.956 32.530,42.122 31.650 C 38.791 31.222,40.032 31.175,26.113 32.258 C 19.478 32.774,19.003 32.694,19.001 31.054 C 18.998 29.460,20.906 28.755,26.845 28.156 C 29.543 27.884,31.825 27.632,31.917 27.595 C 32.286 27.448,44.681 27.645,46.000 27.820 M76.341 27.833 C 81.697 28.382,87.929 29.323,89.114 29.761 C 90.619 30.318,91.449 31.951,90.741 32.963 C 90.393 33.459,90.521 33.466,82.778 32.485 C 75.268 31.534,75.068 31.526,66.553 31.849 C 60.588 32.076,60.643 32.083,60.077 30.988 C 58.868 28.649,61.866 27.555,69.591 27.517 C 72.014 27.505,74.100 27.603,76.341 27.833 M41.996 33.828 C 47.609 34.618,47.544 34.594,48.820 36.315 C 51.400 39.796,51.566 43.818,49.113 43.409 C 47.313 43.109,46.575 42.450,45.654 40.320 C 44.981 38.764,44.561 38.149,43.917 37.776 C 43.687 37.643,41.561 37.557,37.068 37.500 L 30.553 37.417 29.101 36.667 C 22.822 33.422,29.175 32.023,41.996 33.828 M79.500 33.910 C 85.040 34.842,87.888 36.451,85.958 37.559 C 83.594 38.916,80.441 38.933,71.206 37.636 C 66.935 37.036,66.641 37.065,65.521 38.185 C 63.954 39.752,62.333 44.233,62.333 46.997 C 62.333 48.226,60.972 49.146,60.296 48.375 C 59.328 47.271,59.185 46.246,59.355 41.631 C 59.594 35.132,60.285 34.423,66.864 33.923 C 68.726 33.781,70.625 33.636,71.083 33.601 C 72.854 33.466,77.975 33.654,79.500 33.910 M51.898 44.146 C 52.340 44.634,52.390 45.460,52.098 47.449 C 51.702 50.151,51.530 50.525,49.523 53.039 C 46.527 56.794,46.023 57.683,45.004 61.016 C 43.923 64.549,43.245 65.813,40.989 68.500 C 39.469 70.311,38.483 71.772,37.164 74.167 C 36.583 75.221,35.705 76.749,35.211 77.563 C 34.718 78.377,33.860 79.952,33.306 81.063 C 30.893 85.895,29.534 87.604,28.223 87.456 C 26.091 87.216,26.161 85.885,28.752 77.337 C 30.372 71.992,31.218 70.614,35.005 67.154 C 37.422 64.945,38.242 63.487,39.922 58.418 C 42.044 52.017,42.749 50.755,46.062 47.420 C 49.265 44.195,51.041 43.199,51.898 44.146 M64.806 52.860 C 67.097 53.969,72.495 60.627,73.272 63.303 C 73.807 65.140,73.092 66.667,71.699 66.667 C 71.019 66.667,70.231 65.921,66.160 61.420 C 65.744 60.960,64.501 59.608,63.398 58.417 C 60.952 55.776,60.833 55.605,60.833 54.726 C 60.833 52.970,62.964 51.969,64.806 52.860 M59.040 56.544 C 61.115 57.715,64.370 60.933,65.272 62.706 C 65.517 63.189,66.374 65.103,67.176 66.961 C 68.722 70.542,70.522 73.501,72.965 76.474 C 77.847 82.416,79.227 85.241,77.582 85.928 C 73.567 87.605,71.567 85.494,65.560 73.239 C 64.180 70.423,63.017 68.284,62.466 67.548 C 61.981 66.900,60.769 65.302,59.774 63.998 C 55.924 58.955,55.490 54.540,59.040 56.544 M52.680 56.667 C 53.507 56.667,55.047 59.014,55.036 60.257 C 55.011 62.963,49.224 70.201,46.331 71.142 C 44.813 71.637,43.498 70.547,43.502 68.797 C 43.505 67.503,44.084 66.577,46.838 63.463 C 47.706 62.482,48.384 61.483,49.038 60.226 C 50.483 57.444,51.511 56.299,52.305 56.586 C 52.427 56.631,52.596 56.667,52.680 56.667 M75.250 70.647 C 76.713 71.349,76.860 71.545,78.682 75.223 C 82.858 83.652,78.165 82.162,72.893 73.384 C 71.390 70.881,71.481 70.167,73.304 70.167 C 74.004 70.167,74.510 70.292,75.250 70.647 M42.369 71.958 C 43.138 72.840,43.044 77.108,42.229 78.291 C 39.449 82.327,33.783 85.306,34.905 82.141 C 37.255 75.516,41.008 70.397,42.369 71.958 M203.711 72.453 C 203.964 72.491,204.339 72.490,204.544 72.451 C 204.749 72.411,204.542 72.380,204.083 72.381 C 203.625 72.382,203.457 72.415,203.711 72.453 M313.042 72.455 C 313.385 72.491,313.948 72.491,314.292 72.455 C 314.635 72.419,314.354 72.389,313.667 72.389 C 312.979 72.389,312.698 72.419,313.042 72.455 M115.067 72.731 C 115.017 72.862,115.001 73.219,115.030 73.526 L 115.083 74.083 116.833 74.092 L 118.583 74.100 116.875 74.044 L 115.167 73.989 115.167 73.328 L 115.167 72.667 119.500 72.667 L 123.833 72.667 123.833 73.328 L 123.833 73.989 122.042 74.045 L 120.250 74.102 122.083 74.093 L 123.917 74.083 123.917 73.333 L 123.917 72.583 119.538 72.539 C 115.877 72.502,115.143 72.533,115.067 72.731 M125.667 72.566 C 125.667 72.602,125.960 72.660,126.319 72.694 C 126.678 72.728,126.936 72.699,126.893 72.628 C 126.814 72.500,125.667 72.442,125.667 72.566 M221.049 72.624 C 221.671 72.656,222.646 72.656,223.215 72.623 C 223.784 72.591,223.275 72.564,222.083 72.565 C 220.892 72.565,220.426 72.592,221.049 72.624 M245.109 72.625 C 245.067 72.694,245.355 72.750,245.750 72.750 C 246.145 72.750,246.433 72.694,246.391 72.625 C 246.348 72.556,246.060 72.500,245.750 72.500 C 245.440 72.500,245.152 72.556,245.109 72.625 M349.494 72.618 L 350.156 72.685 350.203 74.634 L 350.250 76.583 351.392 76.633 L 352.535 76.683 352.467 77.258 C 352.429 77.588,352.463 77.771,352.547 77.687 C 353.104 77.129,352.592 76.584,351.464 76.534 L 350.344 76.485 350.297 74.534 L 350.250 72.583 349.540 72.567 L 348.831 72.551 349.494 72.618 M206.500 73.417 C 206.811 73.737,207.103 74.000,207.149 74.000 C 207.195 74.000,206.978 73.737,206.667 73.417 C 206.356 73.096,206.064 72.833,206.018 72.833 C 205.972 72.833,206.189 73.096,206.500 73.417 M310.125 73.178 C 309.781 73.359,309.500 73.545,309.500 73.591 C 309.500 73.665,310.816 73.050,310.986 72.896 C 311.178 72.723,310.677 72.886,310.125 73.178 M222.208 74.121 C 222.552 74.157,223.115 74.157,223.458 74.121 C 223.802 74.085,223.521 74.056,222.833 74.056 C 222.146 74.056,221.865 74.085,222.208 74.121 M202.209 75.583 C 202.211 75.950,202.245 76.080,202.285 75.873 C 202.324 75.666,202.323 75.366,202.281 75.206 C 202.239 75.047,202.207 75.217,202.209 75.583 M309.491 75.625 L 308.917 76.250 309.542 75.676 C 309.885 75.360,310.167 75.078,310.167 75.051 C 310.167 74.923,310.026 75.043,309.491 75.625 M200.705 75.667 C 200.705 75.987,200.740 76.119,200.782 75.958 C 200.823 75.798,200.823 75.535,200.782 75.375 C 200.740 75.215,200.705 75.346,200.705 75.667 M226.545 76.500 C 226.545 76.912,226.578 77.081,226.618 76.875 C 226.657 76.669,226.657 76.331,226.618 76.125 C 226.578 75.919,226.545 76.087,226.545 76.500 M206.000 76.237 C 206.000 76.368,205.804 76.724,205.564 77.029 L 205.129 77.583 205.648 77.039 C 206.099 76.566,206.336 76.000,206.083 76.000 C 206.037 76.000,206.000 76.107,206.000 76.237 M150.742 76.710 C 150.698 76.825,150.683 79.244,150.708 82.085 L 150.755 87.250 150.794 81.958 L 150.833 76.667 151.417 76.667 C 151.985 76.667,152.000 76.684,152.000 77.323 C 152.000 78.212,152.149 78.232,152.826 77.431 L 153.403 76.750 152.785 77.324 L 152.167 77.899 152.167 77.199 L 152.167 76.500 151.495 76.500 C 151.108 76.500,150.789 76.589,150.742 76.710 M165.608 76.627 C 165.475 76.841,165.429 78.485,165.552 78.607 C 165.615 78.670,165.667 78.264,165.667 77.704 L 165.667 76.686 166.375 76.622 L 167.083 76.558 166.385 76.529 C 166.001 76.513,165.651 76.557,165.608 76.627 M170.076 76.708 C 170.032 76.823,170.017 80.142,170.042 84.083 L 170.087 91.250 170.127 83.968 L 170.167 76.686 170.875 76.622 L 171.583 76.558 170.870 76.529 C 170.429 76.511,170.126 76.580,170.076 76.708 M182.105 76.632 C 182.060 76.704,182.299 76.738,182.637 76.706 C 183.667 76.608,183.789 76.540,182.968 76.519 C 182.538 76.509,182.150 76.559,182.105 76.632 M190.159 76.848 C 190.057 77.039,190.010 77.232,190.055 77.277 C 190.100 77.322,190.184 77.207,190.243 77.021 C 190.326 76.760,190.525 76.670,191.133 76.622 L 191.917 76.560 191.131 76.530 C 190.487 76.505,190.311 76.563,190.159 76.848 M240.877 76.620 C 241.131 76.658,241.506 76.657,241.711 76.617 C 241.916 76.578,241.708 76.546,241.250 76.548 C 240.792 76.549,240.624 76.581,240.877 76.620 M258.592 76.699 C 258.454 77.115,258.415 78.500,258.540 78.500 C 258.610 78.500,258.667 78.087,258.667 77.583 L 258.667 76.667 259.331 76.667 L 259.995 76.667 260.043 81.875 L 260.090 87.083 260.087 81.833 L 260.083 76.583 259.373 76.532 C 258.899 76.498,258.640 76.553,258.592 76.699 M263.822 76.618 C 264.265 76.663,264.502 76.777,264.548 76.967 C 264.596 77.167,264.611 77.152,264.600 76.917 C 264.586 76.641,264.461 76.581,263.874 76.567 L 263.164 76.551 263.822 76.618 M335.242 76.710 C 335.198 76.825,335.183 79.244,335.208 82.085 L 335.255 87.250 335.294 81.968 L 335.333 76.686 336.042 76.622 L 336.750 76.558 336.036 76.529 C 335.593 76.511,335.292 76.579,335.242 76.710 M347.125 76.621 C 347.423 76.658,347.910 76.658,348.208 76.621 C 348.506 76.584,348.262 76.553,347.667 76.553 C 347.071 76.553,346.827 76.584,347.125 76.621 M366.625 76.618 C 366.831 76.657,367.169 76.657,367.375 76.618 C 367.581 76.578,367.412 76.545,367.000 76.545 C 366.587 76.545,366.419 76.578,366.625 76.618 M145.833 77.032 C 146.899 78.024,147.530 78.514,147.000 77.939 C 146.679 77.591,146.267 77.227,146.083 77.130 C 145.900 77.034,145.787 76.990,145.833 77.032 M264.991 77.625 L 264.417 78.250 265.042 77.676 C 265.385 77.360,265.667 77.078,265.667 77.051 C 265.667 76.923,265.526 77.043,264.991 77.625 M172.240 77.708 L 171.750 78.250 172.292 77.760 C 172.590 77.491,172.833 77.248,172.833 77.219 C 172.833 77.090,172.696 77.203,172.240 77.708 M179.500 77.750 C 179.811 78.071,180.103 78.333,180.149 78.333 C 180.195 78.333,179.978 78.071,179.667 77.750 C 179.356 77.429,179.064 77.167,179.018 77.167 C 178.972 77.167,179.189 77.429,179.500 77.750 M206.573 77.875 L 206.083 78.417 206.625 77.927 C 206.923 77.658,207.167 77.414,207.167 77.385 C 207.167 77.257,207.029 77.370,206.573 77.875 M250.406 77.875 L 249.917 78.417 250.458 77.927 C 250.756 77.658,251.000 77.414,251.000 77.385 C 251.000 77.257,250.862 77.370,250.406 77.875 M284.667 77.917 C 284.978 78.237,285.270 78.500,285.315 78.500 C 285.361 78.500,285.144 78.237,284.833 77.917 C 284.522 77.596,284.230 77.333,284.185 77.333 C 284.139 77.333,284.356 77.596,284.667 77.917 M289.158 77.958 L 288.583 78.583 289.208 78.009 C 289.552 77.693,289.833 77.412,289.833 77.384 C 289.833 77.257,289.692 77.377,289.158 77.958 M354.573 77.875 L 354.083 78.417 354.625 77.927 C 355.130 77.471,355.243 77.333,355.115 77.333 C 355.086 77.333,354.842 77.577,354.573 77.875 M142.625 77.618 C 142.831 77.657,143.169 77.657,143.375 77.618 C 143.581 77.578,143.412 77.545,143.000 77.545 C 142.587 77.545,142.419 77.578,142.625 77.618 M292.792 77.618 C 292.998 77.657,293.335 77.657,293.542 77.618 C 293.748 77.578,293.579 77.545,293.167 77.545 C 292.754 77.545,292.585 77.578,292.792 77.618 M327.125 77.618 C 327.331 77.657,327.669 77.657,327.875 77.618 C 328.081 77.578,327.912 77.545,327.500 77.545 C 327.087 77.545,326.919 77.578,327.125 77.618 M358.125 77.618 C 358.331 77.657,358.669 77.657,358.875 77.618 C 359.081 77.578,358.912 77.545,358.500 77.545 C 358.087 77.545,357.919 77.578,358.125 77.618 M350.240 82.500 C 350.240 85.112,350.263 86.181,350.291 84.875 C 350.319 83.569,350.319 81.431,350.291 80.125 C 350.263 78.819,350.240 79.887,350.240 82.500 M134.637 78.659 C 134.791 79.021,134.940 79.251,134.968 79.170 C 135.021 79.020,134.547 78.000,134.425 78.000 C 134.388 78.000,134.484 78.297,134.637 78.659 M368.517 78.756 C 368.233 79.080,368.002 79.436,368.005 79.547 C 368.008 79.659,368.093 79.600,368.194 79.417 C 368.295 79.233,368.569 78.877,368.803 78.625 C 369.038 78.373,369.185 78.167,369.132 78.167 C 369.078 78.167,368.802 78.432,368.517 78.756 M164.333 78.917 C 164.644 79.237,164.936 79.500,164.982 79.500 C 165.028 79.500,164.811 79.237,164.500 78.917 C 164.189 78.596,163.897 78.333,163.851 78.333 C 163.805 78.333,164.022 78.596,164.333 78.917 M221.500 78.875 C 221.500 78.944,222.119 78.989,222.875 78.975 C 224.295 78.949,224.131 78.879,222.458 78.797 C 221.931 78.771,221.500 78.806,221.500 78.875 M377.542 79.000 C 377.588 79.170,377.844 79.256,378.346 79.269 C 379.078 79.289,379.078 79.288,378.419 79.215 C 378.053 79.175,377.691 79.054,377.614 78.946 C 377.518 78.811,377.496 78.828,377.542 79.000 M210.250 79.833 C 210.108 80.108,210.029 80.333,210.075 80.333 C 210.121 80.333,210.274 80.108,210.417 79.833 C 210.559 79.558,210.638 79.333,210.592 79.333 C 210.546 79.333,210.392 79.558,210.250 79.833 M285.333 80.167 L 284.583 80.283 285.282 80.308 C 285.666 80.322,286.027 80.258,286.083 80.167 C 286.140 80.075,286.163 80.011,286.135 80.025 C 286.107 80.039,285.746 80.103,285.333 80.167 M221.609 80.292 C 221.566 80.360,221.993 80.396,222.557 80.370 C 224.395 80.287,224.613 80.221,223.135 80.193 C 222.338 80.179,221.651 80.223,221.609 80.292 M152.237 83.750 C 152.237 85.675,152.262 86.440,152.291 85.449 C 152.321 84.459,152.321 82.884,152.291 81.949 C 152.261 81.015,152.237 81.825,152.237 83.750 M306.205 80.833 C 306.205 81.154,306.240 81.285,306.282 81.125 C 306.323 80.965,306.323 80.702,306.282 80.542 C 306.240 80.381,306.205 80.512,306.205 80.833 M135.237 83.833 C 135.237 85.712,135.261 86.481,135.291 85.542 C 135.321 84.602,135.321 83.065,135.291 82.125 C 135.261 81.185,135.237 81.954,135.237 83.833 M264.570 83.833 C 264.570 85.712,264.595 86.481,264.624 85.542 C 264.654 84.602,264.654 83.065,264.624 82.125 C 264.595 81.185,264.570 81.954,264.570 83.833 M367.737 83.833 C 367.737 85.712,367.761 86.481,367.791 85.542 C 367.821 84.602,367.821 83.065,367.791 82.125 C 367.761 81.185,367.737 81.954,367.737 83.833 M138.876 80.833 C 138.934 81.047,139.541 81.084,143.014 81.088 L 147.083 81.093 143.091 81.043 C 140.168 81.007,139.060 80.939,138.954 80.789 C 138.848 80.639,138.827 80.651,138.876 80.833 M205.405 81.951 C 206.679 83.269,206.720 83.335,206.528 83.784 C 206.343 84.215,206.347 84.226,206.581 83.926 C 206.974 83.423,206.921 83.327,205.458 81.913 L 204.083 80.583 205.405 81.951 M226.167 80.719 C 226.167 80.748,226.410 80.991,226.708 81.260 L 227.250 81.750 226.760 81.208 C 226.304 80.703,226.167 80.590,226.167 80.719 M181.221 81.917 C 181.222 82.558,181.252 82.800,181.288 82.455 C 181.324 82.109,181.324 81.584,181.287 81.288 C 181.250 80.992,181.221 81.275,181.221 81.917 M289.144 81.045 C 289.215 81.115,291.068 81.153,293.261 81.128 L 297.250 81.083 293.133 81.000 C 290.869 80.954,289.074 80.974,289.144 81.045 M323.478 81.045 C 323.548 81.115,325.401 81.153,327.595 81.128 L 331.583 81.083 327.466 81.000 C 325.202 80.954,323.407 80.974,323.478 81.045 M358.500 81.000 L 354.417 81.092 358.448 81.129 C 360.998 81.153,362.518 81.105,362.583 81.000 C 362.640 80.908,362.663 80.850,362.635 80.871 C 362.607 80.891,360.746 80.949,358.500 81.000 M230.717 81.833 C 230.717 82.337,230.748 82.544,230.786 82.292 C 230.824 82.040,230.824 81.627,230.786 81.375 C 230.748 81.123,230.717 81.329,230.717 81.833 M364.045 81.667 C 364.045 82.079,364.078 82.248,364.118 82.042 C 364.157 81.835,364.157 81.498,364.118 81.292 C 364.078 81.085,364.045 81.254,364.045 81.667 M321.879 81.833 C 321.879 82.246,321.911 82.415,321.951 82.208 C 321.991 82.002,321.991 81.665,321.951 81.458 C 321.911 81.252,321.879 81.421,321.879 81.833 M137.375 81.917 C 137.377 82.283,137.411 82.414,137.451 82.206 C 137.491 81.999,137.490 81.699,137.448 81.540 C 137.406 81.380,137.374 81.550,137.375 81.917 M240.539 81.833 C 240.539 82.154,240.573 82.285,240.615 82.125 C 240.657 81.965,240.657 81.702,240.615 81.542 C 240.573 81.381,240.539 81.512,240.539 81.833 M227.381 83.083 C 227.382 83.542,227.415 83.709,227.453 83.456 C 227.491 83.203,227.490 82.828,227.451 82.623 C 227.411 82.418,227.380 82.625,227.381 83.083 M276.669 82.764 C 276.671 82.940,276.748 83.196,276.841 83.333 C 276.964 83.516,276.980 83.448,276.898 83.083 C 276.761 82.471,276.666 82.337,276.669 82.764 M199.039 83.333 C 199.039 83.654,199.073 83.785,199.115 83.625 C 199.157 83.465,199.157 83.202,199.115 83.042 C 199.073 82.881,199.039 83.012,199.039 83.333 M210.167 84.750 C 211.034 85.621,211.781 86.333,211.827 86.333 C 211.873 86.333,211.201 85.621,210.333 84.750 C 209.466 83.879,208.719 83.167,208.673 83.167 C 208.627 83.167,209.299 83.879,210.167 84.750 M284.667 83.593 C 285.298 83.730,286.167 83.754,286.167 83.633 C 286.167 83.560,285.773 83.509,285.292 83.519 C 284.810 83.530,284.529 83.563,284.667 83.593 M309.167 83.885 C 309.167 83.914,309.410 84.158,309.708 84.427 L 310.250 84.917 309.760 84.375 C 309.304 83.870,309.167 83.757,309.167 83.885 M172.167 84.385 C 172.167 84.414,172.410 84.658,172.708 84.927 L 173.250 85.417 172.760 84.875 C 172.304 84.370,172.167 84.257,172.167 84.385 M207.733 84.542 C 207.667 84.656,207.677 84.692,207.756 84.620 C 207.834 84.549,208.390 84.961,208.991 85.537 L 210.083 86.583 209.005 85.458 C 207.789 84.190,207.892 84.265,207.733 84.542 M239.000 85.031 C 238.588 85.407,238.400 85.635,238.583 85.538 C 238.897 85.372,239.980 84.325,239.823 84.340 C 239.783 84.344,239.412 84.655,239.000 85.031 M251.000 84.385 C 251.000 84.414,251.244 84.658,251.542 84.927 L 252.083 85.417 251.594 84.875 C 251.138 84.370,251.000 84.257,251.000 84.385 M277.333 84.385 C 277.333 84.414,277.577 84.658,277.875 84.927 L 278.417 85.417 277.927 84.875 C 277.471 84.370,277.333 84.257,277.333 84.385 M355.500 84.917 C 355.811 85.237,356.103 85.500,356.149 85.500 C 356.195 85.500,355.978 85.237,355.667 84.917 C 355.356 84.596,355.064 84.333,355.018 84.333 C 354.972 84.333,355.189 84.596,355.500 84.917 M308.326 85.208 C 309.017 85.944,309.167 86.077,309.167 85.951 C 309.167 85.925,308.810 85.568,308.375 85.160 L 307.583 84.417 308.326 85.208 M318.991 85.292 L 318.417 85.917 319.042 85.342 C 319.385 85.026,319.667 84.745,319.667 84.717 C 319.667 84.590,319.526 84.710,318.991 85.292 M316.167 85.333 C 315.846 85.509,315.643 85.656,315.717 85.660 C 315.893 85.669,316.833 85.180,316.833 85.079 C 316.833 84.970,316.824 84.974,316.167 85.333 M164.826 85.958 L 164.083 86.750 164.782 86.100 L 165.481 85.451 165.543 86.351 L 165.605 87.250 165.636 86.208 C 165.673 84.964,165.740 84.985,164.826 85.958 M258.312 85.449 C 258.176 85.617,258.164 85.682,258.283 85.611 C 258.425 85.526,258.500 85.744,258.544 86.371 L 258.605 87.250 258.636 86.208 C 258.669 85.074,258.651 85.031,258.312 85.449 M139.000 85.917 C 139.311 86.237,139.603 86.500,139.649 86.500 C 139.695 86.500,139.478 86.237,139.167 85.917 C 138.856 85.596,138.564 85.333,138.518 85.333 C 138.472 85.333,138.689 85.596,139.000 85.917 M288.667 85.385 C 288.667 85.414,288.910 85.658,289.208 85.927 L 289.750 86.417 289.260 85.875 C 288.804 85.370,288.667 85.257,288.667 85.385 M323.000 85.385 C 323.000 85.414,323.244 85.658,323.542 85.927 L 324.083 86.417 323.594 85.875 C 323.138 85.370,323.000 85.257,323.000 85.385 M374.459 85.792 C 374.675 85.998,374.941 86.164,375.051 86.162 C 375.160 86.159,375.100 86.073,374.917 85.972 C 374.733 85.870,374.467 85.703,374.325 85.602 C 374.183 85.500,374.244 85.585,374.459 85.792 M221.648 85.715 C 221.720 85.787,222.486 85.824,223.348 85.797 L 224.917 85.748 223.216 85.666 C 222.281 85.620,221.575 85.643,221.648 85.715 M313.121 85.954 C 313.417 85.990,313.942 85.991,314.288 85.955 C 314.634 85.919,314.392 85.889,313.750 85.888 C 313.108 85.887,312.825 85.917,313.121 85.954 M161.125 86.118 C 161.331 86.157,161.669 86.157,161.875 86.118 C 162.081 86.078,161.912 86.045,161.500 86.045 C 161.087 86.045,160.919 86.078,161.125 86.118 M175.292 86.118 C 175.498 86.157,175.835 86.157,176.042 86.118 C 176.248 86.078,176.079 86.045,175.667 86.045 C 175.254 86.045,175.085 86.078,175.292 86.118 M236.044 86.120 C 236.297 86.158,236.672 86.157,236.877 86.117 C 237.082 86.078,236.875 86.046,236.417 86.048 C 235.958 86.049,235.791 86.081,236.044 86.120 M254.125 86.118 C 254.331 86.157,254.669 86.157,254.875 86.118 C 255.081 86.078,254.912 86.045,254.500 86.045 C 254.088 86.045,253.919 86.078,254.125 86.118 M280.458 86.118 C 280.665 86.157,281.002 86.157,281.208 86.118 C 281.415 86.078,281.246 86.045,280.833 86.045 C 280.421 86.045,280.252 86.078,280.458 86.118 M375.542 86.282 C 375.702 86.323,375.965 86.323,376.125 86.282 C 376.285 86.240,376.154 86.205,375.833 86.205 C 375.512 86.205,375.381 86.240,375.542 86.282 M313.460 87.451 C 313.668 87.491,313.968 87.490,314.127 87.448 C 314.286 87.406,314.117 87.374,313.750 87.375 C 313.383 87.377,313.253 87.411,313.460 87.451 " stroke="none" fill="#048cd4" fill-rule="evenodd"></path><path id="path1" d="M52.061 13.682 C 50.538 14.123,49.002 15.786,48.332 17.721 C 46.500 23.010,50.650 32.117,53.507 29.076 L 53.900 28.657 53.429 23.940 C 52.840 18.035,52.823 18.080,55.388 18.474 C 60.632 19.279,62.119 18.727,60.990 16.395 C 60.055 14.464,54.835 12.877,52.061 13.682 M31.917 27.595 C 31.825 27.632,29.543 27.884,26.845 28.156 C 20.906 28.755,18.998 29.460,19.001 31.054 C 19.003 32.694,19.478 32.774,26.113 32.258 C 40.032 31.175,38.791 31.222,42.122 31.650 C 48.956 32.530,50.667 32.258,50.667 30.294 C 50.667 29.023,49.197 28.243,46.000 27.820 C 44.681 27.645,32.286 27.448,31.917 27.595 M64.455 27.756 C 60.495 28.296,59.185 29.263,60.077 30.988 C 60.643 32.083,60.588 32.076,66.553 31.849 C 75.068 31.526,75.268 31.534,82.778 32.485 C 91.312 33.566,91.000 33.586,91.000 31.963 C 91.000 30.366,89.750 29.716,85.333 29.013 C 76.279 27.572,69.013 27.135,64.455 27.756 M29.917 33.162 C 25.820 33.494,25.513 34.813,29.101 36.667 L 30.553 37.417 37.068 37.500 C 41.561 37.557,43.687 37.643,43.917 37.776 C 44.561 38.149,44.981 38.764,45.654 40.320 C 46.575 42.450,47.313 43.109,49.113 43.409 C 52.063 43.901,50.689 36.856,47.444 34.850 C 45.948 33.925,34.322 32.806,29.917 33.162 M71.083 33.601 C 70.625 33.636,68.726 33.781,66.864 33.923 C 60.285 34.423,59.594 35.132,59.355 41.631 C 59.185 46.246,59.328 47.271,60.296 48.375 C 60.972 49.146,62.333 48.226,62.333 46.997 C 62.333 44.233,63.954 39.752,65.521 38.185 C 66.641 37.065,66.935 37.036,71.206 37.636 C 80.441 38.933,83.594 38.916,85.958 37.559 C 89.234 35.679,79.117 32.987,71.083 33.601 M49.652 44.357 C 48.795 44.778,48.083 45.385,46.062 47.420 C 42.749 50.755,42.044 52.017,39.922 58.418 C 38.242 63.487,37.422 64.945,35.005 67.154 C 31.218 70.614,30.372 71.992,28.752 77.337 C 26.161 85.885,26.091 87.216,28.223 87.456 C 29.534 87.604,30.893 85.895,33.306 81.063 C 33.860 79.952,34.718 78.377,35.211 77.563 C 35.705 76.749,36.583 75.221,37.164 74.167 C 38.483 71.772,39.469 70.311,40.989 68.500 C 43.245 65.813,43.923 64.549,45.004 61.016 C 46.023 57.683,46.527 56.794,49.523 53.039 C 51.530 50.525,51.702 50.151,52.098 47.449 C 52.610 43.956,52.012 43.200,49.652 44.357 M62.242 52.734 C 59.982 53.719,60.245 55.013,63.398 58.417 C 64.501 59.608,65.744 60.960,66.160 61.420 C 71.241 67.038,71.677 67.349,72.832 66.194 C 74.565 64.460,72.371 59.993,67.327 54.985 C 64.947 52.622,63.733 52.085,62.242 52.734 M57.223 56.246 C 55.898 57.174,56.909 60.245,59.774 63.998 C 60.769 65.302,61.981 66.900,62.466 67.548 C 63.017 68.284,64.180 70.423,65.560 73.239 C 71.567 85.494,73.567 87.605,77.582 85.928 C 79.227 85.241,77.847 82.416,72.965 76.474 C 70.522 73.501,68.722 70.542,67.176 66.961 C 65.202 62.388,65.008 62.034,63.604 60.456 C 60.883 57.398,58.151 55.596,57.223 56.246 M51.520 56.784 C 50.806 57.137,50.222 57.946,49.038 60.226 C 48.384 61.483,47.706 62.482,46.838 63.463 C 44.084 66.577,43.505 67.503,43.502 68.797 C 43.498 70.547,44.813 71.637,46.331 71.142 C 49.224 70.201,55.011 62.963,55.036 60.257 C 55.047 59.014,53.507 56.667,52.680 56.667 C 52.596 56.667,52.427 56.631,52.305 56.586 C 52.183 56.542,51.830 56.631,51.520 56.784 M72.095 70.429 C 70.808 71.716,77.826 81.093,79.862 80.805 C 81.062 80.635,78.519 73.303,76.634 71.495 C 75.489 70.397,72.766 69.757,72.095 70.429 M40.540 72.254 C 38.716 73.815,36.444 77.802,34.905 82.141 C 33.783 85.306,39.449 82.327,42.229 78.291 C 42.827 77.423,42.838 77.379,42.847 75.746 C 42.870 71.766,42.234 70.804,40.540 72.254 M202.520 72.861 C 201.385 73.424,200.792 74.468,200.870 75.772 C 200.930 76.789,201.102 77.156,202.151 78.510 L 202.482 78.937 201.368 79.677 C 197.207 82.441,199.332 87.948,204.315 87.312 C 205.471 87.165,206.383 86.529,207.250 85.266 L 207.917 84.294 209.376 85.844 L 210.835 87.394 211.338 86.912 L 211.841 86.430 210.212 84.792 L 208.583 83.153 209.794 80.785 C 211.213 78.009,211.188 78.133,210.315 78.199 L 209.630 78.250 208.680 80.083 C 207.545 82.277,207.737 82.248,206.042 80.488 L 204.667 79.061 205.231 78.793 C 205.541 78.645,206.070 78.282,206.406 77.987 C 209.303 75.444,206.029 71.125,202.520 72.861 M311.583 72.734 C 307.326 74.086,305.233 78.367,306.740 82.639 C 308.651 88.055,316.561 89.006,319.856 84.216 C 320.893 82.710,319.455 82.677,317.898 84.172 C 313.894 88.017,307.917 85.468,307.917 79.917 C 307.917 74.331,314.163 71.745,317.983 75.748 C 319.400 77.232,320.812 77.086,319.791 75.560 C 318.186 73.164,314.369 71.849,311.583 72.734 M115.167 73.333 L 115.167 74.000 116.917 74.000 L 118.667 74.000 118.667 80.583 L 118.667 87.167 119.500 87.167 L 120.333 87.167 120.333 80.583 L 120.333 74.000 122.083 74.000 L 123.833 74.000 123.833 73.333 L 123.833 72.667 119.500 72.667 L 115.167 72.667 115.167 73.333 M125.500 79.907 L 125.500 87.167 126.250 87.167 L 127.000 87.167 127.000 83.650 C 127.000 78.783,127.613 77.713,130.417 77.683 C 133.105 77.654,133.823 78.991,133.829 84.042 L 133.833 87.167 134.514 87.167 L 135.194 87.167 135.138 83.375 C 135.078 79.281,134.936 78.585,133.950 77.528 C 132.518 75.992,129.307 75.954,127.648 77.453 L 127.009 78.031 126.963 75.390 L 126.917 72.750 126.208 72.699 L 125.500 72.648 125.500 79.907 M220.000 79.935 L 220.000 87.204 222.958 87.135 C 226.289 87.058,227.048 86.832,228.131 85.599 C 229.610 83.914,229.155 81.069,227.222 79.908 L 226.375 79.399 226.997 78.877 C 228.642 77.496,228.561 74.771,226.838 73.522 C 225.915 72.854,224.910 72.667,222.242 72.667 L 220.000 72.667 220.000 79.935 M245.119 72.770 C 245.054 72.835,245.000 76.101,245.000 80.028 L 245.000 87.167 245.752 87.167 L 246.504 87.167 246.460 79.958 L 246.417 72.750 245.827 72.700 C 245.503 72.673,245.185 72.704,245.119 72.770 M348.797 74.625 L 348.750 76.583 347.698 76.633 L 346.647 76.683 346.698 77.217 C 346.750 77.748,346.754 77.750,347.792 77.800 L 348.833 77.849 348.833 82.508 L 348.833 87.167 349.500 87.167 L 350.167 87.167 350.167 82.508 L 350.167 77.849 351.292 77.799 L 352.417 77.750 352.468 77.216 L 352.520 76.682 351.385 76.633 L 350.250 76.583 350.203 74.625 L 350.156 72.667 349.500 72.667 L 348.844 72.667 348.797 74.625 M205.172 73.919 C 206.761 74.741,206.451 76.861,204.599 77.843 L 203.847 78.242 203.325 77.746 C 201.160 75.689,202.645 72.612,205.172 73.919 M225.450 74.454 C 226.561 75.031,226.976 76.469,226.375 77.661 C 225.910 78.583,225.249 78.857,223.245 78.959 L 221.500 79.048 221.500 76.635 C 221.500 75.308,221.556 74.164,221.625 74.092 C 221.863 73.843,224.811 74.122,225.450 74.454 M141.217 76.634 C 134.442 79.053,137.679 89.123,144.610 87.189 C 145.912 86.826,148.000 84.953,148.000 84.148 C 148.000 83.705,146.576 84.024,146.250 84.541 C 144.447 87.397,139.548 86.338,138.913 82.955 L 138.797 82.339 143.607 82.294 L 148.417 82.250 148.398 81.298 C 148.332 77.977,144.473 75.471,141.217 76.634 M154.051 76.604 C 153.667 76.742,153.092 77.143,152.773 77.496 C 152.112 78.228,152.000 78.200,152.000 77.306 C 152.000 76.687,151.982 76.667,151.417 76.667 L 150.833 76.667 150.833 81.917 L 150.833 87.167 151.488 87.167 L 152.143 87.167 152.197 83.542 C 152.264 78.944,152.631 78.125,154.750 77.840 C 155.402 77.752,155.417 77.735,155.417 77.083 C 155.417 76.297,155.160 76.207,154.051 76.604 M159.320 76.724 C 154.240 78.814,154.915 86.351,160.269 87.322 C 162.068 87.648,163.513 87.211,164.792 85.955 L 165.667 85.095 165.667 86.131 L 165.667 87.167 166.333 87.167 L 167.000 87.167 167.000 81.917 L 167.000 76.667 166.333 76.667 L 165.667 76.667 165.667 77.659 L 165.667 78.651 164.865 77.849 C 163.395 76.380,161.227 75.939,159.320 76.724 M173.930 76.747 C 173.377 76.974,172.627 77.463,172.222 77.861 L 171.500 78.569 171.500 77.618 L 171.500 76.667 170.833 76.667 L 170.167 76.667 170.167 83.917 L 170.167 91.167 170.833 91.167 L 171.500 91.167 171.500 88.159 L 171.500 85.151 172.325 85.976 C 174.442 88.093,178.219 87.819,180.034 85.417 C 183.425 80.927,179.012 74.658,173.930 76.747 M234.372 76.637 C 230.862 77.890,229.700 82.429,232.089 85.556 C 233.860 87.876,237.929 88.040,239.840 85.870 L 240.500 85.120 240.500 86.143 L 240.500 87.167 241.250 87.167 L 242.000 87.167 242.000 81.917 L 242.000 76.667 241.250 76.667 L 240.500 76.667 240.500 77.603 L 240.500 78.540 239.818 77.837 C 238.500 76.479,236.221 75.977,234.372 76.637 M252.750 76.556 C 249.640 77.587,248.121 80.893,249.318 84.025 C 250.695 87.625,255.367 88.625,257.958 85.873 L 258.667 85.120 258.667 86.144 L 258.667 87.167 259.333 87.167 L 260.000 87.167 260.000 81.917 L 260.000 76.667 259.333 76.667 L 258.667 76.667 258.667 77.583 C 258.667 78.666,258.645 78.676,257.968 77.906 C 256.838 76.618,254.437 75.998,252.750 76.556 M266.791 76.524 C 266.447 76.621,265.791 77.037,265.333 77.449 L 264.500 78.198 264.500 77.432 L 264.500 76.667 263.833 76.667 L 263.167 76.667 263.167 81.917 L 263.167 87.167 263.821 87.167 L 264.476 87.167 264.530 83.625 C 264.601 78.902,265.104 77.943,267.631 77.714 C 270.641 77.441,271.324 78.534,271.330 83.625 L 271.333 87.167 272.083 87.167 L 272.833 87.167 272.833 83.944 C 272.833 79.163,272.397 77.765,270.619 76.857 C 269.709 76.391,267.840 76.229,266.791 76.524 M278.751 76.707 C 273.928 78.385,274.158 85.629,279.083 87.177 C 281.755 88.017,286.000 85.973,286.000 83.845 C 286.000 83.343,284.578 83.663,284.270 84.235 C 282.368 87.766,276.675 86.028,276.674 81.917 C 276.673 77.728,282.547 75.942,284.291 79.600 C 284.537 80.115,284.627 80.167,285.281 80.167 C 286.144 80.167,286.177 80.011,285.529 78.991 C 284.071 76.696,281.385 75.791,278.751 76.707 M291.554 76.563 C 287.449 77.906,286.315 83.188,289.513 86.064 C 291.894 88.204,295.844 87.732,297.662 85.090 C 298.634 83.678,297.408 83.397,296.261 84.769 C 294.094 87.362,289.815 86.234,289.091 82.878 L 288.975 82.338 293.779 82.294 L 298.583 82.250 298.577 81.333 C 298.556 78.086,294.767 75.513,291.554 76.563 M325.917 76.556 C 319.804 78.581,321.184 87.458,327.601 87.384 C 329.443 87.363,330.986 86.557,331.995 85.090 C 332.967 83.678,331.809 83.413,330.611 84.774 C 328.335 87.359,324.153 86.254,323.424 82.875 L 323.307 82.333 328.177 82.333 L 333.046 82.333 332.957 81.343 C 332.646 77.914,329.099 75.502,325.917 76.556 M338.917 76.539 C 338.170 76.806,337.327 77.419,336.978 77.948 L 336.669 78.417 336.668 77.542 L 336.667 76.667 336.000 76.667 L 335.333 76.667 335.333 81.917 L 335.333 87.167 336.000 87.167 L 336.667 87.167 336.667 83.990 C 336.667 82.154,336.747 80.494,336.858 80.055 C 337.518 77.435,341.455 76.763,342.947 79.016 L 343.417 79.725 343.470 83.446 L 343.523 87.167 344.277 87.167 L 345.032 87.167 344.974 83.375 C 344.909 79.081,344.691 78.233,343.396 77.245 C 342.307 76.415,340.194 76.081,338.917 76.539 M356.887 76.563 C 350.502 78.651,352.793 88.586,359.375 87.353 C 361.291 86.994,363.500 85.319,363.500 84.225 C 363.500 83.656,362.254 83.968,361.740 84.666 C 359.761 87.354,355.107 86.258,354.494 82.958 L 354.378 82.333 359.213 82.333 L 364.048 82.333 363.946 81.242 C 363.630 77.851,360.101 75.512,356.887 76.563 M369.682 76.549 C 369.370 76.648,368.814 77.016,368.447 77.365 C 367.630 78.142,367.667 78.144,367.667 77.333 L 367.667 76.667 367.000 76.667 L 366.333 76.667 366.333 81.917 L 366.333 87.167 367.000 87.167 L 367.667 87.167 367.667 83.947 C 367.667 79.170,368.289 77.833,370.511 77.833 C 370.979 77.833,371.000 77.802,371.000 77.083 C 371.000 76.247,370.836 76.180,369.682 76.549 M374.583 76.537 C 371.582 77.601,371.904 80.950,375.109 82.004 C 377.458 82.776,378.139 83.428,377.892 84.666 C 377.466 86.797,374.217 86.792,373.748 84.659 C 373.650 84.212,373.577 84.167,372.965 84.167 L 372.289 84.167 372.380 84.840 C 372.840 88.269,378.493 88.234,379.203 84.797 C 379.586 82.943,378.749 81.836,376.444 81.150 C 374.604 80.602,374.014 80.130,374.005 79.197 C 373.987 77.240,377.091 76.850,377.568 78.750 C 377.691 79.237,379.000 79.400,379.000 78.928 C 379.000 77.179,376.535 75.845,374.583 76.537 M182.246 76.958 C 182.309 77.119,182.647 78.000,182.997 78.917 C 183.348 79.833,184.210 82.007,184.913 83.748 L 186.192 86.912 185.346 88.867 C 184.319 91.240,184.322 91.199,185.201 91.135 L 185.901 91.083 186.432 89.833 C 186.724 89.146,187.582 87.083,188.338 85.250 C 189.094 83.417,190.189 80.764,190.773 79.355 C 191.356 77.947,191.833 76.765,191.833 76.730 C 191.833 76.695,191.504 76.667,191.101 76.667 L 190.370 76.667 189.532 78.708 C 189.072 79.831,188.340 81.650,187.906 82.750 C 187.472 83.850,187.066 84.809,187.003 84.881 C 186.940 84.953,186.148 83.134,185.242 80.839 L 183.596 76.667 182.864 76.667 C 182.233 76.667,182.147 76.707,182.246 76.958 M144.833 78.000 C 145.949 78.569,147.000 79.940,147.000 80.827 C 147.000 81.187,139.153 81.382,138.934 81.028 C 138.728 80.694,139.296 79.530,140.020 78.802 C 141.318 77.496,143.223 77.179,144.833 78.000 M294.453 77.770 C 295.911 78.264,297.167 79.668,297.167 80.806 L 297.167 81.173 293.125 81.128 L 289.083 81.083 289.139 80.667 C 289.422 78.530,292.210 77.011,294.453 77.770 M329.550 78.128 C 330.547 78.684,331.500 79.936,331.500 80.688 L 331.500 81.173 327.458 81.128 L 323.417 81.083 323.472 80.667 C 323.803 78.170,327.134 76.779,329.550 78.128 M360.466 78.033 C 361.567 78.600,362.891 80.503,362.558 81.041 C 362.515 81.110,360.675 81.167,358.468 81.167 L 354.456 81.167 354.552 80.576 C 354.942 78.177,358.103 76.817,360.466 78.033 M163.432 78.132 C 167.522 80.220,165.415 86.767,160.873 86.085 C 157.417 85.567,156.055 81.238,158.578 78.788 C 159.759 77.642,161.904 77.351,163.432 78.132 M177.024 77.860 C 179.347 78.556,180.484 81.438,179.346 83.749 C 177.187 88.136,170.606 85.907,171.514 81.096 C 171.997 78.535,174.457 77.091,177.024 77.860 M237.843 77.920 C 241.927 79.361,241.243 85.516,236.933 86.107 C 233.935 86.518,231.522 83.621,232.391 80.653 C 233.074 78.320,235.512 77.098,237.843 77.920 M255.857 77.860 C 258.219 78.568,259.329 81.456,258.147 83.820 C 256.158 87.801,250.322 86.326,250.337 81.845 C 250.347 78.929,253.009 77.007,255.857 77.860 M206.833 83.427 C 206.833 84.438,204.878 86.000,203.611 86.000 C 200.225 86.000,199.599 82.247,202.661 80.302 L 203.406 79.829 205.120 81.536 C 206.062 82.476,206.833 83.326,206.833 83.427 M225.938 80.553 C 227.925 81.586,228.032 84.369,226.123 85.363 C 225.518 85.678,225.141 85.733,223.500 85.741 L 221.583 85.750 221.537 83.174 C 221.512 81.757,221.532 80.489,221.583 80.357 C 221.709 80.030,225.237 80.188,225.938 80.553 " stroke="none" fill="#f8f9fa" fill-rule="evenodd"></path><path id="path2" d="M107.874 80.208 L 107.917 92.083 247.208 92.125 L 386.500 92.167 386.500 80.250 L 386.500 68.333 247.166 68.333 L 107.831 68.333 107.874 80.208 M205.213 72.510 C 208.387 73.391,208.217 77.819,204.962 79.050 C 204.833 79.099,205.314 79.701,206.195 80.593 L 207.641 82.055 208.609 80.111 L 209.577 78.167 210.372 78.167 C 210.809 78.167,211.167 78.214,211.167 78.271 C 211.167 78.410,209.001 82.523,208.782 82.802 C 208.651 82.967,209.008 83.420,210.245 84.662 C 211.975 86.398,212.048 86.576,211.247 87.100 L 210.810 87.387 209.340 85.923 L 207.869 84.460 207.296 85.355 C 205.234 88.576,200.284 88.000,199.243 84.417 C 198.665 82.427,199.583 80.584,201.791 79.302 L 202.499 78.891 202.067 78.487 C 199.193 75.802,201.472 71.471,205.213 72.510 M315.553 72.583 C 317.581 73.111,320.333 75.333,320.333 76.442 C 320.333 76.947,318.606 76.725,318.284 76.179 C 316.161 72.586,309.739 73.538,308.248 77.667 C 306.022 83.830,313.486 88.691,317.980 84.005 C 318.743 83.208,318.827 83.167,319.652 83.167 L 320.521 83.167 320.058 84.018 C 317.565 88.597,310.073 88.500,307.264 83.852 C 303.763 78.057,309.038 70.885,315.553 72.583 M123.917 73.333 L 123.917 74.083 122.125 74.131 L 120.333 74.178 120.333 80.672 L 120.333 87.167 119.500 87.167 L 118.667 87.167 118.667 80.672 L 118.667 74.178 116.875 74.131 L 115.083 74.083 115.030 73.526 C 114.926 72.446,114.724 72.490,119.538 72.539 L 123.917 72.583 123.917 73.333 M126.963 75.204 L 127.008 77.825 127.761 77.250 C 129.712 75.761,132.925 76.037,134.285 77.811 C 135.112 78.889,135.207 79.426,135.290 83.458 L 135.365 87.167 134.618 87.167 L 133.871 87.167 133.802 83.708 C 133.710 79.069,133.362 78.289,131.173 77.819 C 128.103 77.161,127.106 78.557,127.030 83.625 L 126.976 87.167 126.238 87.167 L 125.500 87.167 125.500 79.944 C 125.500 72.146,125.465 72.461,126.327 72.534 L 126.917 72.583 126.963 75.204 M226.253 73.078 C 228.401 74.129,228.923 77.116,227.243 78.748 L 226.508 79.463 227.002 79.668 C 228.884 80.447,229.656 83.581,228.406 85.368 C 227.406 86.798,226.567 87.075,223.042 87.138 L 220.000 87.193 220.000 79.823 L 220.000 72.453 222.662 72.538 C 225.131 72.616,225.390 72.655,226.253 73.078 M246.460 79.875 L 246.504 87.167 245.752 87.167 L 245.000 87.167 245.000 79.944 C 245.000 72.146,244.965 72.461,245.827 72.534 L 246.417 72.583 246.460 79.875 M350.297 74.534 L 350.344 76.485 351.464 76.534 L 352.583 76.583 352.583 77.167 L 352.583 77.750 351.458 77.799 L 350.333 77.849 350.333 82.508 L 350.333 87.167 349.583 87.167 L 348.833 87.167 348.833 82.500 L 348.833 77.833 347.750 77.833 L 346.667 77.833 346.667 77.167 L 346.667 76.500 347.750 76.500 L 348.833 76.500 348.833 74.490 L 348.833 72.481 349.542 72.532 L 350.250 72.583 350.297 74.534 M203.219 73.983 C 201.967 74.767,201.986 76.032,203.272 77.571 C 203.858 78.271,204.142 78.227,205.302 77.251 C 207.128 75.715,205.224 72.728,203.219 73.983 M221.537 76.458 L 221.583 78.750 223.472 78.750 L 225.360 78.750 225.948 78.107 C 226.514 77.489,226.534 77.425,226.469 76.409 C 226.357 74.644,225.636 74.167,223.084 74.167 L 221.491 74.167 221.537 76.458 M145.604 76.878 C 147.266 77.733,148.500 79.706,148.500 81.506 L 148.500 82.333 143.750 82.333 C 138.440 82.333,138.762 82.250,139.192 83.517 C 140.187 86.451,144.709 87.054,146.247 84.458 C 146.485 84.057,146.621 84.000,147.343 84.000 C 148.297 84.000,148.287 83.982,147.773 84.795 C 145.001 89.179,138.488 87.984,137.500 82.910 C 136.620 78.396,141.498 74.766,145.604 76.878 M155.500 77.062 L 155.500 77.790 154.765 77.873 C 152.726 78.103,152.342 79.013,152.337 83.625 L 152.333 87.167 151.498 87.167 L 150.662 87.167 150.706 81.875 L 150.750 76.583 151.458 76.532 L 152.167 76.481 152.167 77.190 L 152.167 77.899 152.708 77.375 C 154.007 76.118,155.500 75.951,155.500 77.062 M163.430 76.731 C 163.896 76.948,164.548 77.404,164.879 77.745 L 165.481 78.365 165.532 77.474 L 165.583 76.583 166.292 76.532 L 167.000 76.481 167.000 81.824 L 167.000 87.167 166.250 87.167 L 165.500 87.167 165.500 86.300 L 165.500 85.432 164.875 86.041 C 162.146 88.700,157.287 87.457,156.068 83.788 C 154.538 79.180,159.164 74.744,163.430 76.731 M178.252 76.807 C 183.211 79.154,181.846 86.867,176.370 87.439 C 174.803 87.603,172.283 86.645,171.942 85.756 C 171.629 84.941,171.500 85.696,171.500 88.333 L 171.500 91.167 170.748 91.167 L 169.996 91.167 170.040 83.875 L 170.083 76.583 170.792 76.532 L 171.500 76.481 171.500 77.482 L 171.500 78.484 172.301 77.684 C 173.741 76.243,176.271 75.871,178.252 76.807 M238.500 76.737 C 238.821 76.901,239.402 77.344,239.792 77.719 L 240.500 78.403 240.500 77.451 L 240.500 76.500 241.250 76.500 L 242.000 76.500 242.000 81.833 L 242.000 87.167 241.250 87.167 L 240.500 87.167 240.500 86.212 L 240.500 85.257 239.997 85.868 C 238.713 87.425,235.802 87.933,233.800 86.950 C 229.598 84.887,229.755 78.373,234.047 76.675 C 235.162 76.234,237.587 76.268,238.500 76.737 M256.251 76.609 C 256.736 76.775,257.346 77.170,257.772 77.597 L 258.483 78.308 258.533 77.446 L 258.583 76.583 259.333 76.583 L 260.083 76.583 260.127 81.875 L 260.171 87.167 259.336 87.167 L 258.500 87.167 258.500 86.297 L 258.500 85.426 257.875 86.070 C 255.956 88.047,251.886 87.838,250.173 85.674 C 246.544 81.093,250.796 74.751,256.251 76.609 M270.297 76.592 C 272.380 77.460,272.739 78.409,272.803 83.208 L 272.855 87.167 272.106 87.167 L 271.357 87.167 271.303 83.542 C 271.254 80.186,271.223 79.866,270.885 79.234 C 269.709 77.037,266.036 77.251,264.980 79.576 C 264.715 80.160,264.673 80.714,264.670 83.708 L 264.667 87.167 263.917 87.167 L 263.167 87.167 263.167 81.824 L 263.167 76.481 263.875 76.532 L 264.583 76.583 264.537 77.310 L 264.490 78.037 265.239 77.378 C 266.416 76.342,268.807 75.970,270.297 76.592 M282.893 76.672 C 284.379 77.228,286.469 79.543,286.069 80.190 C 285.842 80.556,284.677 80.338,284.390 79.875 C 281.750 75.617,275.512 78.276,276.905 83.066 C 277.871 86.391,282.861 87.066,284.291 84.067 C 284.642 83.333,286.296 83.155,286.073 83.875 C 284.692 88.352,277.834 88.678,275.717 84.367 C 273.468 79.787,278.060 74.864,282.893 76.672 M295.168 76.599 C 297.067 77.163,298.667 79.379,298.667 81.446 L 298.667 82.333 293.917 82.333 L 289.167 82.333 289.170 82.708 C 289.202 85.990,294.767 87.337,296.459 84.473 C 296.704 84.058,296.837 84.000,297.536 84.000 C 298.475 84.000,298.487 84.044,297.828 85.039 C 295.470 88.599,289.695 88.133,288.074 84.253 C 286.115 79.565,290.225 75.131,295.168 76.599 M330.094 76.873 C 331.747 77.724,332.832 79.362,332.964 81.208 L 333.045 82.333 328.251 82.333 L 323.456 82.333 323.550 82.908 C 324.086 86.214,329.058 87.319,330.722 84.503 C 330.988 84.051,331.103 84.000,331.843 84.000 C 332.826 84.000,332.828 84.012,332.074 85.107 C 329.004 89.565,321.953 87.363,321.930 81.940 C 321.913 77.709,326.357 74.951,330.094 76.873 M342.583 76.650 C 344.568 77.571,344.896 78.485,344.968 83.292 L 345.027 87.167 344.263 87.167 L 343.500 87.167 343.500 84.092 C 343.500 78.833,342.604 77.346,339.677 77.749 C 337.242 78.083,336.771 79.024,336.691 83.708 L 336.633 87.167 335.897 87.167 L 335.162 87.167 335.206 81.875 L 335.250 76.583 335.958 76.532 L 336.667 76.481 336.667 77.330 L 336.667 78.178 337.207 77.563 C 338.282 76.339,340.940 75.887,342.583 76.650 M360.544 76.596 C 362.454 77.246,364.167 79.698,364.167 81.780 L 364.167 82.333 359.333 82.333 C 353.881 82.333,354.182 82.248,354.758 83.630 C 355.938 86.460,360.695 86.982,361.866 84.411 C 362.053 84.002,363.667 83.757,363.667 84.138 C 363.667 84.432,362.600 85.867,362.095 86.252 C 358.252 89.183,352.993 86.624,353.013 81.833 C 353.030 77.903,356.763 75.307,360.544 76.596 M371.000 77.083 C 371.000 77.767,370.964 77.833,370.594 77.833 C 368.442 77.833,367.842 79.113,367.837 83.708 L 367.833 87.167 367.083 87.167 L 366.333 87.167 366.333 81.833 L 366.333 76.500 367.000 76.500 L 367.667 76.500 367.667 77.167 C 367.667 77.939,367.751 77.983,368.182 77.435 C 368.597 76.908,369.783 76.334,370.458 76.333 C 370.989 76.333,371.000 76.348,371.000 77.083 M377.580 76.714 C 378.315 77.131,378.993 78.164,378.997 78.875 C 379.002 79.695,377.750 79.550,377.407 78.690 C 376.650 76.800,373.572 77.606,374.064 79.565 C 374.203 80.119,374.926 80.574,376.350 81.002 C 378.992 81.796,380.020 83.626,378.969 85.665 C 377.531 88.456,372.716 87.819,372.222 84.773 L 372.123 84.167 372.870 84.167 C 373.584 84.167,373.627 84.195,373.875 84.826 C 374.764 87.088,378.317 86.205,377.734 83.867 C 377.544 83.104,376.911 82.664,375.167 82.083 C 373.137 81.407,372.500 80.731,372.500 79.250 C 372.500 76.923,375.396 75.478,377.580 76.714 M184.622 79.042 C 185.180 80.440,185.916 82.316,186.258 83.212 C 186.600 84.109,186.925 84.797,186.979 84.743 C 187.033 84.689,187.793 82.831,188.666 80.614 L 190.255 76.583 191.044 76.533 C 191.638 76.494,191.833 76.540,191.833 76.718 C 191.833 76.956,190.212 81.003,188.583 84.833 C 188.095 85.979,187.307 87.873,186.830 89.042 L 185.964 91.167 185.137 91.167 C 184.165 91.167,184.156 91.318,185.266 88.816 C 185.669 87.905,186.000 87.074,186.000 86.970 C 186.000 86.786,182.432 77.526,182.151 76.980 C 181.956 76.602,182.118 76.500,182.916 76.500 L 183.609 76.500 184.622 79.042 M141.250 77.980 C 140.401 78.369,139.702 79.068,139.313 79.917 C 138.790 81.058,138.593 81.000,143.011 81.000 L 147.022 81.000 146.907 80.625 C 146.150 78.179,143.509 76.944,141.250 77.980 M160.033 77.973 C 157.869 78.744,156.813 81.081,157.594 83.372 C 158.723 86.685,163.537 86.925,165.093 83.745 C 166.761 80.335,163.583 76.709,160.033 77.973 M174.333 77.923 C 172.017 78.642,170.852 81.351,171.896 83.593 C 173.564 87.174,178.870 86.590,179.670 82.736 C 180.334 79.538,177.465 76.950,174.333 77.923 M235.389 77.827 C 231.718 78.701,231.126 83.819,234.497 85.542 C 236.613 86.624,239.094 85.761,240.104 83.593 C 241.567 80.451,238.763 77.023,235.389 77.827 M253.204 77.902 C 250.136 78.902,249.359 82.927,251.826 85.039 C 254.813 87.595,259.379 84.779,258.514 80.913 C 257.992 78.579,255.485 77.158,253.204 77.902 M291.604 77.912 C 290.785 78.203,289.882 79.058,289.483 79.917 C 288.954 81.057,288.760 81.000,293.167 81.000 C 297.572 81.000,297.375 81.058,296.856 79.915 C 296.021 78.077,293.663 77.177,291.604 77.912 M325.937 77.912 C 325.119 78.203,324.215 79.058,323.817 79.917 C 323.287 81.057,323.093 81.000,327.511 81.000 L 331.522 81.000 331.409 80.625 C 330.687 78.229,328.329 77.059,325.937 77.912 M356.750 78.064 C 355.567 78.623,354.500 79.934,354.500 80.828 C 354.500 80.941,355.861 81.000,358.500 81.000 C 362.954 81.000,362.790 81.050,362.181 79.868 C 361.158 77.883,358.794 77.098,356.750 78.064 M202.340 80.620 C 200.673 81.788,200.234 83.433,201.238 84.749 C 202.641 86.588,205.193 86.267,206.339 84.106 L 206.734 83.362 205.171 81.723 C 203.311 79.772,203.463 79.832,202.340 80.620 M221.573 80.549 C 221.528 80.668,221.511 81.849,221.537 83.174 L 221.583 85.583 223.583 85.580 C 225.180 85.578,225.694 85.517,226.132 85.280 C 228.031 84.255,227.627 81.157,225.512 80.523 C 224.605 80.252,221.680 80.271,221.573 80.549 " stroke="none" fill="#1c345c" fill-rule="evenodd"></path></g></svg>