<svg id="svg" version="1.1" xmlns="http://www.w3.org/2000/svg" xmlns:xlink="http://www.w3.org/1999/xlink" width="400" height="400" viewBox="0, 0, 400,400"><g id="svgg"><path id="path0" d="M295.047 14.018 C 273.339 19.485,265.704 52.882,279.552 81.800 C 285.786 94.817,292.316 99.559,299.440 96.242 C 303.780 94.221,304.181 92.553,302.974 81.522 C 302.461 76.835,301.762 70.390,301.421 67.200 C 298.794 42.650,298.859 43.790,299.956 41.374 C 300.884 39.331,304.018 37.904,306.385 38.447 C 309.624 39.190,316.559 39.964,321.800 40.168 C 324.880 40.288,330.190 40.502,333.600 40.645 C 341.740 40.985,341.742 40.984,341.933 35.336 C 342.293 24.696,334.979 18.764,316.600 14.789 C 312.078 13.811,297.886 13.304,295.047 14.018 M193.579 86.004 C 191.698 86.179,188.605 86.613,186.706 86.969 C 184.807 87.325,180.226 87.788,176.527 87.998 C 172.827 88.208,167.100 88.753,163.800 89.210 C 160.500 89.667,155.280 90.390,152.200 90.817 C 149.120 91.244,144.350 91.711,141.600 91.854 C 135.275 92.183,126.847 96.396,123.855 100.724 C 122.324 102.939,121.792 110.800,123.174 110.800 C 123.665 110.800,125.323 111.352,126.859 112.026 C 128.701 112.835,130.018 113.177,130.726 113.033 C 131.317 112.912,135.580 112.537,140.200 112.199 C 151.386 111.381,162.143 110.549,173.800 109.602 C 179.080 109.173,188.440 108.455,194.600 108.006 C 200.760 107.558,209.040 106.903,213.000 106.551 C 221.159 105.827,229.091 105.770,233.800 106.402 C 253.092 108.991,263.176 109.990,270.000 109.988 C 283.047 109.984,287.200 107.826,287.200 101.049 C 287.200 90.101,275.121 87.003,229.800 86.330 C 216.160 86.128,203.200 85.900,201.000 85.825 C 198.800 85.749,195.461 85.830,193.579 86.004 M384.200 85.868 C 366.366 86.575,351.085 88.580,343.077 91.263 C 334.474 94.145,332.934 97.202,336.221 104.881 C 337.002 106.706,337.817 108.625,338.032 109.144 C 338.351 109.915,338.624 110.044,339.512 109.845 C 340.639 109.592,352.707 109.042,366.600 108.611 C 371.000 108.474,379.100 108.195,384.600 107.989 C 390.100 107.784,395.815 107.612,397.300 107.608 L 400.000 107.600 400.000 96.600 L 400.000 85.600 393.500 85.678 C 389.925 85.721,385.740 85.807,384.200 85.868 M191.800 114.799 C 175.180 115.411,168.822 116.063,167.000 117.342 C 166.560 117.651,165.390 118.177,164.401 118.511 C 162.729 119.076,162.580 119.242,162.290 120.859 C 161.442 125.593,163.497 127.606,175.931 134.218 L 182.200 137.551 215.000 138.000 C 250.796 138.490,248.797 138.390,248.808 139.687 C 248.815 140.437,249.613 141.028,253.288 143.000 L 257.760 145.400 261.079 152.960 C 263.671 158.865,264.298 160.641,263.940 161.073 C 263.588 161.496,263.624 161.739,264.093 162.113 C 271.255 167.823,273.688 168.789,280.920 168.797 C 285.896 168.803,287.337 167.032,287.755 160.400 C 288.451 149.371,285.936 142.910,275.593 129.153 C 273.671 126.597,271.930 124.204,271.724 123.835 C 271.316 123.107,267.943 122.567,236.600 118.215 C 227.800 116.993,218.890 115.701,216.800 115.343 C 212.338 114.581,203.157 114.381,191.800 114.799 M396.400 118.044 C 394.530 118.179,391.740 118.398,390.200 118.532 C 388.660 118.665,385.870 118.878,384.000 119.004 C 382.130 119.129,378.620 119.413,376.200 119.633 C 373.780 119.854,368.110 120.289,363.600 120.601 C 359.090 120.913,352.689 121.384,349.375 121.648 L 343.351 122.129 339.933 126.965 C 333.220 136.461,333.340 136.086,332.812 149.306 C 332.581 155.078,332.214 164.247,331.995 169.683 C 331.486 182.356,331.801 184.803,334.779 191.324 C 335.401 192.686,336.026 194.186,336.168 194.657 C 336.487 195.713,337.447 195.988,340.851 195.995 L 343.503 196.000 345.293 193.900 L 347.083 191.800 347.751 186.200 C 350.671 161.753,359.316 142.449,369.478 137.688 C 373.027 136.025,383.466 135.813,385.602 137.361 C 386.371 137.918,387.360 138.633,387.800 138.951 C 388.468 139.434,399.538 140.959,399.906 140.619 C 399.965 140.565,399.965 135.409,399.906 129.160 L 399.800 117.800 396.400 118.044 M286.200 171.362 C 278.114 173.933,258.246 191.644,249.659 203.935 C 245.003 210.600,237.049 228.407,232.924 241.400 C 227.009 260.034,225.372 264.478,221.801 271.598 C 217.275 280.623,212.897 285.946,204.200 293.000 C 189.515 304.909,181.016 315.986,180.141 324.357 C 179.876 326.900,179.154 327.864,177.882 327.376 C 177.165 327.101,176.813 328.288,176.805 330.999 C 176.802 332.098,176.278 334.618,175.640 336.599 C 175.002 338.580,173.723 342.720,172.798 345.800 C 171.873 348.880,170.612 353.020,169.996 355.000 C 164.318 373.264,161.268 389.851,162.980 393.160 C 164.885 396.844,170.831 398.768,174.969 397.039 C 179.744 395.044,186.037 385.733,196.625 365.000 C 199.659 359.060,202.853 353.030,203.724 351.600 C 207.001 346.221,210.618 339.973,214.490 333.000 C 224.940 314.183,228.996 308.186,239.921 295.400 C 247.686 286.313,253.673 275.175,256.205 265.108 C 260.513 247.977,266.203 237.139,279.364 221.000 C 280.799 219.240,284.125 215.092,286.754 211.782 L 291.535 205.765 291.961 202.698 C 292.196 201.012,292.950 197.605,293.638 195.128 C 295.782 187.402,296.007 175.453,294.058 172.800 C 292.592 170.806,289.646 170.267,286.200 171.362 M343.452 218.999 C 338.641 222.154,334.518 224.922,334.290 225.150 C 333.815 225.625,333.928 225.760,343.585 236.200 C 347.247 240.160,354.448 247.990,359.586 253.600 C 364.724 259.210,370.114 265.060,371.565 266.600 C 373.016 268.140,378.868 274.485,384.570 280.700 C 390.271 286.915,395.008 292.000,395.097 292.000 C 395.185 292.000,396.322 291.415,397.624 290.700 L 399.991 289.400 399.995 275.496 L 400.000 261.591 397.985 258.376 C 385.457 238.385,359.236 212.389,352.450 213.231 C 352.312 213.248,348.263 215.844,343.452 218.999 M320.022 235.677 L 318.286 236.953 318.530 241.377 C 319.206 253.598,321.564 259.236,331.136 271.518 C 333.485 274.533,336.696 278.800,338.271 281.000 C 339.845 283.200,342.270 286.350,343.660 288.000 C 351.144 296.887,353.746 300.993,358.174 310.901 C 360.839 316.862,373.131 341.581,376.723 348.200 C 386.246 365.749,392.083 374.945,399.291 383.755 C 399.948 384.558,399.983 383.405,399.991 360.702 L 400.000 336.804 393.713 327.302 C 385.975 315.605,383.236 311.745,381.148 309.594 C 379.801 308.206,379.474 307.545,379.205 305.663 C 377.921 296.681,369.888 278.013,362.511 266.866 C 360.007 263.083,343.150 245.810,338.000 241.750 C 328.937 234.606,323.826 232.879,320.022 235.677 M294.531 236.439 C 292.346 237.072,288.294 240.100,286.288 242.600 C 284.155 245.258,283.008 247.218,278.871 255.279 C 273.330 266.078,272.641 267.059,264.148 276.230 C 257.216 283.717,253.940 288.019,251.834 292.400 L 250.200 295.800 250.200 300.800 C 250.200 309.127,252.895 312.431,260.447 313.366 C 267.174 314.199,278.725 305.063,293.080 287.558 C 309.181 267.924,313.352 256.258,307.549 247.093 C 305.389 243.680,297.289 235.876,296.074 236.036 C 295.923 236.056,295.229 236.237,294.531 236.439 M398.614 308.385 C 398.223 308.817,397.295 309.371,396.552 309.616 C 395.808 309.861,395.200 310.211,395.200 310.394 C 395.200 310.895,397.356 315.513,398.751 318.000 L 399.986 320.200 399.993 313.900 C 400.000 307.497,399.874 306.992,398.614 308.385 M237.800 316.179 C 235.034 317.406,231.542 322.007,225.185 332.800 C 218.342 344.419,215.183 348.615,212.000 350.318 C 210.311 351.222,209.467 353.512,203.808 372.563 C 202.133 378.200,201.772 377.539,206.699 377.853 L 210.736 378.111 210.868 376.955 C 210.996 375.835,211.081 375.794,213.640 375.600 C 219.904 375.125,241.151 355.751,245.764 346.306 C 247.340 343.079,246.800 317.589,245.126 316.215 C 244.566 315.755,238.818 315.727,237.800 316.179 " stroke="none" fill="#258dcc" fill-rule="evenodd"></path><path id="path1" d="M0.000 200.000 L 0.000 400.000 200.000 400.000 L 400.000 400.000 400.000 392.754 L 400.000 385.509 398.058 383.254 C 393.273 377.702,384.656 364.264,378.273 352.400 C 377.385 350.750,375.982 348.140,375.154 346.600 C 372.375 341.430,358.503 313.433,357.218 310.400 C 355.250 305.755,352.869 301.270,350.742 298.200 C 348.750 295.324,348.190 294.604,342.451 287.529 C 340.610 285.258,337.949 281.780,336.538 279.800 C 335.128 277.820,333.395 275.457,332.687 274.549 C 331.979 273.642,330.190 271.351,328.712 269.458 C 321.227 259.879,318.718 253.354,318.123 241.921 C 317.586 231.599,324.741 230.707,336.277 239.659 C 341.365 243.609,343.386 245.428,349.535 251.600 C 361.940 264.051,364.432 267.400,370.370 279.600 C 370.852 280.590,371.530 281.940,371.878 282.600 C 374.603 287.777,379.465 301.642,379.830 305.276 C 379.989 306.864,380.307 308.032,380.610 308.149 C 381.818 308.612,386.120 314.608,395.956 329.539 L 400.000 335.679 400.000 328.371 C 400.000 322.713,399.875 320.920,399.446 320.431 C 398.627 319.498,394.398 311.060,394.410 310.382 C 394.416 310.062,395.673 309.196,397.210 308.455 L 400.000 307.109 400.000 298.506 C 400.000 291.673,399.897 289.986,399.500 290.308 C 395.895 293.238,395.090 293.029,390.352 287.938 C 388.068 285.484,386.012 283.279,385.783 283.038 C 385.554 282.797,383.407 280.440,381.014 277.800 C 378.620 275.160,376.544 272.910,376.401 272.800 C 376.258 272.690,375.181 271.520,374.009 270.200 C 372.836 268.880,369.948 265.730,367.590 263.200 C 365.233 260.670,358.848 253.740,353.401 247.800 C 347.954 241.860,342.562 236.010,341.417 234.800 C 336.204 229.290,333.200 225.850,333.200 225.390 C 333.200 225.115,334.775 223.890,336.700 222.667 C 338.625 221.445,340.740 220.065,341.400 219.602 C 342.060 219.139,344.040 217.848,345.800 216.733 C 347.560 215.617,349.766 214.174,350.702 213.526 C 352.636 212.187,352.807 212.207,356.786 214.252 C 359.239 215.512,360.464 216.353,366.275 220.765 C 372.419 225.431,387.656 242.081,393.600 250.626 C 395.540 253.415,398.775 258.372,399.325 259.400 C 399.918 260.507,399.969 255.983,399.984 201.124 C 399.993 168.412,399.849 141.554,399.663 141.439 C 399.478 141.325,396.846 141.012,393.815 140.743 C 388.466 140.270,388.255 140.216,386.710 138.925 C 382.389 135.314,370.688 136.590,365.470 141.241 C 359.752 146.337,354.531 156.939,351.408 169.800 C 349.291 178.515,349.083 179.775,348.187 189.326 C 347.939 191.967,347.860 192.126,345.665 194.420 L 343.400 196.788 339.842 196.494 C 337.311 196.285,336.194 196.027,335.971 195.600 C 331.092 186.237,330.673 183.024,331.613 162.200 C 331.841 157.140,332.171 149.580,332.347 145.400 L 332.667 137.800 334.184 134.800 C 335.019 133.150,336.804 130.274,338.151 128.409 C 339.498 126.544,341.083 124.262,341.673 123.338 C 342.895 121.424,343.013 121.393,350.600 121.008 C 353.020 120.886,356.530 120.609,358.400 120.394 C 362.754 119.893,374.424 118.956,386.400 118.147 C 391.570 117.797,396.745 117.425,397.900 117.319 L 400.000 117.126 400.000 112.663 L 400.001 108.200 396.100 108.297 C 393.955 108.350,388.060 108.576,383.000 108.799 C 377.940 109.022,366.349 109.398,357.242 109.635 C 348.134 109.871,340.244 110.231,339.708 110.435 C 338.175 111.018,336.981 109.186,334.757 102.837 C 331.415 93.294,338.121 89.745,365.800 86.410 C 369.853 85.921,382.764 85.201,392.500 84.920 L 400.000 84.704 400.000 42.352 L 400.000 0.000 200.000 0.000 L 0.000 0.000 0.000 200.000 M308.000 13.174 C 323.908 14.311,335.644 19.145,340.595 26.600 C 343.778 31.393,343.662 39.993,340.400 41.051 C 337.876 41.869,316.884 40.972,310.697 39.782 C 301.357 37.985,299.208 39.490,299.990 47.283 C 301.192 59.258,301.627 63.333,302.009 66.200 C 302.243 67.960,302.692 72.190,303.005 75.600 C 303.318 79.010,303.784 83.714,304.041 86.052 C 304.600 91.150,304.388 92.547,302.760 94.522 C 298.109 100.165,289.881 98.776,284.490 91.439 C 270.391 72.251,267.727 42.886,278.558 26.053 C 280.628 22.837,285.990 17.200,286.981 17.200 C 287.321 17.200,287.600 17.059,287.600 16.886 C 287.600 15.372,298.077 12.261,301.800 12.670 C 302.680 12.767,305.470 12.994,308.000 13.174 M205.645 85.246 C 207.038 85.534,215.862 85.734,230.600 85.812 C 243.140 85.878,255.020 86.115,257.000 86.339 C 258.980 86.563,262.400 86.947,264.600 87.192 C 282.610 89.201,289.791 94.694,287.264 104.529 C 285.967 109.576,274.501 112.249,262.107 110.395 C 260.618 110.172,256.610 109.725,253.200 109.402 C 249.790 109.079,244.480 108.456,241.400 108.018 C 227.537 106.045,220.678 106.159,193.200 108.816 C 190.670 109.060,184.730 109.516,180.000 109.828 C 169.824 110.499,163.092 111.014,156.800 111.603 C 151.507 112.099,137.054 113.189,131.889 113.481 C 129.592 113.612,128.191 113.525,127.835 113.229 C 127.537 112.981,126.067 112.365,124.569 111.860 L 121.845 110.941 121.954 106.771 C 122.112 100.768,123.288 99.022,129.800 95.130 C 135.349 91.813,135.419 91.794,145.600 90.841 C 150.770 90.358,155.810 89.790,156.800 89.580 C 160.938 88.704,170.788 87.546,176.875 87.220 C 180.464 87.028,185.290 86.591,187.600 86.249 C 197.894 84.725,202.022 84.496,205.645 85.246 M213.000 114.226 C 220.474 115.244,228.832 116.424,232.600 116.992 C 234.580 117.290,239.170 117.911,242.800 118.371 C 249.027 119.160,251.466 119.529,256.200 120.399 C 257.300 120.601,260.810 121.052,264.000 121.401 C 271.760 122.252,271.245 122.056,273.220 124.892 C 274.182 126.271,275.805 128.480,276.828 129.800 C 282.172 136.699,285.507 142.307,286.589 146.217 C 286.952 147.527,287.405 148.960,287.595 149.400 C 289.162 153.027,288.862 163.333,287.095 166.564 C 284.327 171.625,272.935 170.269,265.300 163.970 C 262.935 162.019,262.296 161.035,263.200 160.733 C 263.576 160.608,262.328 156.713,261.618 155.800 C 261.448 155.580,260.812 154.140,260.205 152.600 C 257.807 146.510,257.301 145.819,253.922 144.035 C 248.610 141.228,248.203 140.956,248.080 140.127 C 247.911 138.988,244.383 138.810,221.400 138.778 C 211.060 138.764,197.920 138.607,192.200 138.430 L 181.800 138.107 177.052 135.553 C 174.440 134.149,171.290 132.456,170.052 131.791 C 163.540 128.296,160.990 125.225,161.421 121.400 C 161.739 118.571,161.817 118.400,162.790 118.400 C 163.199 118.400,164.734 117.763,166.201 116.985 C 168.777 115.618,169.080 115.557,174.955 115.203 C 178.302 115.001,181.340 114.721,181.706 114.581 C 182.247 114.373,192.242 114.007,206.400 113.677 C 207.610 113.649,210.580 113.896,213.000 114.226 M293.294 171.138 C 296.567 173.015,296.995 187.303,294.045 196.214 C 293.387 198.202,292.724 201.202,292.572 202.882 L 292.296 205.935 287.243 212.268 C 282.028 218.805,281.437 219.534,279.387 221.963 C 278.719 222.753,277.639 224.104,276.987 224.966 C 276.334 225.827,275.136 227.391,274.324 228.442 C 266.497 238.575,261.072 249.288,258.391 259.908 C 257.538 263.287,256.887 265.472,256.397 266.600 C 256.206 267.040,255.750 268.480,255.385 269.800 C 255.020 271.120,254.367 272.920,253.934 273.800 C 253.501 274.680,252.831 276.216,252.445 277.212 C 250.282 282.799,245.720 289.597,237.692 299.200 C 230.211 308.149,230.901 307.251,227.200 312.840 C 226.007 314.642,221.641 321.710,219.813 324.800 C 219.097 326.010,216.927 329.880,214.991 333.400 C 210.365 341.809,210.188 342.122,209.067 343.888 C 206.273 348.289,202.585 354.854,199.161 361.523 C 197.049 365.635,194.363 370.800,193.192 373.000 C 192.021 375.200,190.791 377.540,190.458 378.200 C 187.714 383.635,181.552 392.413,178.431 395.333 C 175.874 397.724,175.098 398.000,170.928 398.000 C 163.128 398.000,160.390 393.157,162.408 382.932 C 162.661 381.649,163.115 379.250,163.417 377.600 C 163.975 374.549,165.693 367.746,167.457 361.600 C 167.993 359.730,168.794 356.850,169.237 355.200 C 170.019 352.284,170.938 349.430,171.619 347.800 C 171.803 347.360,172.315 345.516,172.757 343.702 C 173.199 341.888,173.834 339.818,174.169 339.102 C 175.116 337.077,175.987 332.843,176.000 330.200 C 176.015 327.345,176.234 326.915,177.769 326.736 C 178.845 326.610,178.973 326.415,179.434 324.200 C 181.673 313.442,188.720 304.777,208.357 288.633 C 213.408 284.480,219.854 275.273,222.855 267.922 C 223.456 266.449,224.171 264.829,224.442 264.322 C 225.250 262.813,227.899 255.336,229.657 249.600 C 230.096 248.170,230.560 246.730,230.688 246.400 C 230.816 246.070,231.322 244.360,231.811 242.600 C 232.755 239.204,235.498 231.476,236.753 228.677 C 237.166 227.755,237.642 226.550,237.810 226.000 C 238.492 223.765,244.042 212.140,246.499 207.800 C 249.802 201.966,253.311 197.866,264.991 186.197 C 278.543 172.658,287.568 167.855,293.294 171.138 M298.440 236.860 C 300.379 238.249,301.965 239.676,304.596 242.400 C 314.901 253.069,312.399 264.573,295.069 286.200 C 281.013 303.741,268.626 314.000,261.501 314.000 C 253.396 314.000,249.351 309.439,249.442 300.400 C 249.518 292.837,252.409 287.826,263.600 275.855 C 265.250 274.090,266.960 272.260,267.400 271.788 C 271.476 267.416,273.443 264.362,278.675 254.283 C 284.712 242.652,288.030 238.506,292.876 236.537 C 295.765 235.364,296.402 235.401,298.440 236.860 M245.790 315.969 C 247.117 320.151,248.011 342.397,246.963 345.173 C 243.508 354.327,220.190 376.190,214.032 376.051 L 211.651 375.997 211.525 377.299 L 211.400 378.600 206.863 378.543 C 201.415 378.475,201.323 378.410,202.331 375.357 C 202.758 374.060,203.604 371.200,204.211 369.000 C 204.818 366.800,205.448 364.820,205.610 364.600 C 205.773 364.380,206.182 363.030,206.520 361.600 C 208.221 354.409,210.004 350.370,211.823 349.590 C 214.609 348.396,217.844 344.111,224.195 333.200 C 225.924 330.230,227.637 327.350,228.001 326.800 C 235.217 315.911,236.060 315.206,241.873 315.202 C 245.146 315.200,245.573 315.284,245.790 315.969 " stroke="none" fill="#fbfbfc" fill-rule="evenodd"></path><path id="path2" d="M298.600 13.239 C 297.720 13.375,299.520 13.491,302.600 13.497 C 305.680 13.503,307.930 13.449,307.600 13.377 C 306.320 13.099,300.119 13.003,298.600 13.239 M310.100 13.876 C 310.485 13.976,311.115 13.976,311.500 13.876 C 311.885 13.775,311.570 13.693,310.800 13.693 C 310.030 13.693,309.715 13.775,310.100 13.876 M291.253 15.016 C 289.472 15.789,284.303 19.236,284.552 19.485 C 284.659 19.593,285.437 19.126,286.280 18.449 C 287.123 17.771,289.070 16.584,290.606 15.810 C 293.397 14.404,293.799 13.911,291.253 15.016 M317.000 14.857 C 318.966 15.318,323.584 16.462,324.400 16.692 C 324.933 16.842,324.933 16.818,324.400 16.476 C 323.602 15.965,317.269 14.389,316.224 14.441 C 315.771 14.464,316.120 14.651,317.000 14.857 M327.546 17.816 C 328.286 18.137,329.006 18.394,329.146 18.386 C 329.666 18.357,327.376 17.228,326.800 17.230 C 326.470 17.231,326.806 17.494,327.546 17.816 M281.878 22.100 C 278.404 26.191,274.978 32.495,274.216 36.200 C 274.081 36.860,274.488 36.050,275.123 34.400 C 277.097 29.263,280.049 24.310,282.390 22.204 C 283.263 21.419,284.200 20.000,283.845 20.000 C 283.744 20.000,282.859 20.945,281.878 22.100 M332.800 20.122 C 332.800 20.201,333.694 20.844,334.786 21.552 C 335.878 22.260,337.607 23.775,338.628 24.920 C 339.648 26.064,340.291 26.619,340.056 26.153 C 339.264 24.584,332.800 19.211,332.800 20.122 M341.273 29.295 C 341.917 30.990,342.043 32.134,341.935 35.282 C 341.769 40.056,341.448 40.497,337.886 40.839 L 335.400 41.078 337.678 41.139 C 341.393 41.238,342.163 40.299,342.338 35.453 C 342.471 31.766,341.753 27.989,340.808 27.405 C 340.626 27.292,340.835 28.143,341.273 29.295 M273.239 39.592 C 272.998 40.718,272.817 42.036,272.838 42.520 C 272.858 43.004,273.123 42.150,273.427 40.622 C 273.730 39.095,273.911 37.777,273.828 37.695 C 273.746 37.612,273.481 38.466,273.239 39.592 M303.719 38.619 C 302.696 39.053,302.771 39.079,304.600 38.914 C 307.330 38.668,307.617 38.559,306.119 38.335 C 305.415 38.230,304.335 38.358,303.719 38.619 M313.600 39.995 C 315.074 40.393,332.744 41.060,332.400 40.705 C 332.290 40.591,328.600 40.379,324.200 40.234 C 319.800 40.088,315.300 39.890,314.200 39.793 C 312.373 39.632,312.321 39.650,313.600 39.995 M272.531 46.200 C 272.533 47.740,272.605 48.321,272.692 47.491 C 272.779 46.661,272.777 45.401,272.689 44.691 C 272.600 43.981,272.529 44.660,272.531 46.200 M299.301 46.600 C 299.305 47.480,299.387 47.793,299.483 47.295 C 299.579 46.798,299.575 46.078,299.475 45.695 C 299.375 45.313,299.296 45.720,299.301 46.600 M299.685 50.000 C 299.677 50.770,299.810 52.300,299.982 53.400 C 300.285 55.348,300.294 55.359,300.317 53.800 C 300.330 52.920,300.197 51.390,300.020 50.400 C 299.725 48.742,299.699 48.711,299.685 50.000 M272.124 54.600 C 272.126 55.920,272.201 56.412,272.290 55.693 C 272.379 54.974,272.377 53.894,272.286 53.293 C 272.195 52.692,272.122 53.280,272.124 54.600 M300.509 57.600 C 300.509 58.590,300.587 58.995,300.682 58.500 C 300.778 58.005,300.778 57.195,300.682 56.700 C 300.587 56.205,300.509 56.610,300.509 57.600 M272.632 60.400 C 272.884 62.913,273.609 66.524,273.819 66.314 C 273.897 66.237,273.611 64.379,273.185 62.187 C 272.740 59.894,272.505 59.135,272.632 60.400 M301.062 63.320 C 301.305 66.930,301.899 70.869,301.919 69.000 C 301.926 68.340,301.689 66.090,301.392 64.000 L 300.853 60.200 301.062 63.320 M274.068 67.400 C 274.062 67.840,274.211 68.560,274.400 69.000 C 274.838 70.019,274.838 68.968,274.400 67.600 C 274.143 66.796,274.077 66.757,274.068 67.400 M302.109 73.200 C 302.109 74.190,302.187 74.595,302.282 74.100 C 302.378 73.605,302.378 72.795,302.282 72.300 C 302.187 71.805,302.109 72.210,302.109 73.200 M275.648 72.800 C 275.642 73.130,275.883 73.940,276.186 74.600 C 276.893 76.145,276.903 75.426,276.200 73.600 C 275.903 72.830,275.655 72.470,275.648 72.800 M302.485 76.800 C 302.477 77.570,302.610 79.100,302.782 80.200 C 303.085 82.148,303.094 82.159,303.117 80.600 C 303.130 79.720,302.997 78.190,302.820 77.200 C 302.525 75.542,302.499 75.511,302.485 76.800 M276.828 76.092 C 276.782 76.565,278.086 79.648,278.258 79.475 C 278.345 79.388,278.066 78.525,277.637 77.558 C 277.208 76.591,276.844 75.931,276.828 76.092 M278.800 80.947 C 278.800 81.380,280.788 85.200,281.013 85.200 C 281.123 85.200,280.739 84.255,280.159 83.100 C 279.043 80.879,278.800 80.494,278.800 80.947 M303.301 84.200 C 303.305 85.080,303.387 85.393,303.483 84.895 C 303.579 84.398,303.575 83.678,303.475 83.295 C 303.375 82.913,303.296 83.320,303.301 84.200 M194.400 85.568 C 192.526 85.775,193.586 85.848,198.200 85.828 C 201.720 85.813,206.400 85.920,208.600 86.066 C 211.200 86.239,211.830 86.217,210.400 86.004 C 207.074 85.508,197.340 85.243,194.400 85.568 M390.300 85.498 C 392.115 85.572,395.085 85.572,396.900 85.498 C 398.715 85.423,397.230 85.363,393.600 85.363 C 389.970 85.363,388.485 85.423,390.300 85.498 M375.000 85.999 C 373.680 86.144,375.750 86.179,379.600 86.076 C 383.450 85.973,386.675 85.824,386.767 85.744 C 387.039 85.508,377.601 85.712,375.000 85.999 M228.900 86.299 C 231.925 86.367,236.875 86.367,239.900 86.299 C 242.925 86.231,240.450 86.175,234.400 86.175 C 228.350 86.175,225.875 86.231,228.900 86.299 M250.700 86.693 C 251.635 86.777,253.165 86.777,254.100 86.693 C 255.035 86.609,254.270 86.540,252.400 86.540 C 250.530 86.540,249.765 86.609,250.700 86.693 M282.166 87.534 C 282.863 88.883,285.724 92.587,287.171 94.016 C 289.589 96.403,289.578 95.943,287.156 93.385 C 285.701 91.850,283.931 89.650,283.221 88.497 C 281.839 86.250,281.201 85.668,282.166 87.534 M368.105 86.687 C 368.714 86.779,369.614 86.777,370.105 86.682 C 370.597 86.587,370.100 86.511,369.000 86.514 C 367.900 86.517,367.497 86.595,368.105 86.687 M183.993 87.058 C 183.660 87.149,181.050 87.387,178.193 87.587 L 173.000 87.951 178.400 87.765 C 182.935 87.608,189.005 86.869,185.600 86.887 C 185.050 86.890,184.327 86.967,183.993 87.058 M260.600 87.392 C 265.404 87.998,267.526 88.093,265.000 87.588 C 264.120 87.413,261.780 87.172,259.800 87.053 L 256.200 86.837 260.600 87.392 M303.693 88.000 C 303.693 88.770,303.775 89.085,303.876 88.700 C 303.976 88.315,303.976 87.685,303.876 87.300 C 303.775 86.915,303.693 87.230,303.693 88.000 M360.200 87.394 C 358.440 87.666,357.540 87.897,358.200 87.909 C 358.860 87.921,361.020 87.699,363.000 87.416 C 364.980 87.132,365.880 86.901,365.000 86.901 C 364.120 86.901,361.960 87.123,360.200 87.394 M165.600 88.533 C 163.950 88.767,162.960 89.013,163.400 89.080 C 163.840 89.146,166.000 88.949,168.200 88.641 C 170.470 88.324,171.421 88.088,170.400 88.095 C 169.410 88.102,167.250 88.299,165.600 88.533 M269.400 88.624 C 270.720 88.921,272.070 89.152,272.400 89.135 C 273.338 89.088,269.122 88.076,268.000 88.079 C 267.450 88.081,268.080 88.326,269.400 88.624 M351.400 88.800 C 350.330 89.072,350.308 89.105,351.200 89.105 C 351.750 89.105,352.740 88.968,353.400 88.800 C 354.470 88.528,354.492 88.495,353.600 88.495 C 353.050 88.495,352.060 88.632,351.400 88.800 M160.500 89.476 C 160.885 89.576,161.515 89.576,161.900 89.476 C 162.285 89.375,161.970 89.293,161.200 89.293 C 160.430 89.293,160.115 89.375,160.500 89.476 M277.200 90.570 C 282.309 92.360,285.440 94.482,286.405 96.811 C 286.681 97.479,286.987 97.947,287.083 97.850 C 287.441 97.492,285.996 95.279,284.609 94.062 C 282.536 92.241,276.657 89.519,275.037 89.630 C 274.797 89.646,275.770 90.069,277.200 90.570 M152.600 90.400 C 151.253 90.641,151.190 90.691,152.200 90.714 C 152.860 90.729,154.210 90.597,155.200 90.420 C 156.815 90.133,156.856 90.101,155.600 90.107 C 154.830 90.111,153.480 90.242,152.600 90.400 M344.600 90.400 C 344.096 90.617,344.022 90.744,344.400 90.744 C 344.730 90.744,345.360 90.589,345.800 90.400 C 346.304 90.183,346.378 90.056,346.000 90.056 C 345.670 90.056,345.040 90.211,344.600 90.400 M148.705 91.083 C 149.202 91.179,149.922 91.175,150.305 91.075 C 150.687 90.975,150.280 90.896,149.400 90.901 C 148.520 90.905,148.207 90.987,148.705 91.083 M341.000 91.629 C 340.120 92.052,339.838 92.286,340.374 92.149 C 341.839 91.773,343.886 90.829,343.200 90.845 C 342.870 90.853,341.880 91.206,341.000 91.629 M140.203 91.499 C 138.225 91.573,136.478 91.762,136.321 91.919 C 136.043 92.197,146.015 91.771,147.200 91.453 C 147.856 91.278,145.748 91.292,140.203 91.499 M302.304 94.044 C 301.701 94.900,301.287 95.600,301.383 95.600 C 301.669 95.600,303.726 92.792,303.556 92.633 C 303.470 92.554,302.907 93.188,302.304 94.044 M337.536 93.209 C 335.044 94.525,334.388 95.715,334.478 98.754 L 334.557 101.400 334.696 98.731 C 334.840 95.970,335.653 94.771,338.632 92.924 C 339.836 92.177,339.153 92.354,337.536 93.209 M132.700 93.826 C 131.655 94.370,130.800 94.905,130.800 95.014 C 130.800 95.124,131.700 94.757,132.800 94.200 C 133.900 93.643,134.800 93.100,134.800 92.993 C 134.800 92.729,134.836 92.714,132.700 93.826 M129.400 95.667 C 125.156 98.013,122.372 101.363,122.456 104.022 L 122.513 105.800 122.763 103.800 C 123.086 101.219,124.289 99.634,127.688 97.312 C 129.180 96.293,130.400 95.401,130.400 95.329 C 130.400 95.139,130.282 95.179,129.400 95.667 M299.000 96.422 C 297.057 97.341,293.344 97.438,291.387 96.620 C 290.624 96.302,290.000 96.131,290.000 96.241 C 290.000 96.791,293.044 97.599,295.087 97.591 C 297.163 97.583,300.800 96.455,300.800 95.820 C 300.800 95.552,300.933 95.507,299.000 96.422 M334.818 102.150 C 334.792 102.650,336.887 107.246,337.062 107.071 C 337.142 106.991,336.674 105.772,336.022 104.363 C 335.370 102.953,334.828 101.957,334.818 102.150 M285.869 105.917 C 285.247 106.925,285.033 107.504,285.395 107.204 C 286.074 106.641,287.359 104.419,287.129 104.205 C 287.058 104.139,286.491 104.909,285.869 105.917 M122.166 108.384 L 122.200 110.967 123.706 111.279 C 124.535 111.450,125.922 111.952,126.790 112.395 C 127.658 112.838,128.600 113.195,128.884 113.189 C 129.753 113.170,124.260 110.823,123.319 110.811 C 122.523 110.801,122.423 110.559,122.285 108.300 L 122.133 105.800 122.166 108.384 M215.200 106.400 L 212.600 106.662 215.000 106.681 C 216.320 106.692,218.660 106.571,220.200 106.413 L 223.000 106.126 220.400 106.132 C 218.970 106.135,216.630 106.256,215.200 106.400 M232.000 106.594 C 237.057 107.202,239.087 107.287,236.600 106.786 C 235.720 106.608,233.290 106.368,231.200 106.252 L 227.400 106.041 232.000 106.594 M209.705 107.087 C 210.314 107.179,211.214 107.177,211.705 107.082 C 212.197 106.987,211.700 106.911,210.600 106.914 C 209.500 106.917,209.097 106.995,209.705 107.087 M203.507 107.490 C 204.226 107.579,205.306 107.577,205.907 107.486 C 206.508 107.395,205.920 107.322,204.600 107.324 C 203.280 107.326,202.788 107.401,203.507 107.490 M239.700 107.476 C 240.085 107.576,240.715 107.576,241.100 107.476 C 241.485 107.375,241.170 107.293,240.400 107.293 C 239.630 107.293,239.315 107.375,239.700 107.476 M191.800 108.223 L 186.600 108.729 191.200 108.522 C 193.730 108.408,196.970 108.179,198.400 108.012 C 202.999 107.477,197.750 107.644,191.800 108.223 M283.061 108.249 C 282.435 108.588,280.815 109.107,279.461 109.401 C 278.108 109.696,277.462 109.951,278.027 109.968 C 279.388 110.010,282.811 108.978,283.807 108.225 C 284.826 107.455,284.509 107.465,283.061 108.249 M382.000 108.048 C 377.050 108.227,372.100 108.446,371.000 108.536 C 367.843 108.791,387.999 108.331,394.000 108.010 L 399.400 107.722 395.200 107.722 C 392.890 107.723,386.950 107.869,382.000 108.048 M247.000 108.418 C 249.747 108.846,252.031 108.812,249.600 108.380 C 248.610 108.203,247.170 108.070,246.400 108.083 C 245.255 108.103,245.365 108.164,247.000 108.418 M176.400 109.351 C 173.650 109.587,171.940 109.830,172.600 109.893 C 173.260 109.955,176.680 109.758,180.200 109.455 C 183.720 109.152,185.430 108.908,184.000 108.913 C 182.570 108.918,179.150 109.115,176.400 109.351 M252.305 109.083 C 252.802 109.179,253.522 109.175,253.905 109.075 C 254.287 108.975,253.880 108.896,253.000 108.901 C 252.120 108.905,251.807 108.987,252.305 109.083 M357.318 109.098 C 359.033 109.173,361.733 109.172,363.318 109.097 C 364.903 109.021,363.500 108.959,360.200 108.960 C 356.900 108.961,355.603 109.022,357.318 109.098 M256.800 109.617 C 258.010 109.784,259.720 109.913,260.600 109.904 C 261.983 109.890,261.901 109.846,260.000 109.583 C 258.790 109.416,257.080 109.287,256.200 109.296 C 254.817 109.310,254.899 109.354,256.800 109.617 M341.600 109.581 C 340.610 109.724,342.860 109.773,346.600 109.688 C 350.340 109.603,353.580 109.473,353.800 109.399 C 354.533 109.150,343.428 109.316,341.600 109.581 M167.705 110.287 C 168.314 110.379,169.214 110.377,169.705 110.282 C 170.197 110.187,169.700 110.111,168.600 110.114 C 167.500 110.117,167.097 110.195,167.705 110.287 M266.920 110.298 C 268.855 110.372,271.915 110.371,273.720 110.297 C 275.524 110.223,273.940 110.163,270.200 110.164 C 266.460 110.164,264.984 110.225,266.920 110.298 M162.100 110.687 C 162.705 110.778,163.695 110.778,164.300 110.687 C 164.905 110.595,164.410 110.520,163.200 110.520 C 161.990 110.520,161.495 110.595,162.100 110.687 M153.200 111.200 L 150.600 111.462 152.800 111.481 C 154.010 111.492,156.260 111.371,157.800 111.213 L 160.600 110.926 158.200 110.932 C 156.880 110.935,154.630 111.056,153.200 111.200 M147.107 111.890 C 147.826 111.979,148.906 111.977,149.507 111.886 C 150.108 111.795,149.520 111.722,148.200 111.724 C 146.880 111.726,146.388 111.801,147.107 111.890 M136.400 112.448 C 130.521 112.920,129.754 113.178,135.000 112.920 C 140.606 112.643,145.662 112.104,142.600 112.108 C 141.500 112.110,138.710 112.263,136.400 112.448 M203.916 114.297 C 205.299 114.375,207.459 114.374,208.716 114.295 C 209.972 114.216,208.840 114.152,206.200 114.153 C 203.560 114.153,202.532 114.218,203.916 114.297 M190.319 114.698 C 192.144 114.772,195.024 114.772,196.719 114.697 C 198.414 114.622,196.920 114.561,193.400 114.562 C 189.880 114.562,188.494 114.624,190.319 114.698 M211.700 114.676 C 212.085 114.776,212.715 114.776,213.100 114.676 C 213.485 114.575,213.170 114.493,212.400 114.493 C 211.630 114.493,211.315 114.575,211.700 114.676 M182.505 115.087 C 183.114 115.179,184.014 115.177,184.505 115.082 C 184.997 114.987,184.500 114.911,183.400 114.914 C 182.300 114.917,181.897 114.995,182.505 115.087 M215.600 115.215 C 216.370 115.399,218.170 115.642,219.600 115.755 L 222.200 115.961 219.000 115.411 C 215.494 114.807,213.377 114.686,215.600 115.215 M171.297 115.627 C 169.137 115.908,165.328 117.461,165.754 117.887 C 165.834 117.967,166.507 117.678,167.250 117.246 C 168.973 116.241,170.527 115.967,176.529 115.611 L 181.400 115.321 177.600 115.311 C 175.510 115.306,172.674 115.448,171.297 115.627 M222.900 116.276 C 223.285 116.376,223.915 116.376,224.300 116.276 C 224.685 116.175,224.370 116.093,223.600 116.093 C 222.830 116.093,222.515 116.175,222.900 116.276 M226.800 116.820 C 227.790 116.997,229.140 117.132,229.800 117.120 C 230.685 117.105,230.528 117.016,229.200 116.780 C 228.210 116.603,226.860 116.468,226.200 116.480 C 225.315 116.495,225.472 116.584,226.800 116.820 M396.500 117.887 C 397.105 117.978,398.095 117.978,398.700 117.887 C 399.305 117.795,398.810 117.720,397.600 117.720 C 396.390 117.720,395.895 117.795,396.500 117.887 M239.600 118.625 C 241.250 118.914,243.140 119.140,243.800 119.127 C 244.460 119.115,243.560 118.869,241.800 118.582 C 240.040 118.295,238.150 118.069,237.600 118.080 C 237.050 118.092,237.950 118.337,239.600 118.625 M385.600 118.442 C 379.834 118.946,378.949 119.154,383.400 118.958 C 388.709 118.725,393.760 118.340,393.967 118.152 C 394.222 117.919,389.839 118.072,385.600 118.442 M161.980 119.500 C 161.968 119.885,161.863 120.951,161.746 121.869 C 161.342 125.028,164.044 128.260,169.365 130.986 C 171.525 132.092,171.254 131.857,167.742 129.577 C 162.805 126.372,161.618 124.423,162.332 120.700 C 162.537 119.633,162.544 118.800,162.348 118.800 C 162.157 118.800,161.991 119.115,161.980 119.500 M246.600 119.574 C 247.480 119.759,249.370 120.013,250.800 120.137 C 252.770 120.308,253.012 120.281,251.800 120.026 C 250.920 119.841,249.030 119.587,247.600 119.463 C 245.630 119.292,245.388 119.319,246.600 119.574 M369.200 119.829 L 363.800 120.335 368.600 120.127 C 371.240 120.013,374.570 119.782,376.000 119.614 C 380.525 119.084,375.426 119.244,369.200 119.829 M360.300 120.682 C 360.795 120.778,361.605 120.778,362.100 120.682 C 362.595 120.587,362.190 120.509,361.200 120.509 C 360.210 120.509,359.805 120.587,360.300 120.682 M259.600 121.386 C 261.250 121.681,263.680 122.018,265.000 122.136 C 267.283 122.339,267.254 122.324,264.400 121.814 C 262.750 121.519,260.320 121.182,259.000 121.064 C 256.717 120.861,256.746 120.876,259.600 121.386 M348.279 121.359 L 343.158 121.800 340.716 125.200 C 337.785 129.280,334.800 133.832,334.800 134.222 C 334.800 134.377,335.933 132.816,337.318 130.752 C 338.704 128.688,340.632 125.903,341.604 124.562 L 343.370 122.125 349.980 121.634 C 353.615 121.365,356.667 121.067,356.761 120.972 C 357.010 120.723,354.128 120.855,348.279 121.359 M269.371 122.824 C 270.455 123.006,271.498 123.431,271.687 123.770 C 272.288 124.843,277.987 132.400,278.196 132.400 C 278.396 132.400,273.050 125.006,271.617 123.300 C 271.031 122.603,270.470 122.411,269.130 122.447 L 267.400 122.494 269.371 122.824 M172.400 132.588 C 172.400 132.698,173.480 133.334,174.800 134.000 C 176.120 134.666,177.200 135.122,177.200 135.012 C 177.200 134.902,176.120 134.266,174.800 133.600 C 173.480 132.934,172.400 132.478,172.400 132.588 M279.600 134.600 C 280.281 135.590,280.928 136.400,281.038 136.400 C 281.148 136.400,280.681 135.590,280.000 134.600 C 279.319 133.610,278.672 132.800,278.562 132.800 C 278.452 132.800,278.919 133.610,279.600 134.600 M178.400 135.759 C 178.400 135.854,179.224 136.392,180.231 136.955 L 182.062 137.978 205.131 138.158 L 228.200 138.337 205.263 137.957 L 182.327 137.576 180.363 136.581 C 179.283 136.034,178.400 135.664,178.400 135.759 M333.538 136.700 C 332.797 138.541,331.443 165.040,332.173 163.400 C 332.271 163.180,332.546 157.567,332.784 150.926 C 333.089 142.437,333.387 138.369,333.791 137.226 C 334.432 135.409,334.228 134.984,333.538 136.700 M371.912 136.728 C 371.533 136.878,373.930 136.938,377.237 136.863 C 384.282 136.702,384.597 136.759,386.797 138.597 C 388.093 139.680,388.809 139.989,389.938 139.950 L 391.400 139.900 389.698 139.623 C 388.722 139.464,387.527 138.909,386.898 138.322 C 386.294 137.759,385.407 137.096,384.926 136.849 C 383.978 136.361,373.095 136.261,371.912 136.728 M282.176 138.400 C 283.534 140.643,285.481 144.765,286.425 147.400 C 286.819 148.500,287.155 149.169,287.171 148.887 C 287.259 147.339,282.993 138.372,281.516 137.000 C 281.279 136.780,281.576 137.410,282.176 138.400 M368.188 138.361 C 366.128 139.543,361.194 144.439,360.408 146.083 C 360.164 146.592,360.456 146.377,361.064 145.600 C 363.221 142.844,367.117 139.257,369.042 138.256 C 370.119 137.696,370.820 137.231,370.600 137.222 C 370.380 137.214,369.295 137.727,368.188 138.361 M245.200 138.763 C 247.854 138.973,248.200 139.092,248.200 139.800 C 248.200 140.376,248.917 140.979,250.755 141.951 C 252.160 142.694,253.207 143.135,253.081 142.932 C 252.956 142.728,251.950 142.139,250.847 141.622 C 249.285 140.891,248.815 140.452,248.721 139.641 C 248.602 138.620,248.539 138.599,245.400 138.563 L 242.200 138.526 245.200 138.763 M392.700 140.282 C 393.195 140.378,394.005 140.378,394.500 140.282 C 394.995 140.187,394.590 140.109,393.600 140.109 C 392.610 140.109,392.205 140.187,392.700 140.282 M395.633 140.544 C 395.725 140.623,396.790 140.789,398.000 140.912 C 399.369 141.051,399.898 141.008,399.400 140.796 C 398.633 140.470,395.289 140.247,395.633 140.544 M253.600 143.387 C 253.600 143.497,254.474 144.029,255.542 144.571 C 256.855 145.236,257.650 145.955,257.996 146.790 C 258.277 147.470,258.587 147.947,258.683 147.850 C 259.231 147.303,257.360 145.092,255.591 144.195 C 254.496 143.640,253.600 143.277,253.600 143.387 M359.098 148.106 C 358.210 149.462,355.530 154.863,355.674 155.007 C 355.743 155.076,356.728 153.347,357.862 151.166 C 359.887 147.271,360.275 146.311,359.098 148.106 M259.230 149.350 C 259.188 149.841,261.284 154.449,261.466 154.267 C 261.548 154.185,261.085 152.966,260.437 151.559 C 259.789 150.151,259.246 149.157,259.230 149.350 M287.772 157.800 C 287.757 163.459,287.775 163.602,288.089 160.326 C 288.273 158.416,288.280 155.716,288.105 154.326 C 287.848 152.278,287.785 152.934,287.772 157.800 M262.252 156.400 C 262.390 156.950,262.854 158.096,263.284 158.948 C 263.843 160.057,263.942 160.618,263.632 160.928 C 263.395 161.165,263.200 161.472,263.200 161.608 C 263.200 161.844,267.641 165.508,268.700 166.146 C 269.920 166.881,269.010 165.949,266.945 164.348 C 263.236 161.473,263.430 161.686,263.946 161.065 C 264.308 160.628,264.146 159.946,263.206 157.953 C 262.543 156.549,262.114 155.850,262.252 156.400 M354.425 157.825 C 353.956 159.079,353.642 160.175,353.727 160.261 C 353.813 160.346,354.273 159.396,354.750 158.150 C 355.227 156.904,355.541 155.808,355.448 155.714 C 355.354 155.621,354.894 156.571,354.425 157.825 M351.681 165.897 C 350.924 168.439,349.572 174.505,349.728 174.661 C 349.808 174.742,350.443 172.526,351.138 169.738 C 352.328 164.959,352.661 162.604,351.681 165.897 M286.381 166.635 C 285.371 168.523,283.918 168.933,279.013 168.713 C 276.288 168.591,275.212 168.637,276.200 168.834 C 278.885 169.371,283.535 169.254,284.760 168.620 C 285.837 168.064,287.440 166.107,287.099 165.766 C 287.009 165.675,286.686 166.066,286.381 166.635 M270.606 167.210 C 270.869 167.635,273.488 168.506,273.982 168.332 C 274.188 168.259,273.467 167.902,272.379 167.539 C 271.291 167.175,270.493 167.027,270.606 167.210 M331.748 171.200 C 331.748 173.510,331.814 174.455,331.895 173.300 C 331.976 172.145,331.976 170.255,331.895 169.100 C 331.814 167.945,331.748 168.890,331.748 171.200 M293.473 172.000 C 295.307 174.100,295.791 179.386,295.031 189.000 C 294.870 191.044,294.893 191.162,295.189 189.800 C 296.527 183.635,295.694 173.725,293.688 171.959 L 292.600 171.000 293.473 172.000 M281.600 173.011 C 272.672 177.777,251.250 199.050,247.374 207.000 C 247.052 207.660,247.016 207.867,247.294 207.460 C 247.572 207.053,248.700 205.404,249.800 203.795 C 256.125 194.545,274.334 177.300,282.200 173.112 C 283.740 172.292,284.820 171.622,284.600 171.622 C 284.380 171.623,283.030 172.248,281.600 173.011 M348.699 179.006 C 348.568 179.663,348.364 181.370,348.245 182.800 C 348.045 185.204,348.072 185.144,348.602 182.000 C 349.140 178.807,349.218 176.406,348.699 179.006 M331.701 182.200 C 331.705 183.080,331.787 183.393,331.883 182.895 C 331.979 182.398,331.975 181.678,331.875 181.295 C 331.775 180.913,331.696 181.320,331.701 182.200 M332.228 185.327 C 332.447 186.860,334.384 191.749,334.661 191.472 C 334.743 191.390,334.418 190.441,333.940 189.362 C 333.461 188.283,332.831 186.590,332.539 185.600 C 332.030 183.874,332.018 183.863,332.228 185.327 M347.457 188.562 C 347.095 192.359,344.728 195.805,342.271 196.113 L 341.000 196.272 342.268 196.336 C 345.286 196.488,348.779 190.197,347.920 186.158 C 347.831 185.741,347.623 186.823,347.457 188.562 M294.078 193.425 C 293.801 194.461,293.658 195.392,293.761 195.494 C 294.006 195.739,294.886 192.459,294.714 191.942 C 294.641 191.723,294.355 192.390,294.078 193.425 M334.814 192.220 C 334.822 192.429,335.099 193.050,335.431 193.600 L 336.033 194.600 335.772 193.600 C 335.499 192.557,334.789 191.533,334.814 192.220 M292.451 199.700 C 292.227 200.855,291.933 202.700,291.797 203.800 C 291.570 205.636,291.076 206.390,285.769 213.000 C 273.618 228.136,267.399 236.400,268.161 236.400 C 268.276 236.400,269.127 235.275,270.052 233.900 C 272.132 230.808,277.820 223.420,283.216 216.800 C 291.694 206.399,291.888 206.099,292.370 202.631 C 292.607 200.929,292.910 199.100,293.044 198.568 C 293.177 198.036,293.190 197.600,293.072 197.600 C 292.953 197.600,292.674 198.545,292.451 199.700 M243.130 215.022 C 241.359 218.663,239.975 221.707,240.055 221.785 C 240.135 221.863,241.672 218.884,243.470 215.164 C 245.269 211.444,246.653 208.400,246.545 208.400 C 246.438 208.400,244.901 211.380,243.130 215.022 M349.800 214.453 C 348.480 215.328,347.220 216.241,347.000 216.481 C 346.446 217.086,347.282 216.609,350.124 214.699 C 352.234 213.282,352.561 213.178,353.688 213.571 C 354.371 213.809,355.000 213.934,355.085 213.848 C 355.245 213.688,352.871 212.775,352.440 212.831 C 352.308 212.848,351.120 213.578,349.800 214.453 M356.600 214.690 C 356.820 214.900,357.720 215.476,358.600 215.970 C 359.480 216.465,359.840 216.570,359.400 216.204 C 358.506 215.461,355.972 214.091,356.600 214.690 M339.903 220.907 C 336.439 223.158,333.604 225.200,333.603 225.445 C 333.600 225.926,339.487 232.496,340.158 232.761 C 340.382 232.849,339.133 231.358,337.383 229.447 C 335.632 227.536,334.143 225.808,334.073 225.607 C 334.004 225.405,336.749 223.413,340.173 221.179 C 345.531 217.685,346.813 216.770,346.300 216.807 C 346.245 216.811,343.366 218.656,339.903 220.907 M360.400 216.939 C 360.400 217.045,361.345 217.820,362.500 218.662 C 371.807 225.442,385.872 240.619,394.786 253.500 C 396.303 255.693,397.380 256.910,396.555 255.500 C 392.486 248.548,378.812 232.471,370.770 225.183 C 365.643 220.537,360.400 216.369,360.400 216.939 M238.036 226.236 C 237.332 227.915,236.822 229.355,236.903 229.437 C 236.985 229.518,237.625 228.209,238.327 226.527 C 239.029 224.846,239.539 223.406,239.460 223.327 C 239.382 223.249,238.741 224.558,238.036 226.236 M236.044 231.244 C 235.798 231.951,235.666 232.600,235.752 232.685 C 235.838 232.771,236.109 232.262,236.356 231.556 C 236.602 230.849,236.734 230.200,236.648 230.115 C 236.562 230.029,236.291 230.538,236.044 231.244 M234.658 234.904 C 233.728 237.340,233.880 237.804,234.836 235.447 C 235.272 234.373,235.558 233.424,235.472 233.338 C 235.386 233.252,235.020 233.957,234.658 234.904 M342.656 235.617 C 343.725 236.836,350.720 244.476,358.200 252.595 C 365.680 260.713,372.790 268.464,374.000 269.818 C 375.210 271.173,376.556 272.514,376.990 272.800 C 377.425 273.086,376.705 272.154,375.390 270.729 C 374.076 269.305,367.114 261.742,359.920 253.922 C 347.449 240.365,338.503 230.880,342.656 235.617 M320.079 235.235 C 319.155 235.914,318.400 236.559,318.400 236.669 C 318.400 236.779,319.155 236.314,320.079 235.635 C 322.216 234.063,324.595 233.985,328.016 235.375 C 329.337 235.912,330.320 236.194,330.201 236.001 C 328.965 234.002,322.428 233.507,320.079 235.235 M290.959 237.929 C 288.655 239.418,285.511 242.588,284.739 244.200 C 284.528 244.640,284.769 244.460,285.274 243.800 C 287.365 241.067,289.266 239.308,291.654 237.895 C 293.044 237.073,293.989 236.400,293.753 236.400 C 293.517 236.400,292.260 237.088,290.959 237.929 M298.600 237.644 C 299.480 238.366,301.536 240.271,303.169 241.876 C 304.802 243.482,306.199 244.734,306.275 244.659 C 306.494 244.439,299.938 238.278,298.400 237.259 C 297.151 236.431,297.173 236.473,298.600 237.644 M330.800 236.535 C 330.800 236.637,331.475 237.141,332.300 237.654 C 333.125 238.167,334.070 238.757,334.400 238.964 C 334.891 239.273,334.913 239.235,334.523 238.757 C 334.018 238.139,330.800 236.218,330.800 236.535 M267.105 237.700 C 266.244 239.022,265.046 241.465,265.488 241.000 C 266.011 240.450,268.074 236.800,267.863 236.800 C 267.769 236.800,267.428 237.205,267.105 237.700 M232.430 241.369 C 231.754 243.481,231.212 245.432,231.226 245.705 C 231.240 245.977,231.861 244.316,232.605 242.012 C 233.349 239.709,233.891 237.758,233.810 237.676 C 233.728 237.594,233.107 239.256,232.430 241.369 M335.321 239.471 C 335.480 239.730,336.367 240.540,337.290 241.271 C 338.214 242.002,338.839 242.388,338.679 242.129 C 338.520 241.870,337.633 241.060,336.710 240.329 C 335.786 239.598,335.161 239.212,335.321 239.471 M263.380 244.440 C 262.811 245.562,262.413 246.547,262.495 246.629 C 262.577 246.711,263.127 245.793,263.718 244.589 C 264.308 243.385,264.706 242.400,264.602 242.400 C 264.498 242.400,263.948 243.318,263.380 244.440 M340.400 243.800 C 341.146 244.570,341.847 245.200,341.957 245.200 C 342.067 245.200,341.546 244.570,340.800 243.800 C 340.054 243.030,339.353 242.400,339.243 242.400 C 339.133 242.400,339.654 243.030,340.400 243.800 M318.509 244.800 C 318.509 245.790,318.587 246.195,318.682 245.700 C 318.778 245.205,318.778 244.395,318.682 243.900 C 318.587 243.405,318.509 243.810,318.509 244.800 M306.617 245.638 C 308.099 248.082,309.200 249.707,309.200 249.450 C 309.200 248.966,307.171 245.629,306.700 245.338 C 306.426 245.169,306.397 245.275,306.617 245.638 M351.363 254.387 C 357.856 261.074,361.130 264.773,362.740 267.244 C 365.886 272.072,366.199 272.489,364.963 270.200 C 363.376 267.260,361.303 264.423,358.643 261.548 C 355.128 257.750,347.661 250.128,344.781 247.400 C 343.387 246.080,346.350 249.224,351.363 254.387 M282.164 248.300 C 281.352 249.785,280.263 251.752,279.744 252.671 C 278.734 254.459,278.451 255.497,279.330 254.189 C 280.188 252.913,284.006 245.600,283.814 245.600 C 283.718 245.600,282.975 246.815,282.164 248.300 M318.840 247.833 C 318.862 248.475,319.033 249.450,319.220 250.000 C 319.449 250.674,319.484 250.349,319.328 249.000 C 319.069 246.750,318.779 246.059,318.840 247.833 M229.246 251.846 C 228.571 253.994,228.091 255.824,228.179 255.912 C 228.267 256.000,228.900 254.323,229.585 252.185 C 230.270 250.046,230.750 248.217,230.652 248.119 C 230.554 248.020,229.921 249.698,229.246 251.846 M260.890 250.072 C 259.874 252.815,259.445 254.252,259.716 254.000 C 260.079 253.664,262.022 248.288,261.844 248.111 C 261.753 248.020,261.324 248.902,260.890 250.072 M319.640 251.427 C 319.579 252.078,320.830 256.104,321.030 255.903 C 321.127 255.806,320.863 254.663,320.443 253.364 C 320.023 252.064,319.662 251.192,319.640 251.427 M310.140 256.000 C 310.140 257.870,310.209 258.635,310.293 257.700 C 310.377 256.765,310.377 255.235,310.293 254.300 C 310.209 253.365,310.140 254.130,310.140 256.000 M321.200 256.543 C 321.200 256.978,323.987 262.400,324.210 262.400 C 324.320 262.400,323.757 261.095,322.958 259.500 C 321.460 256.507,321.200 256.070,321.200 256.543 M397.405 257.365 C 397.789 258.006,398.459 259.131,398.892 259.865 C 399.325 260.599,399.763 261.200,399.865 261.200 C 400.144 261.200,398.479 258.343,397.533 257.200 L 396.705 256.200 397.405 257.365 M257.440 260.640 C 256.832 262.745,256.413 264.547,256.510 264.643 C 256.606 264.740,257.176 263.090,257.776 260.976 C 258.376 258.862,258.794 257.061,258.706 256.973 C 258.618 256.884,258.048 258.535,257.440 260.640 M275.459 261.045 C 271.855 267.478,271.153 268.352,260.637 279.500 C 259.755 280.435,259.143 281.200,259.277 281.200 C 261.336 281.200,279.103 258.166,277.939 257.006 C 277.862 256.930,276.747 258.747,275.459 261.045 M226.260 260.460 C 225.677 262.040,225.266 263.400,225.348 263.481 C 225.430 263.563,225.975 262.338,226.560 260.760 C 227.145 259.182,227.555 257.822,227.472 257.739 C 227.389 257.655,226.843 258.880,226.260 260.460 M306.512 267.967 C 305.144 270.735,304.301 272.640,304.639 272.200 C 305.477 271.107,309.382 263.241,309.170 263.070 C 309.077 262.995,307.881 265.198,306.512 267.967 M324.748 263.500 C 324.954 263.885,326.446 265.930,328.062 268.044 C 329.678 270.158,332.327 273.623,333.949 275.744 C 335.571 277.865,336.978 279.600,337.076 279.600 C 337.352 279.600,335.800 277.488,331.050 271.402 C 328.647 268.323,326.234 265.128,325.687 264.302 C 324.664 262.756,324.081 262.258,324.748 263.500 M223.489 267.289 C 222.893 268.637,222.468 269.802,222.545 269.878 C 222.621 269.954,223.176 268.919,223.778 267.578 C 224.380 266.236,224.805 265.071,224.722 264.989 C 224.639 264.906,224.085 265.941,223.489 267.289 M254.494 270.494 C 254.005 271.838,253.669 273.002,253.748 273.082 C 253.828 273.161,254.301 272.134,254.800 270.800 C 255.299 269.466,255.635 268.301,255.546 268.212 C 255.457 268.123,254.984 269.150,254.494 270.494 M220.584 273.231 C 216.919 280.465,212.864 285.261,204.600 292.137 C 194.686 300.385,187.523 307.843,184.176 313.400 C 183.083 315.214,184.037 314.119,186.091 311.200 C 187.098 309.770,189.244 307.148,190.861 305.373 C 193.337 302.654,194.857 301.166,199.824 296.600 C 200.063 296.380,202.136 294.679,204.430 292.819 C 210.274 288.081,214.236 283.967,217.155 279.603 C 219.566 275.999,222.226 271.200,221.812 271.200 C 221.703 271.200,221.150 272.114,220.584 273.231 M367.000 274.400 C 367.557 275.500,368.103 276.400,368.213 276.400 C 368.323 276.400,367.957 275.500,367.400 274.400 C 366.843 273.300,366.297 272.400,366.187 272.400 C 366.077 272.400,366.443 273.300,367.000 274.400 M379.606 275.800 C 392.269 289.573,394.906 292.400,395.089 292.400 C 395.450 292.400,399.600 289.954,399.600 289.741 C 399.600 289.631,398.633 290.094,397.451 290.771 C 396.270 291.447,395.217 292.000,395.112 292.000 C 395.007 292.000,391.406 288.175,387.109 283.500 C 382.813 278.825,378.870 274.640,378.349 274.200 C 377.827 273.760,378.393 274.480,379.606 275.800 M299.816 278.802 C 288.600 294.605,272.878 310.038,265.200 312.784 C 263.990 313.217,263.334 313.578,263.743 313.586 C 269.837 313.704,294.663 289.213,302.957 274.900 C 303.894 273.284,302.535 274.973,299.816 278.802 M250.289 280.062 C 247.553 285.487,247.243 286.590,249.743 282.000 C 251.195 279.335,253.288 274.800,253.066 274.800 C 252.998 274.800,251.748 277.168,250.289 280.062 M369.267 278.738 C 369.907 280.360,374.179 289.155,374.278 289.055 C 374.507 288.826,369.694 278.400,369.359 278.400 C 369.235 278.400,369.193 278.552,369.267 278.738 M338.343 281.718 C 339.040 282.731,339.822 283.690,340.080 283.850 C 340.339 284.009,339.935 283.284,339.184 282.237 C 337.405 279.760,336.694 279.321,338.343 281.718 M257.945 282.700 C 256.569 284.207,254.663 286.755,253.831 288.200 C 253.148 289.385,253.148 289.388,253.870 288.410 C 254.271 287.866,255.637 286.111,256.905 284.510 C 259.281 281.510,259.704 280.773,257.945 282.700 M341.596 285.994 C 342.290 286.871,343.067 287.718,343.323 287.876 C 343.578 288.034,343.093 287.316,342.245 286.281 C 341.397 285.247,340.620 284.400,340.518 284.400 C 340.416 284.400,340.901 285.118,341.596 285.994 M245.291 288.582 C 244.150 290.223,241.629 293.418,239.687 295.682 C 233.095 303.372,226.742 311.725,225.452 314.400 C 225.124 315.080,225.474 314.610,229.461 309.015 C 231.035 306.807,234.275 302.685,236.661 299.856 C 241.699 293.884,245.920 288.520,246.935 286.803 C 248.182 284.692,247.429 285.507,245.291 288.582 M346.426 291.900 C 348.000 293.935,349.369 295.600,349.468 295.600 C 349.789 295.600,347.213 292.191,345.361 290.165 C 344.275 288.976,344.695 289.662,346.426 291.900 M251.532 292.220 C 250.858 293.661,250.375 294.908,250.459 294.992 C 250.543 295.076,251.180 293.898,251.874 292.373 C 252.568 290.848,253.051 289.600,252.947 289.600 C 252.843 289.600,252.206 290.779,251.532 292.220 M374.800 290.907 C 374.800 291.269,377.158 296.926,377.177 296.608 C 377.206 296.109,375.185 290.800,374.965 290.800 C 374.874 290.800,374.800 290.848,374.800 290.907 M350.939 297.917 C 351.779 299.061,353.437 301.843,354.625 304.099 C 357.049 308.707,357.585 309.143,355.349 304.690 C 353.622 301.250,350.692 296.628,349.945 296.166 C 349.652 295.985,350.099 296.773,350.939 297.917 M249.737 300.600 C 249.739 302.360,249.809 303.030,249.893 302.089 C 249.978 301.149,249.977 299.709,249.891 298.889 C 249.805 298.070,249.736 298.840,249.737 300.600 M378.050 299.800 C 378.031 300.020,378.266 301.100,378.572 302.200 C 378.878 303.300,379.131 303.840,379.133 303.400 C 379.139 302.548,378.108 299.123,378.050 299.800 M379.359 306.031 C 379.470 307.626,379.759 308.141,381.607 310.031 L 383.727 312.200 382.215 310.300 C 381.384 309.255,380.559 308.400,380.382 308.400 C 380.206 308.400,379.874 307.455,379.646 306.300 L 379.232 304.200 379.359 306.031 M250.404 306.516 C 250.376 308.826,255.277 313.304,257.687 313.172 C 257.969 313.156,257.517 312.893,256.683 312.587 C 254.305 311.714,252.872 310.498,251.591 308.264 C 250.940 307.129,250.406 306.342,250.404 306.516 M398.402 308.198 C 398.128 308.527,397.206 309.006,396.353 309.261 C 395.499 309.517,394.800 309.953,394.800 310.230 C 394.800 310.890,396.308 314.400,396.591 314.400 C 396.712 314.400,396.519 313.725,396.162 312.900 C 395.007 310.229,395.018 310.122,396.516 309.628 C 397.680 309.244,399.783 307.600,399.111 307.600 C 398.994 307.600,398.675 307.869,398.402 308.198 M356.834 308.600 C 356.834 308.820,357.178 309.630,357.600 310.400 C 358.022 311.170,358.366 311.620,358.366 311.400 C 358.366 311.180,358.022 310.370,357.600 309.600 C 357.178 308.830,356.834 308.380,356.834 308.600 M358.434 312.200 C 358.434 312.420,358.778 313.230,359.200 314.000 C 359.622 314.770,359.966 315.220,359.966 315.000 C 359.966 314.780,359.622 313.970,359.200 313.200 C 358.778 312.430,358.434 311.980,358.434 312.200 M385.033 314.500 C 386.657 316.772,387.991 318.305,387.382 317.200 C 386.779 316.104,383.978 312.400,383.753 312.400 C 383.632 312.400,384.207 313.345,385.033 314.500 M258.900 313.476 C 259.285 313.576,259.915 313.576,260.300 313.476 C 260.685 313.375,260.370 313.293,259.600 313.293 C 258.830 313.293,258.515 313.375,258.900 313.476 M223.868 316.700 C 222.609 318.705,221.933 320.000,222.146 320.000 C 222.242 320.000,222.675 319.399,223.108 318.665 C 223.541 317.931,224.210 316.851,224.594 316.265 C 224.978 315.679,225.184 315.200,225.051 315.200 C 224.918 315.200,224.386 315.875,223.868 316.700 M238.058 315.632 C 234.970 316.857,231.993 320.671,225.282 332.000 C 217.792 344.643,215.180 348.186,212.257 349.667 C 210.586 350.515,210.007 351.066,210.018 351.800 C 210.022 352.020,210.205 351.891,210.425 351.513 C 210.645 351.135,211.453 350.528,212.220 350.164 C 215.059 348.817,218.325 344.443,225.188 332.800 C 231.614 321.899,235.316 317.079,238.054 316.051 C 239.983 315.326,245.131 315.967,245.325 316.956 C 245.482 317.752,245.494 317.748,245.546 316.887 C 245.575 316.386,245.375 315.906,245.100 315.821 C 243.829 315.429,238.901 315.297,238.058 315.632 M181.761 317.850 C 181.214 319.087,180.834 320.167,180.917 320.251 C 181.000 320.334,181.534 319.321,182.104 318.001 C 182.674 316.680,183.054 315.600,182.948 315.600 C 182.842 315.600,182.308 316.612,181.761 317.850 M360.000 315.745 C 360.000 316.179,362.387 320.800,362.612 320.800 C 362.722 320.800,362.248 319.675,361.558 318.300 C 360.252 315.694,360.000 315.281,360.000 315.745 M397.206 315.706 C 397.198 316.095,399.619 320.400,399.845 320.400 C 400.024 320.400,398.311 317.008,397.622 316.000 C 397.397 315.670,397.209 315.538,397.206 315.706 M245.714 319.800 C 245.717 320.900,245.795 321.303,245.887 320.695 C 245.979 320.086,245.977 319.186,245.882 318.695 C 245.787 318.203,245.711 318.700,245.714 319.800 M388.204 319.000 C 388.567 319.660,389.319 320.740,389.874 321.400 L 390.885 322.600 390.153 321.294 C 389.750 320.575,388.998 319.495,388.482 318.894 L 387.545 317.800 388.204 319.000 M220.062 323.100 C 219.197 324.585,217.098 328.320,215.397 331.400 C 212.841 336.031,211.086 339.116,206.126 347.700 C 206.031 347.865,206.031 348.000,206.127 348.000 C 206.394 348.000,210.174 341.530,215.590 331.800 C 218.284 326.960,220.843 322.415,221.277 321.700 C 221.710 320.985,221.969 320.400,221.850 320.400 C 221.732 320.400,220.927 321.615,220.062 323.100 M362.800 321.337 C 362.800 321.773,371.584 339.200,371.803 339.200 C 371.982 339.200,363.334 321.640,362.955 321.233 C 362.870 321.142,362.800 321.188,362.800 321.337 M246.274 325.600 C 246.397 327.470,246.645 329.810,246.824 330.800 C 247.243 333.120,246.826 327.067,246.369 324.200 C 246.143 322.786,246.115 323.196,246.274 325.600 M392.014 324.762 C 392.702 325.879,393.428 326.894,393.629 327.018 C 393.830 327.142,393.422 326.324,392.724 325.200 C 392.025 324.076,391.299 323.061,391.109 322.944 C 390.920 322.827,391.327 323.645,392.014 324.762 M179.664 324.867 C 179.629 325.454,179.484 326.264,179.341 326.667 C 179.143 327.229,179.196 327.295,179.570 326.951 C 179.844 326.699,179.986 325.909,179.893 325.151 C 179.759 324.053,179.716 324.000,179.664 324.867 M176.814 327.574 C 176.586 327.999,176.400 329.333,176.400 330.538 C 176.400 331.743,176.042 333.870,175.605 335.264 C 174.498 338.796,174.655 339.186,175.830 335.822 C 176.363 334.294,176.802 332.134,176.805 331.022 C 176.814 327.980,177.130 327.130,178.150 327.415 C 178.826 327.604,178.877 327.567,178.400 327.232 C 177.550 326.638,177.284 326.695,176.814 327.574 M394.609 328.626 C 394.981 329.301,395.641 330.291,396.076 330.826 L 396.867 331.800 396.191 330.574 C 395.819 329.899,395.159 328.909,394.724 328.374 L 393.933 327.400 394.609 328.626 M398.237 334.100 C 399.049 335.365,399.788 336.400,399.879 336.400 C 400.147 336.400,398.700 334.082,397.690 332.894 C 397.179 332.292,397.425 332.835,398.237 334.100 M246.937 341.000 C 246.939 342.760,247.009 343.430,247.093 342.489 C 247.178 341.549,247.177 340.109,247.091 339.289 C 247.005 338.470,246.936 339.240,246.937 341.000 M372.004 339.746 C 371.998 340.266,374.104 344.029,374.294 343.839 C 374.385 343.749,373.907 342.713,373.233 341.537 C 372.559 340.362,372.006 339.556,372.004 339.746 M173.050 343.650 C 172.450 345.654,172.030 347.363,172.116 347.449 C 172.202 347.535,172.772 345.976,173.383 343.983 C 173.994 341.991,174.415 340.281,174.317 340.184 C 174.220 340.087,173.650 341.646,173.050 343.650 M245.524 346.695 C 244.932 347.853,244.519 348.800,244.607 348.800 C 244.910 348.800,246.870 345.209,246.735 344.901 C 246.661 344.730,246.116 345.538,245.524 346.695 M375.820 347.240 C 376.389 348.362,376.934 349.199,377.033 349.101 C 377.223 348.910,375.251 345.200,374.959 345.200 C 374.864 345.200,375.252 346.118,375.820 347.240 M242.006 351.900 C 240.830 353.385,240.323 354.187,240.880 353.681 C 241.867 352.784,244.600 349.200,244.297 349.200 C 244.212 349.200,243.182 350.415,242.006 351.900 M170.210 353.067 C 168.720 358.040,168.672 358.227,168.943 357.974 C 169.302 357.640,171.636 349.903,171.438 349.705 C 171.345 349.611,170.792 351.125,170.210 353.067 M204.308 350.500 C 203.433 351.849,202.648 353.456,203.087 353.000 C 203.648 352.417,205.298 349.600,205.079 349.600 C 204.976 349.600,204.629 350.005,204.308 350.500 M379.184 353.400 C 380.125 355.160,381.082 356.780,381.310 357.000 C 381.539 357.220,380.956 355.960,380.016 354.200 C 379.075 352.440,378.118 350.820,377.890 350.600 C 377.661 350.380,378.244 351.640,379.184 353.400 M209.400 353.200 C 209.250 353.673,209.217 354.150,209.327 354.260 C 209.437 354.370,209.650 354.073,209.800 353.600 C 209.950 353.127,209.983 352.650,209.873 352.540 C 209.763 352.430,209.550 352.727,209.400 353.200 M199.800 358.800 C 198.367 361.660,197.284 364.000,197.394 364.000 C 197.504 364.000,198.767 361.660,200.200 358.800 C 201.633 355.940,202.716 353.600,202.606 353.600 C 202.496 353.600,201.233 355.940,199.800 358.800 M236.811 357.789 C 235.400 359.213,234.325 360.454,234.422 360.547 C 234.520 360.640,235.740 359.474,237.134 357.958 C 240.324 354.486,240.166 354.404,236.811 357.789 M207.222 360.079 C 205.923 364.445,205.880 364.619,206.152 364.365 C 206.496 364.043,208.436 357.503,208.245 357.311 C 208.160 357.227,207.700 358.472,207.222 360.079 M382.200 358.800 C 382.541 359.460,382.911 360.000,383.021 360.000 C 383.131 360.000,382.941 359.460,382.600 358.800 C 382.259 358.140,381.889 357.600,381.779 357.600 C 381.669 357.600,381.859 358.140,382.200 358.800 M167.633 361.833 C 167.375 362.859,167.239 363.772,167.331 363.864 C 167.422 363.956,167.709 363.192,167.967 362.167 C 168.225 361.141,168.361 360.228,168.269 360.136 C 168.178 360.044,167.891 360.808,167.633 361.833 M230.778 363.911 L 228.200 366.600 230.790 364.200 C 232.215 362.880,233.460 361.755,233.557 361.700 C 233.654 361.645,233.648 361.515,233.544 361.411 C 233.440 361.307,232.195 362.432,230.778 363.911 M384.081 362.100 C 384.396 362.595,385.329 364.125,386.156 365.500 C 386.982 366.875,387.756 368.000,387.875 368.000 C 387.994 368.000,387.834 367.595,387.519 367.100 C 387.204 366.605,386.271 365.075,385.444 363.700 C 384.618 362.325,383.844 361.200,383.725 361.200 C 383.606 361.200,383.766 361.605,384.081 362.100 M166.433 366.233 C 166.175 367.259,166.039 368.172,166.131 368.264 C 166.222 368.356,166.509 367.592,166.767 366.567 C 167.025 365.541,167.161 364.628,167.069 364.536 C 166.978 364.444,166.691 365.208,166.433 366.233 M195.297 367.602 C 194.584 368.890,194.003 370.091,194.006 370.272 C 194.010 370.452,194.657 369.462,195.445 368.072 C 196.233 366.682,196.814 365.481,196.736 365.403 C 196.658 365.325,196.010 366.314,195.297 367.602 M225.200 368.857 C 223.145 370.778,223.020 370.953,224.600 369.689 C 226.471 368.193,228.328 366.383,227.962 366.413 C 227.873 366.421,226.630 367.520,225.200 368.857 M204.020 370.620 C 203.525 372.288,203.193 373.726,203.283 373.816 C 203.372 373.906,203.848 372.612,204.340 370.940 C 204.832 369.268,205.164 367.830,205.077 367.744 C 204.991 367.658,204.515 368.952,204.020 370.620 M388.609 369.426 C 388.981 370.101,389.641 371.091,390.076 371.626 L 390.867 372.600 390.191 371.374 C 389.819 370.699,389.159 369.709,388.724 369.174 L 387.933 368.200 388.609 369.426 M164.272 375.073 C 163.718 377.453,163.166 380.300,163.045 381.400 L 162.826 383.400 163.239 381.600 C 164.737 375.082,165.567 371.034,165.434 370.901 C 165.349 370.816,164.826 372.693,164.272 375.073 M192.400 373.200 C 191.734 374.520,191.278 375.600,191.388 375.600 C 191.498 375.600,192.134 374.520,192.800 373.200 C 193.466 371.880,193.922 370.800,193.812 370.800 C 193.702 370.800,193.066 371.880,192.400 373.200 M219.000 373.512 C 217.240 374.733,216.119 375.616,216.508 375.475 C 217.442 375.137,221.881 372.116,222.199 371.602 C 222.538 371.053,222.600 371.016,219.000 373.512 M393.044 376.000 C 395.202 379.197,399.575 384.800,399.913 384.800 C 399.998 384.800,399.737 384.380,399.333 383.866 C 398.930 383.352,397.194 381.057,395.475 378.766 C 390.940 372.720,390.470 372.185,393.044 376.000 M202.260 376.493 C 201.900 377.870,202.407 378.066,206.911 378.296 L 211.100 378.510 211.266 377.083 C 211.358 376.298,211.290 375.744,211.116 375.852 C 210.942 375.959,210.800 376.512,210.800 377.081 L 210.800 378.114 206.900 377.862 C 204.755 377.723,202.862 377.607,202.692 377.604 C 202.523 377.602,202.498 377.150,202.636 376.600 C 202.774 376.050,202.798 375.600,202.690 375.600 C 202.582 375.600,202.388 376.002,202.260 376.493 M187.804 381.408 C 186.332 383.943,184.150 387.408,182.956 389.108 C 181.725 390.861,181.351 391.566,182.092 390.737 C 183.851 388.770,191.218 376.800,190.669 376.800 C 190.565 376.800,189.275 378.874,187.804 381.408 M162.131 389.400 C 162.133 390.940,162.205 391.521,162.292 390.691 C 162.379 389.861,162.377 388.601,162.289 387.891 C 162.200 387.181,162.129 387.860,162.131 389.400 M162.401 392.699 C 162.397 394.086,166.654 397.622,168.280 397.582 C 168.676 397.573,168.308 397.318,167.462 397.017 C 165.717 396.394,164.238 395.154,163.148 393.400 C 162.738 392.740,162.402 392.424,162.401 392.699 M178.801 394.199 C 177.830 395.188,176.308 396.358,175.418 396.799 C 174.528 397.239,174.088 397.600,174.440 397.600 C 174.792 397.600,175.782 397.082,176.640 396.450 C 178.173 395.319,181.144 392.400,180.762 392.400 C 180.654 392.400,179.772 393.209,178.801 394.199 " stroke="none" fill="#a4c9e9" fill-rule="evenodd"></path><path id="path3" d="M302.100 13.087 C 302.705 13.178,303.695 13.178,304.300 13.087 C 304.905 12.995,304.410 12.920,303.200 12.920 C 301.990 12.920,301.495 12.995,302.100 13.087 M337.200 22.925 C 337.200 22.994,337.785 23.579,338.500 24.225 L 339.800 25.400 338.625 24.100 C 337.530 22.888,337.200 22.616,337.200 22.925 M342.514 34.600 C 342.517 35.700,342.595 36.103,342.687 35.495 C 342.779 34.886,342.777 33.986,342.682 33.495 C 342.587 33.003,342.511 33.500,342.514 34.600 M330.100 41.094 C 331.145 41.176,332.855 41.176,333.900 41.094 C 334.945 41.012,334.090 40.944,332.000 40.944 C 329.910 40.944,329.055 41.012,330.100 41.094 M272.114 50.600 C 272.117 51.700,272.195 52.103,272.287 51.495 C 272.379 50.886,272.377 49.986,272.282 49.495 C 272.187 49.003,272.111 49.500,272.114 50.600 M384.100 85.487 C 384.705 85.578,385.695 85.578,386.300 85.487 C 386.905 85.395,386.410 85.320,385.200 85.320 C 383.990 85.320,383.495 85.395,384.100 85.487 M375.300 85.876 C 375.685 85.976,376.315 85.976,376.700 85.876 C 377.085 85.775,376.770 85.693,376.000 85.693 C 375.230 85.693,374.915 85.775,375.300 85.876 M215.100 86.297 C 216.695 86.373,219.305 86.373,220.900 86.297 C 222.495 86.221,221.190 86.159,218.000 86.159 C 214.810 86.159,213.505 86.221,215.100 86.297 M246.700 86.293 C 247.635 86.377,249.165 86.377,250.100 86.293 C 251.035 86.209,250.270 86.140,248.400 86.140 C 246.530 86.140,245.765 86.209,246.700 86.293 M370.705 86.283 C 371.202 86.379,371.922 86.375,372.305 86.275 C 372.687 86.175,372.280 86.096,371.400 86.101 C 370.520 86.105,370.207 86.187,370.705 86.283 M177.107 87.490 C 177.826 87.579,178.906 87.577,179.507 87.486 C 180.108 87.395,179.520 87.322,178.200 87.324 C 176.880 87.326,176.388 87.401,177.107 87.490 M171.300 87.876 C 171.685 87.976,172.315 87.976,172.700 87.876 C 173.085 87.775,172.770 87.693,172.000 87.693 C 171.230 87.693,170.915 87.775,171.300 87.876 M304.093 90.000 C 304.093 90.770,304.175 91.085,304.276 90.700 C 304.376 90.315,304.376 89.685,304.276 89.300 C 304.175 88.915,304.093 89.230,304.093 90.000 M334.109 98.400 C 334.109 99.390,334.187 99.795,334.282 99.300 C 334.378 98.805,334.378 97.995,334.282 97.500 C 334.187 97.005,334.109 97.410,334.109 98.400 M293.900 97.882 C 294.395 97.978,295.205 97.978,295.700 97.882 C 296.195 97.787,295.790 97.709,294.800 97.709 C 293.810 97.709,293.405 97.787,293.900 97.882 M122.109 104.400 C 122.109 105.390,122.187 105.795,122.282 105.300 C 122.378 104.805,122.378 103.995,122.282 103.500 C 122.187 103.005,122.109 103.410,122.109 104.400 M223.900 106.289 C 224.615 106.378,225.785 106.378,226.500 106.289 C 227.215 106.201,226.630 106.128,225.200 106.128 C 223.770 106.128,223.185 106.201,223.900 106.289 M201.505 107.883 C 202.002 107.979,202.722 107.975,203.105 107.875 C 203.487 107.775,203.080 107.696,202.200 107.701 C 201.320 107.705,201.007 107.787,201.505 107.883 M391.907 108.290 C 392.626 108.379,393.706 108.377,394.307 108.286 C 394.908 108.195,394.320 108.122,393.000 108.124 C 391.680 108.126,391.188 108.201,391.907 108.290 M379.300 108.687 C 379.905 108.778,380.895 108.778,381.500 108.687 C 382.105 108.595,381.610 108.520,380.400 108.520 C 379.190 108.520,378.695 108.595,379.300 108.687 M367.100 109.089 C 367.815 109.178,368.985 109.178,369.700 109.089 C 370.415 109.001,369.830 108.928,368.400 108.928 C 366.970 108.928,366.385 109.001,367.100 109.089 M181.905 109.483 C 182.402 109.579,183.122 109.575,183.505 109.475 C 183.887 109.375,183.480 109.296,182.600 109.301 C 181.720 109.305,181.407 109.387,181.905 109.483 M355.913 109.495 C 357.076 109.576,358.876 109.576,359.913 109.493 C 360.951 109.411,360.000 109.345,357.800 109.346 C 355.600 109.347,354.751 109.414,355.913 109.495 M343.905 109.883 C 344.402 109.979,345.122 109.975,345.505 109.875 C 345.887 109.775,345.480 109.696,344.600 109.701 C 343.720 109.705,343.407 109.787,343.905 109.883 M161.105 111.083 C 161.602 111.179,162.322 111.175,162.705 111.075 C 163.087 110.975,162.680 110.896,161.800 110.901 C 160.920 110.905,160.607 110.987,161.105 111.083 M145.100 112.282 C 145.595 112.378,146.405 112.378,146.900 112.282 C 147.395 112.187,146.990 112.109,146.000 112.109 C 145.010 112.109,144.605 112.187,145.100 112.282 M129.300 113.476 C 129.685 113.576,130.315 113.576,130.700 113.476 C 131.085 113.375,130.770 113.293,130.000 113.293 C 129.230 113.293,128.915 113.375,129.300 113.476 M206.900 113.876 C 207.285 113.976,207.915 113.976,208.300 113.876 C 208.685 113.775,208.370 113.693,207.600 113.693 C 206.830 113.693,206.515 113.775,206.900 113.876 M199.100 114.282 C 199.595 114.378,200.405 114.378,200.900 114.282 C 201.395 114.187,200.990 114.109,200.000 114.109 C 199.010 114.109,198.605 114.187,199.100 114.282 M377.505 119.083 C 378.002 119.179,378.722 119.175,379.105 119.075 C 379.487 118.975,379.080 118.896,378.200 118.901 C 377.320 118.905,377.007 118.987,377.505 119.083 M187.900 138.298 C 189.935 138.371,193.265 138.371,195.300 138.298 C 197.335 138.225,195.670 138.166,191.600 138.166 C 187.530 138.166,185.865 138.225,187.900 138.298 M332.524 141.800 C 332.526 143.120,332.601 143.612,332.690 142.893 C 332.779 142.174,332.777 141.094,332.686 140.493 C 332.595 139.892,332.522 140.480,332.524 141.800 M288.109 160.800 C 288.109 161.790,288.187 162.195,288.282 161.700 C 288.378 161.205,288.378 160.395,288.282 159.900 C 288.187 159.405,288.109 159.810,288.109 160.800 M263.252 160.865 C 262.843 161.520,262.838 161.789,263.226 162.147 C 263.598 162.490,263.646 162.474,263.424 162.082 C 263.263 161.798,263.352 161.298,263.623 160.973 C 263.893 160.647,264.037 160.303,263.942 160.209 C 263.847 160.114,263.537 160.409,263.252 160.865 M331.714 165.400 C 331.717 166.500,331.795 166.903,331.887 166.295 C 331.979 165.686,331.977 164.786,331.882 164.295 C 331.787 163.803,331.711 164.300,331.714 165.400 M331.337 177.800 C 331.339 179.560,331.409 180.230,331.493 179.289 C 331.578 178.349,331.577 176.909,331.491 176.089 C 331.405 175.270,331.336 176.040,331.337 177.800 M295.714 182.200 C 295.717 183.300,295.795 183.703,295.887 183.095 C 295.979 182.486,295.977 181.586,295.882 181.095 C 295.787 180.603,295.711 181.100,295.714 182.200 M338.505 196.287 C 339.114 196.379,340.014 196.377,340.505 196.282 C 340.997 196.187,340.500 196.111,339.400 196.114 C 338.300 196.117,337.897 196.195,338.505 196.287 M303.400 241.600 C 304.483 242.700,305.460 243.600,305.570 243.600 C 305.680 243.600,304.883 242.700,303.800 241.600 C 302.717 240.500,301.740 239.600,301.630 239.600 C 301.520 239.600,302.317 240.500,303.400 241.600 M346.800 240.525 C 346.800 240.594,347.385 241.179,348.100 241.825 L 349.400 243.000 348.225 241.700 C 347.130 240.488,346.800 240.216,346.800 240.525 M340.000 242.925 C 340.000 242.994,340.585 243.579,341.300 244.225 L 342.600 245.400 341.425 244.100 C 340.330 242.888,340.000 242.616,340.000 242.925 M345.400 248.000 C 346.259 248.880,347.052 249.600,347.162 249.600 C 347.272 249.600,346.659 248.880,345.800 248.000 C 344.941 247.120,344.148 246.400,344.038 246.400 C 343.928 246.400,344.541 247.120,345.400 248.000 M352.400 255.000 C 353.595 256.210,354.663 257.200,354.773 257.200 C 354.883 257.200,353.995 256.210,352.800 255.000 C 351.605 253.790,350.537 252.800,350.427 252.800 C 350.317 252.800,351.205 253.790,352.400 255.000 M310.520 256.000 C 310.520 257.210,310.595 257.705,310.687 257.100 C 310.778 256.495,310.778 255.505,310.687 254.900 C 310.595 254.295,310.520 254.790,310.520 256.000 M361.200 256.200 C 361.946 256.970,362.647 257.600,362.757 257.600 C 362.867 257.600,362.346 256.970,361.600 256.200 C 360.854 255.430,360.153 254.800,360.043 254.800 C 359.933 254.800,360.454 255.430,361.200 256.200 M358.800 261.800 C 359.546 262.570,360.247 263.200,360.357 263.200 C 360.467 263.200,359.946 262.570,359.200 261.800 C 358.454 261.030,357.753 260.400,357.643 260.400 C 357.533 260.400,358.054 261.030,358.800 261.800 M370.800 266.600 C 371.546 267.370,372.247 268.000,372.357 268.000 C 372.467 268.000,371.946 267.370,371.200 266.600 C 370.454 265.830,369.753 265.200,369.643 265.200 C 369.533 265.200,370.054 265.830,370.800 266.600 M380.000 276.600 C 380.746 277.370,381.447 278.000,381.557 278.000 C 381.667 278.000,381.146 277.370,380.400 276.600 C 379.654 275.830,378.953 275.200,378.843 275.200 C 378.733 275.200,379.254 275.830,380.000 276.600 M260.975 278.900 L 259.800 280.200 261.100 279.025 C 261.815 278.379,262.400 277.794,262.400 277.725 C 262.400 277.416,262.070 277.688,260.975 278.900 M384.800 281.800 C 385.546 282.570,386.247 283.200,386.357 283.200 C 386.467 283.200,385.946 282.570,385.200 281.800 C 384.454 281.030,383.753 280.400,383.643 280.400 C 383.533 280.400,384.054 281.030,384.800 281.800 M210.778 286.700 L 209.400 288.200 210.900 286.822 C 212.296 285.538,212.584 285.200,212.278 285.200 C 212.212 285.200,211.537 285.875,210.778 286.700 M284.778 297.500 L 283.400 299.000 284.900 297.622 C 286.296 296.338,286.584 296.000,286.278 296.000 C 286.212 296.000,285.537 296.675,284.778 297.500 M277.978 304.300 L 276.600 305.800 278.100 304.422 C 279.496 303.138,279.784 302.800,279.478 302.800 C 279.412 302.800,278.737 303.475,277.978 304.300 M190.175 305.300 L 189.000 306.600 190.300 305.425 C 191.512 304.330,191.784 304.000,191.475 304.000 C 191.406 304.000,190.821 304.585,190.175 305.300 M241.200 315.427 C 242.544 315.727,245.511 315.780,245.338 315.500 C 245.236 315.335,244.128 315.221,242.876 315.246 C 241.624 315.272,240.870 315.353,241.200 315.427 M214.378 347.900 L 213.000 349.400 214.500 348.022 C 215.896 346.738,216.184 346.400,215.878 346.400 C 215.812 346.400,215.137 347.075,214.378 347.900 M237.200 357.800 C 236.228 358.790,235.523 359.600,235.633 359.600 C 235.743 359.600,236.628 358.790,237.600 357.800 C 238.572 356.810,239.277 356.000,239.167 356.000 C 239.057 356.000,238.172 356.810,237.200 357.800 M230.985 364.100 L 229.000 366.200 231.100 364.215 C 232.255 363.123,233.200 362.178,233.200 362.115 C 233.200 361.817,232.829 362.149,230.985 364.100 M226.975 367.700 L 225.800 369.000 227.100 367.825 C 227.815 367.179,228.400 366.594,228.400 366.525 C 228.400 366.216,228.070 366.488,226.975 367.700 M211.354 376.177 C 211.232 376.494,211.217 377.079,211.320 377.477 C 211.445 377.960,211.523 377.843,211.554 377.124 C 211.594 376.186,211.792 376.028,213.100 375.891 L 214.600 375.734 213.087 375.667 C 212.091 375.623,211.499 375.797,211.354 376.177 M202.352 378.112 C 202.545 378.305,203.219 378.398,203.851 378.319 C 204.909 378.187,204.881 378.159,203.500 377.968 C 202.640 377.849,202.150 377.910,202.352 378.112 M178.975 394.500 L 177.800 395.800 179.100 394.625 C 180.312 393.530,180.584 393.200,180.275 393.200 C 180.206 393.200,179.621 393.785,178.975 394.500 M170.100 397.891 C 170.925 397.978,172.275 397.978,173.100 397.891 C 173.925 397.805,173.250 397.734,171.600 397.734 C 169.950 397.734,169.275 397.805,170.100 397.891 " stroke="none" fill="#cce0f3" fill-rule="evenodd"></path><path id="path4" d="M310.033 13.344 C 310.125 13.424,311.010 13.596,312.000 13.727 C 313.202 13.886,313.534 13.847,313.000 13.610 C 312.236 13.272,309.686 13.043,310.033 13.344 M283.200 20.200 C 282.228 21.190,281.523 22.000,281.633 22.000 C 281.743 22.000,282.628 21.190,283.600 20.200 C 284.572 19.210,285.277 18.400,285.167 18.400 C 285.057 18.400,284.172 19.210,283.200 20.200 M315.891 40.689 C 316.601 40.777,317.861 40.779,318.691 40.692 C 319.521 40.605,318.940 40.533,317.400 40.531 C 315.860 40.529,315.181 40.600,315.891 40.689 M325.107 41.090 C 325.826 41.179,326.906 41.177,327.507 41.086 C 328.108 40.995,327.520 40.922,326.200 40.924 C 324.880 40.926,324.388 41.001,325.107 41.090 M337.105 41.483 C 337.602 41.579,338.322 41.575,338.705 41.475 C 339.087 41.375,338.680 41.296,337.800 41.301 C 336.920 41.305,336.607 41.387,337.105 41.483 M272.128 46.400 C 272.128 47.830,272.201 48.415,272.289 47.700 C 272.378 46.985,272.378 45.815,272.289 45.100 C 272.201 44.385,272.128 44.970,272.128 46.400 M271.720 54.400 C 271.720 55.610,271.795 56.105,271.887 55.500 C 271.978 54.895,271.978 53.905,271.887 53.300 C 271.795 52.695,271.720 53.190,271.720 54.400 M300.493 54.000 C 300.493 54.770,300.575 55.085,300.676 54.700 C 300.776 54.315,300.776 53.685,300.676 53.300 C 300.575 52.915,300.493 53.230,300.493 54.000 M302.101 68.600 C 302.105 69.480,302.187 69.793,302.283 69.295 C 302.379 68.798,302.375 68.078,302.275 67.695 C 302.175 67.313,302.096 67.720,302.101 68.600 M303.693 84.400 C 303.693 85.170,303.775 85.485,303.876 85.100 C 303.976 84.715,303.976 84.085,303.876 83.700 C 303.775 83.315,303.693 83.630,303.693 84.400 M198.900 85.094 C 199.945 85.176,201.655 85.176,202.700 85.094 C 203.745 85.012,202.890 84.944,200.800 84.944 C 198.710 84.944,197.855 85.012,198.900 85.094 M390.300 85.098 C 392.115 85.172,395.085 85.172,396.900 85.098 C 398.715 85.023,397.230 84.963,393.600 84.963 C 389.970 84.963,388.485 85.023,390.300 85.098 M229.100 85.899 C 232.015 85.967,236.785 85.967,239.700 85.899 C 242.615 85.831,240.230 85.775,234.400 85.775 C 228.570 85.775,226.185 85.831,229.100 85.899 M252.300 86.282 C 252.795 86.378,253.605 86.378,254.100 86.282 C 254.595 86.187,254.190 86.109,253.200 86.109 C 252.210 86.109,251.805 86.187,252.300 86.282 M368.100 86.276 C 368.485 86.376,369.115 86.376,369.500 86.276 C 369.885 86.175,369.570 86.093,368.800 86.093 C 368.030 86.093,367.715 86.175,368.100 86.276 M257.305 86.687 C 257.914 86.779,258.814 86.777,259.305 86.682 C 259.797 86.587,259.300 86.511,258.200 86.514 C 257.100 86.517,256.697 86.595,257.305 86.687 M364.305 86.683 C 364.802 86.779,365.522 86.775,365.905 86.675 C 366.287 86.575,365.880 86.496,365.000 86.501 C 364.120 86.505,363.807 86.587,364.305 86.683 M174.100 87.476 C 174.485 87.576,175.115 87.576,175.500 87.476 C 175.885 87.375,175.570 87.293,174.800 87.293 C 174.030 87.293,173.715 87.375,174.100 87.476 M144.305 91.083 C 144.802 91.179,145.522 91.175,145.905 91.075 C 146.287 90.975,145.880 90.896,145.000 90.901 C 144.120 90.905,143.807 90.987,144.305 91.083 M301.775 95.300 L 300.600 96.600 301.900 95.425 C 302.615 94.779,303.200 94.194,303.200 94.125 C 303.200 93.816,302.870 94.088,301.775 95.300 M124.175 99.300 L 123.000 100.600 124.300 99.425 C 125.512 98.330,125.784 98.000,125.475 98.000 C 125.406 98.000,124.821 98.585,124.175 99.300 M287.701 100.200 C 287.705 101.080,287.787 101.393,287.883 100.895 C 287.979 100.398,287.975 99.678,287.875 99.295 C 287.775 98.913,287.696 99.320,287.701 100.200 M208.300 107.482 C 208.795 107.578,209.605 107.578,210.100 107.482 C 210.595 107.387,210.190 107.309,209.200 107.309 C 208.210 107.309,207.805 107.387,208.300 107.482 M204.100 107.876 C 204.485 107.976,205.115 107.976,205.500 107.876 C 205.885 107.775,205.570 107.693,204.800 107.693 C 204.030 107.693,203.715 107.775,204.100 107.876 M396.100 108.287 C 396.705 108.378,397.695 108.378,398.300 108.287 C 398.905 108.195,398.410 108.120,397.200 108.120 C 395.990 108.120,395.495 108.195,396.100 108.287 M383.300 108.687 C 383.905 108.778,384.895 108.778,385.500 108.687 C 386.105 108.595,385.610 108.520,384.400 108.520 C 383.190 108.520,382.695 108.595,383.300 108.687 M189.100 109.082 C 189.595 109.178,190.405 109.178,190.900 109.082 C 191.395 108.987,190.990 108.909,190.000 108.909 C 189.010 108.909,188.605 108.987,189.100 109.082 M248.500 109.076 C 248.885 109.176,249.515 109.176,249.900 109.076 C 250.285 108.975,249.970 108.893,249.200 108.893 C 248.430 108.893,248.115 108.975,248.500 109.076 M372.713 109.095 C 373.876 109.176,375.676 109.176,376.713 109.093 C 377.751 109.011,376.800 108.945,374.600 108.946 C 372.400 108.947,371.551 109.014,372.713 109.095 M362.707 109.490 C 363.426 109.579,364.506 109.577,365.107 109.486 C 365.708 109.395,365.120 109.322,363.800 109.324 C 362.480 109.326,361.988 109.401,362.707 109.490 M346.905 109.887 C 347.514 109.979,348.414 109.977,348.905 109.882 C 349.397 109.787,348.900 109.711,347.800 109.714 C 346.700 109.717,346.297 109.795,346.905 109.887 M167.705 110.687 C 168.314 110.779,169.214 110.777,169.705 110.682 C 170.197 110.587,169.700 110.511,168.600 110.514 C 167.500 110.517,167.097 110.595,167.705 110.687 M266.700 110.698 C 268.515 110.772,271.485 110.772,273.300 110.698 C 275.115 110.623,273.630 110.563,270.000 110.563 C 266.370 110.563,264.885 110.623,266.700 110.698 M152.105 111.887 C 152.714 111.979,153.614 111.977,154.105 111.882 C 154.597 111.787,154.100 111.711,153.000 111.714 C 151.900 111.717,151.497 111.795,152.105 111.887 M132.105 113.487 C 132.714 113.579,133.614 113.577,134.105 113.482 C 134.597 113.387,134.100 113.311,133.000 113.314 C 131.900 113.317,131.497 113.395,132.105 113.487 M204.500 113.876 C 204.885 113.976,205.515 113.976,205.900 113.876 C 206.285 113.775,205.970 113.693,205.200 113.693 C 204.430 113.693,204.115 113.775,204.500 113.876 M190.082 114.296 C 191.558 114.373,194.078 114.373,195.682 114.297 C 197.287 114.221,196.080 114.158,193.000 114.158 C 189.920 114.157,188.607 114.219,190.082 114.296 M182.505 114.687 C 183.114 114.779,184.014 114.777,184.505 114.682 C 184.997 114.587,184.500 114.511,183.400 114.514 C 182.300 114.517,181.897 114.595,182.505 114.687 M226.100 116.276 C 226.485 116.376,227.115 116.376,227.500 116.276 C 227.885 116.175,227.570 116.093,226.800 116.093 C 226.030 116.093,225.715 116.175,226.100 116.276 M396.700 117.482 C 397.195 117.578,398.005 117.578,398.500 117.482 C 398.995 117.387,398.590 117.309,397.600 117.309 C 396.610 117.309,396.205 117.387,396.700 117.482 M374.900 119.076 C 375.285 119.176,375.915 119.176,376.300 119.076 C 376.685 118.975,376.370 118.893,375.600 118.893 C 374.830 118.893,374.515 118.975,374.900 119.076 M370.300 119.482 C 370.795 119.578,371.605 119.578,372.100 119.482 C 372.595 119.387,372.190 119.309,371.200 119.309 C 370.210 119.309,369.805 119.387,370.300 119.482 M359.905 120.283 C 360.402 120.379,361.122 120.375,361.505 120.275 C 361.887 120.175,361.480 120.096,360.600 120.101 C 359.720 120.105,359.407 120.187,359.905 120.283 M161.293 122.800 C 161.293 123.570,161.375 123.885,161.476 123.500 C 161.576 123.115,161.576 122.485,161.476 122.100 C 161.375 121.715,161.293 122.030,161.293 122.800 M268.900 122.276 C 269.285 122.376,269.915 122.376,270.300 122.276 C 270.685 122.175,270.370 122.093,269.600 122.093 C 268.830 122.093,268.515 122.175,268.900 122.276 M375.300 137.097 C 376.785 137.174,379.215 137.174,380.700 137.097 C 382.185 137.020,380.970 136.957,378.000 136.957 C 375.030 136.957,373.815 137.020,375.300 137.097 M209.700 138.700 C 215.585 138.762,225.215 138.762,231.100 138.700 C 236.985 138.637,232.170 138.586,220.400 138.586 C 208.630 138.586,203.815 138.637,209.700 138.700 M243.891 139.089 C 244.601 139.177,245.861 139.179,246.691 139.092 C 247.521 139.005,246.940 138.933,245.400 138.931 C 243.860 138.929,243.181 139.000,243.891 139.089 M388.900 140.276 C 389.285 140.376,389.915 140.376,390.300 140.276 C 390.685 140.175,390.370 140.093,389.600 140.093 C 388.830 140.093,388.515 140.175,388.900 140.276 M364.575 141.700 L 363.400 143.000 364.700 141.825 C 365.415 141.179,366.000 140.594,366.000 140.525 C 366.000 140.216,365.670 140.488,364.575 141.700 M288.524 157.000 C 288.526 158.320,288.601 158.812,288.690 158.093 C 288.779 157.374,288.777 156.294,288.686 155.693 C 288.595 155.092,288.522 155.680,288.524 157.000 M331.724 161.400 C 331.726 162.720,331.801 163.212,331.890 162.493 C 331.979 161.774,331.977 160.694,331.886 160.093 C 331.795 159.492,331.722 160.080,331.724 161.400 M331.344 171.200 C 331.344 173.290,331.412 174.145,331.494 173.100 C 331.576 172.055,331.576 170.345,331.494 169.300 C 331.412 168.255,331.344 169.110,331.344 171.200 M280.307 169.490 C 281.026 169.579,282.106 169.577,282.707 169.486 C 283.308 169.395,282.720 169.322,281.400 169.324 C 280.080 169.326,279.588 169.401,280.307 169.490 M272.175 179.300 L 271.000 180.600 272.300 179.425 C 273.015 178.779,273.600 178.194,273.600 178.125 C 273.600 177.816,273.270 178.088,272.175 179.300 M331.301 182.200 C 331.305 183.080,331.387 183.393,331.483 182.895 C 331.579 182.398,331.575 181.678,331.475 181.295 C 331.375 180.913,331.296 181.320,331.301 182.200 M348.093 188.400 C 348.093 189.170,348.175 189.485,348.276 189.100 C 348.376 188.715,348.376 188.085,348.276 187.700 C 348.175 187.315,348.093 187.630,348.093 188.400 M345.578 194.300 L 344.200 195.800 345.700 194.422 C 347.096 193.138,347.384 192.800,347.078 192.800 C 347.012 192.800,346.337 193.475,345.578 194.300 M255.600 195.800 C 254.628 196.790,253.923 197.600,254.033 197.600 C 254.143 197.600,255.028 196.790,256.000 195.800 C 256.972 194.810,257.677 194.000,257.567 194.000 C 257.457 194.000,256.572 194.810,255.600 195.800 M342.600 196.400 L 341.400 196.705 342.476 196.753 C 343.068 196.779,343.664 196.620,343.800 196.400 C 343.936 196.180,343.992 196.021,343.924 196.047 C 343.856 196.073,343.260 196.232,342.600 196.400 M366.800 221.325 C 366.800 221.394,367.385 221.979,368.100 222.625 L 369.400 223.800 368.225 222.500 C 367.130 221.288,366.800 221.016,366.800 221.325 M371.583 225.700 C 372.564 226.745,373.419 227.600,373.483 227.600 C 373.784 227.600,373.466 227.241,371.700 225.583 L 369.800 223.800 371.583 225.700 M335.800 228.800 C 336.659 229.680,337.452 230.400,337.562 230.400 C 337.672 230.400,337.059 229.680,336.200 228.800 C 335.341 227.920,334.548 227.200,334.438 227.200 C 334.328 227.200,334.941 227.920,335.800 228.800 M377.183 231.300 C 378.164 232.345,379.019 233.200,379.083 233.200 C 379.384 233.200,379.066 232.841,377.300 231.183 L 375.400 229.400 377.183 231.300 M322.900 233.876 C 323.285 233.976,323.915 233.976,324.300 233.876 C 324.685 233.775,324.370 233.693,323.600 233.693 C 322.830 233.693,322.515 233.775,322.900 233.876 M381.800 236.400 C 382.659 237.280,383.452 238.000,383.562 238.000 C 383.672 238.000,383.059 237.280,382.200 236.400 C 381.341 235.520,380.548 234.800,380.438 234.800 C 380.328 234.800,380.941 235.520,381.800 236.400 M318.144 240.400 C 318.144 242.490,318.212 243.345,318.294 242.300 C 318.376 241.255,318.376 239.545,318.294 238.500 C 318.212 237.455,318.144 238.310,318.144 240.400 M345.200 239.000 C 345.946 239.770,346.647 240.400,346.757 240.400 C 346.867 240.400,346.346 239.770,345.600 239.000 C 344.854 238.230,344.153 237.600,344.043 237.600 C 343.933 237.600,344.454 238.230,345.200 239.000 M342.400 245.000 C 343.146 245.770,343.847 246.400,343.957 246.400 C 344.067 246.400,343.546 245.770,342.800 245.000 C 342.054 244.230,341.353 243.600,341.243 243.600 C 341.133 243.600,341.654 244.230,342.400 245.000 M353.200 247.725 C 353.200 247.794,353.785 248.379,354.500 249.025 L 355.800 250.200 354.625 248.900 C 353.530 247.688,353.200 247.416,353.200 247.725 M356.200 258.800 C 357.059 259.680,357.852 260.400,357.962 260.400 C 358.072 260.400,357.459 259.680,356.600 258.800 C 355.741 257.920,354.948 257.200,354.838 257.200 C 354.728 257.200,355.341 257.920,356.200 258.800 M364.200 259.600 C 365.059 260.480,365.852 261.200,365.962 261.200 C 366.072 261.200,365.459 260.480,364.600 259.600 C 363.741 258.720,362.948 258.000,362.838 258.000 C 362.728 258.000,363.341 258.720,364.200 259.600 M372.400 268.525 C 372.400 268.594,372.985 269.179,373.700 269.825 L 375.000 271.000 373.825 269.700 C 372.730 268.488,372.400 268.216,372.400 268.525 M381.200 278.125 C 381.200 278.194,381.785 278.779,382.500 279.425 L 383.800 280.600 382.625 279.300 C 381.530 278.088,381.200 277.816,381.200 278.125 M387.200 284.600 C 387.946 285.370,388.647 286.000,388.757 286.000 C 388.867 286.000,388.346 285.370,387.600 284.600 C 386.854 283.830,386.153 283.200,386.043 283.200 C 385.933 283.200,386.454 283.830,387.200 284.600 M287.578 294.700 L 286.200 296.200 287.700 294.822 C 289.096 293.538,289.384 293.200,289.078 293.200 C 289.012 293.200,288.337 293.875,287.578 294.700 M249.331 300.600 C 249.333 302.140,249.405 302.721,249.492 301.891 C 249.579 301.061,249.577 299.801,249.489 299.091 C 249.400 298.381,249.329 299.060,249.331 300.600 M193.387 301.700 L 191.000 304.200 193.500 301.813 C 195.822 299.595,196.183 299.200,195.887 299.200 C 195.826 299.200,194.701 300.325,193.387 301.700 M279.775 302.900 L 278.600 304.200 279.900 303.025 C 280.615 302.379,281.200 301.794,281.200 301.725 C 281.200 301.416,280.870 301.688,279.775 302.900 M380.400 308.125 C 380.400 308.194,380.985 308.779,381.700 309.425 L 383.000 310.600 381.825 309.300 C 380.730 308.088,380.400 307.816,380.400 308.125 M176.131 330.200 C 176.133 331.740,176.205 332.321,176.292 331.491 C 176.379 330.661,176.377 329.401,176.289 328.691 C 176.200 327.981,176.129 328.660,176.131 330.200 M247.309 331.600 C 247.309 332.590,247.387 332.995,247.482 332.500 C 247.578 332.005,247.578 331.195,247.482 330.700 C 247.387 330.205,247.309 330.610,247.309 331.600 M247.353 339.400 C 247.353 342.040,247.418 343.068,247.497 341.684 C 247.575 340.301,247.574 338.141,247.495 336.884 C 247.416 335.628,247.352 336.760,247.353 339.400 M208.000 378.400 L 204.600 378.651 207.876 378.725 C 209.714 378.767,211.261 378.624,211.400 378.400 C 211.536 378.180,211.592 378.034,211.524 378.075 C 211.456 378.116,209.870 378.262,208.000 378.400 " stroke="none" fill="#deeaf4" fill-rule="evenodd"></path></g></svg>