<?xml version="1.0" encoding="UTF-8"?>
<svg xmlns="http://www.w3.org/2000/svg" xmlns:xlink="http://www.w3.org/1999/xlink" width="169px" height="60px" viewBox="0 0 169 60" version="1.1">
<g id="surface1">
<path style=" stroke:none;fill-rule:nonzero;fill:rgb(0%,0%,0%);fill-opacity:1;" d="M 15.917969 7.15625 C 12.300781 8.464844 10.246094 9.910156 8.335938 12.523438 C 4.441406 17.820312 4.101562 25.117188 7.582031 30.757812 C 11.953125 37.84375 22.542969 40.320312 31.289062 36.261719 L 35.179688 34.472656 L 35.179688 22.019531 L 27.667969 22.019531 L 27.667969 26.078125 C 27.667969 30.6875 27.394531 30.964844 22.066406 30.964844 C 19.058594 30.964844 18.375 30.6875 16.328125 28.625 C 14.074219 26.351562 13.664062 24.910156 14.003906 20.640625 C 14.554688 14.035156 22.75 10.871094 28.347656 15.070312 L 30.261719 16.445312 L 32.859375 14.175781 C 35.179688 12.109375 35.382812 11.765625 34.496094 10.734375 C 31.492188 7.019531 21.3125 5.089844 15.917969 7.15625 Z M 15.917969 7.15625 "/>
<path style=" stroke:none;fill-rule:nonzero;fill:rgb(0%,0%,0%);fill-opacity:1;" d="M 48.230469 21.398438 C 44.742188 29.382812 41.738281 36.332031 41.53125 36.882812 C 41.261719 37.636719 42.082031 37.84375 45.363281 37.84375 L 49.597656 37.84375 L 50.890625 34.746094 L 52.191406 31.652344 L 65.648438 31.652344 L 66.667969 34.542969 L 67.765625 37.5 L 72.273438 37.707031 L 76.78125 37.910156 L 73.640625 30.824219 C 71.929688 26.90625 68.921875 20.023438 66.941406 15.480469 L 63.394531 7.226562 L 58.953125 7.019531 L 54.578125 6.8125 Z M 61.070312 20.503906 C 61.890625 22.5 62.503906 24.425781 62.503906 24.773438 C 62.503906 25.183594 60.796875 25.457031 58.746094 25.457031 C 56.699219 25.457031 54.992188 25.183594 54.992188 24.835938 C 54.992188 24.496094 55.46875 23.050781 56.082031 21.605469 C 56.699219 20.089844 57.519531 18.164062 57.859375 17.273438 C 58.613281 15.207031 59.292969 15.824219 61.070312 20.503906 Z M 61.070312 20.503906 "/>
<path style=" stroke:none;fill-rule:nonzero;fill:rgb(0%,0%,0%);fill-opacity:1;" d="M 83.679688 22.363281 L 83.679688 37.84375 L 91.875 37.84375 L 91.875 6.882812 L 83.679688 6.882812 Z M 83.679688 22.363281 "/>
<path style=" stroke:none;fill-rule:nonzero;fill:rgb(0%,0%,0%);fill-opacity:1;" d="M 99.390625 10.320312 L 99.390625 13.761719 L 108.957031 13.761719 L 108.957031 37.84375 L 117.152344 37.84375 L 117.152344 13.761719 L 126.714844 13.761719 L 126.714844 6.882812 L 99.390625 6.882812 Z M 99.390625 10.320312 "/>
<path style=" stroke:none;fill-rule:nonzero;fill:rgb(0%,0%,0%);fill-opacity:1;" d="M 134.226562 22.363281 L 134.226562 37.84375 L 142.425781 37.84375 L 142.425781 29.589844 L 145.160156 29.589844 C 147.6875 29.589844 148.027344 29.863281 150.625 33.714844 L 153.421875 37.84375 L 157.863281 37.84375 C 161.210938 37.84375 162.167969 37.636719 161.828125 36.949219 C 161.550781 36.535156 160.117188 34.335938 158.613281 32.199219 L 155.949219 28.277344 L 158 26.558594 C 160.800781 24.152344 161.757812 21.332031 161.417969 16.859375 C 161.074219 12.453125 159.363281 10.183594 155.066406 8.1875 C 152.878906 7.15625 150.625 6.882812 143.3125 6.882812 L 134.226562 6.882812 Z M 152.261719 15.273438 C 153.765625 17.410156 153.628906 19.679688 151.988281 21.332031 C 150.898438 22.429688 149.734375 22.707031 146.523438 22.707031 L 142.425781 22.707031 L 142.425781 13.761719 L 146.796875 13.761719 C 150.625 13.761719 151.375 13.96875 152.261719 15.273438 Z M 152.261719 15.273438 "/>
<path style=" stroke:none;fill-rule:nonzero;fill:rgb(0%,0%,0%);fill-opacity:1;" d="M 3.761719 52.980469 L 3.761719 57.109375 L 125.347656 57.109375 L 125.347656 48.851562 L 3.761719 48.851562 Z M 3.761719 52.980469 "/>
</g>
</svg>
