<svg id="svg" version="1.1" xmlns="http://www.w3.org/2000/svg" xmlns:xlink="http://www.w3.org/1999/xlink" width="400" height="151.42857142857144" viewBox="0, 0, 400,151.42857142857144"><g id="svgg"><path id="path0" d="M334.286 41.002 L 334.286 62.143 340.357 62.143 L 346.429 62.143 346.429 56.429 L 346.429 50.714 349.515 50.714 C 352.571 50.714,352.637 50.768,356.479 56.415 L 360.357 62.115 366.649 62.129 C 371.482 62.140,372.823 61.936,372.431 61.250 C 372.151 60.759,370.182 57.845,368.055 54.775 L 364.189 49.194 367.319 46.439 C 375.273 39.437,373.402 27.114,363.658 22.329 C 359.811 20.440,359.112 20.347,346.964 20.109 L 334.286 19.861 334.286 41.002 M355.884 30.035 C 364.305 32.374,360.688 41.429,351.332 41.429 L 346.429 41.429 346.429 35.357 L 346.429 29.286 349.821 29.290 C 351.688 29.292,354.416 29.627,355.884 30.035 M66.429 30.662 C 17.654 37.498,22.943 105.573,72.259 105.702 C 81.202 105.725,93.216 102.497,99.910 98.271 L 102.857 96.411 102.857 81.420 L 102.857 66.429 93.929 66.429 L 85.000 66.429 85.000 76.401 L 85.000 86.373 81.299 87.472 C 62.679 93.002,47.329 76.334,54.934 58.844 C 60.409 46.252,78.749 43.353,89.432 53.390 L 91.364 55.205 94.075 52.858 C 95.566 51.568,98.498 48.909,100.591 46.949 L 104.395 43.387 101.720 40.647 C 94.505 33.258,79.067 28.890,66.429 30.662 M147.939 32.704 C 147.343 33.818,117.587 101.011,116.626 103.412 C 116.337 104.133,118.470 104.283,126.783 104.127 L 137.305 103.929 140.185 96.951 L 143.065 89.973 158.397 90.165 L 173.729 90.357 176.428 97.143 L 179.128 103.929 189.920 104.126 L 200.713 104.323 199.043 100.554 C 198.124 98.482,190.860 82.080,182.901 64.107 L 168.428 31.429 158.525 31.429 C 149.748 31.429,148.544 31.574,147.939 32.704 M215.714 67.857 L 215.714 104.286 225.714 104.286 L 235.714 104.286 235.714 67.857 L 235.714 31.429 225.714 31.429 L 215.714 31.429 215.714 67.857 M252.857 39.643 L 252.857 47.857 263.929 47.857 L 275.000 47.857 275.000 76.071 L 275.000 104.286 285.357 104.286 L 295.714 104.286 295.714 76.071 L 295.714 47.857 306.786 47.857 L 317.857 47.857 317.857 39.643 L 317.857 31.429 285.357 31.429 L 252.857 31.429 252.857 39.643 M162.870 63.246 C 165.220 69.077,167.143 74.107,167.143 74.424 C 167.143 74.741,163.125 75.000,158.214 75.000 C 153.304 75.000,149.286 74.805,149.286 74.566 C 149.286 73.759,158.130 52.178,158.365 52.412 C 158.493 52.540,160.520 57.416,162.870 63.246 M28.571 121.786 L 28.571 131.429 171.429 131.429 L 314.286 131.429 314.286 121.786 L 314.286 112.143 171.429 112.143 L 28.571 112.143 28.571 121.786 " stroke="none" fill="#000000" fill-rule="evenodd"></path></g></svg>